<?xml version="1.0" encoding="UTF-8" standalone="no"?><svg xmlns="http://www.w3.org/2000/svg" xmlns:xlink="http://www.w3.org/1999/xlink" contentScriptType="application/ecmascript" contentStyleType="text/css" height="321px" preserveAspectRatio="none" style="width:241px;height:321px;" version="1.1" viewBox="0 0 241 321" width="241px" zoomAndPan="magnify"><defs><filter height="300%" id="f146nk3dt1ylv3" width="300%" x="-1" y="-1"><feGaussianBlur result="blurOut" stdDeviation="2.0"/><feColorMatrix in="blurOut" result="blurOut2" type="matrix" values="0 0 0 0 0 0 0 0 0 0 0 0 0 0 0 0 0 0 .4 0"/><feOffset dx="4.0" dy="4.0" in="blurOut2" result="blurOut3"/><feBlend in="SourceGraphic" in2="blurOut3" mode="normal"/></filter></defs><g><!--MD5=[eab621e379c7724e026a8e0393322358]
class ClearLevel--><rect fill="#FEFECE" filter="url(#f146nk3dt1ylv3)" height="86.4141" id="ClearLevel" style="stroke: #A80036; stroke-width: 1.5;" width="221" x="9.5" y="116"/><ellipse cx="84.25" cy="132" fill="#ADD1B2" rx="11" ry="11" style="stroke: #A80036; stroke-width: 1.0;"/><path d="M87.2188,137.6406 Q86.6406,137.9375 86,138.0781 Q85.3594,138.2344 84.6563,138.2344 Q82.1563,138.2344 80.8281,136.5938 Q79.5156,134.9375 79.5156,131.8125 Q79.5156,128.6875 80.8281,127.0313 Q82.1563,125.375 84.6563,125.375 Q85.3594,125.375 86,125.5313 Q86.6563,125.6875 87.2188,125.9844 L87.2188,128.7031 Q86.5938,128.125 86,127.8594 Q85.4063,127.5781 84.7813,127.5781 Q83.4375,127.5781 82.75,128.6563 Q82.0625,129.7188 82.0625,131.8125 Q82.0625,133.9063 82.75,134.9844 Q83.4375,136.0469 84.7813,136.0469 Q85.4063,136.0469 86,135.7813 Q86.5938,135.5 87.2188,134.9219 L87.2188,137.6406 Z "/><text fill="#000000" font-family="sans-serif" font-size="12" lengthAdjust="spacingAndGlyphs" textLength="63" x="104.75" y="136.1543">ClearLevel</text><line style="stroke: #A80036; stroke-width: 1.5;" x1="10.5" x2="229.5" y1="148" y2="148"/><line style="stroke: #A80036; stroke-width: 1.5;" x1="10.5" x2="229.5" y1="156" y2="156"/><text fill="#000000" font-family="sans-serif" font-size="11" lengthAdjust="spacingAndGlyphs" textLength="71" x="29.5" y="170.2104">Start() : void</text><text fill="#000000" font-family="sans-serif" font-size="11" lengthAdjust="spacingAndGlyphs" textLength="83" x="29.5" y="183.0151">Update() : void</text><ellipse cx="20.5" cy="192.6094" fill="#84BE84" rx="3" ry="3" style="stroke: #038048; stroke-width: 1.0;"/><text fill="#000000" font-family="sans-serif" font-size="11" lengthAdjust="spacingAndGlyphs" textLength="195" x="29.5" y="195.8198">OnTriggerEnter(Col:Collider) : void</text><!--MD5=[83b3cf3d23d77c6f1e1b5291a241bc2a]
class MonoBehaviour--><rect fill="#FEFECE" filter="url(#f146nk3dt1ylv3)" height="48" id="MonoBehaviour" style="stroke: #A80036; stroke-width: 1.5;" width="128" x="56" y="8"/><ellipse cx="71" cy="24" fill="#ADD1B2" rx="11" ry="11" style="stroke: #A80036; stroke-width: 1.0;"/><path d="M73.9688,29.6406 Q73.3906,29.9375 72.75,30.0781 Q72.1094,30.2344 71.4063,30.2344 Q68.9063,30.2344 67.5781,28.5938 Q66.2656,26.9375 66.2656,23.8125 Q66.2656,20.6875 67.5781,19.0313 Q68.9063,17.375 71.4063,17.375 Q72.1094,17.375 72.75,17.5313 Q73.4063,17.6875 73.9688,17.9844 L73.9688,20.7031 Q73.3438,20.125 72.75,19.8594 Q72.1563,19.5781 71.5313,19.5781 Q70.1875,19.5781 69.5,20.6563 Q68.8125,21.7188 68.8125,23.8125 Q68.8125,25.9063 69.5,26.9844 Q70.1875,28.0469 71.5313,28.0469 Q72.1563,28.0469 72.75,27.7813 Q73.3438,27.5 73.9688,26.9219 L73.9688,29.6406 Z "/><text fill="#000000" font-family="sans-serif" font-size="12" lengthAdjust="spacingAndGlyphs" textLength="96" x="85" y="28.1543">MonoBehaviour</text><line style="stroke: #A80036; stroke-width: 1.5;" x1="57" x2="183" y1="40" y2="40"/><line style="stroke: #A80036; stroke-width: 1.5;" x1="57" x2="183" y1="48" y2="48"/><!--MD5=[064f7a74fee85463ec1a30143664ee17]
class GameObject--><rect fill="#FEFECE" filter="url(#f146nk3dt1ylv3)" height="48" id="GameObject" style="stroke: #A80036; stroke-width: 1.5;" width="108" x="66" y="262"/><ellipse cx="81" cy="278" fill="#ADD1B2" rx="11" ry="11" style="stroke: #A80036; stroke-width: 1.0;"/><path d="M83.9688,283.6406 Q83.3906,283.9375 82.75,284.0781 Q82.1094,284.2344 81.4063,284.2344 Q78.9063,284.2344 77.5781,282.5938 Q76.2656,280.9375 76.2656,277.8125 Q76.2656,274.6875 77.5781,273.0313 Q78.9063,271.375 81.4063,271.375 Q82.1094,271.375 82.75,271.5313 Q83.4063,271.6875 83.9688,271.9844 L83.9688,274.7031 Q83.3438,274.125 82.75,273.8594 Q82.1563,273.5781 81.5313,273.5781 Q80.1875,273.5781 79.5,274.6563 Q78.8125,275.7188 78.8125,277.8125 Q78.8125,279.9063 79.5,280.9844 Q80.1875,282.0469 81.5313,282.0469 Q82.1563,282.0469 82.75,281.7813 Q83.3438,281.5 83.9688,280.9219 L83.9688,283.6406 Z "/><text fill="#000000" font-family="sans-serif" font-size="12" lengthAdjust="spacingAndGlyphs" textLength="76" x="95" y="282.1543">GameObject</text><line style="stroke: #A80036; stroke-width: 1.5;" x1="67" x2="173" y1="294" y2="294"/><line style="stroke: #A80036; stroke-width: 1.5;" x1="67" x2="173" y1="302" y2="302"/><!--MD5=[0f02071ffa558a7715b137593fae9b8a]
reverse link MonoBehaviour to ClearLevel--><path d="M120,76.27 C120,89.12 120,103.17 120,115.94 " fill="none" id="MonoBehaviour&lt;-ClearLevel" style="stroke: #A80036; stroke-width: 1.0;"/><polygon fill="none" points="113,76.22,120,56.22,127,76.22,113,76.22" style="stroke: #A80036; stroke-width: 1.0;"/><!--MD5=[d45df3c1fdd5181755c53de68336b1e5]
link ClearLevel to GameObject--><path d="M120,202.32 C120,220.14 120,240.41 120,256.42 " fill="none" id="ClearLevel-&gt;GameObject" style="stroke: #A80036; stroke-width: 1.0;"/><polygon fill="#A80036" points="120,261.67,124,252.67,120,256.67,116,252.67,120,261.67" style="stroke: #A80036; stroke-width: 1.0;"/><text fill="#000000" font-family="sans-serif" font-size="13" lengthAdjust="spacingAndGlyphs" textLength="99" x="8.9344" y="250.9945">clearLevelMenu</text><!--MD5=[eaa296706bfc64a33c2c1c31fbbceddf]
@startuml
class ClearLevel {
    Start() : void
    Update() : void
    + OnTriggerEnter(Col:Collider) : void
}
MonoBehaviour <|- - ClearLevel
ClearLevel - -> "clearLevelMenu" GameObject
@enduml

PlantUML version 1.2020.02(Sun Mar 01 10:22:07 GMT 2020)
(GPL source distribution)
Java Runtime: OpenJDK Runtime Environment
JVM: OpenJDK 64-Bit Server VM
Java Version: 11.0.9+11-Ubuntu-0ubuntu1
Operating System: Linux
Default Encoding: ANSI_X3.4-1968
Language: en
Country: US
--></g></svg>