<?xml version="1.0" encoding="UTF-8" standalone="no"?><svg xmlns="http://www.w3.org/2000/svg" xmlns:xlink="http://www.w3.org/1999/xlink" contentScriptType="application/ecmascript" contentStyleType="text/css" height="213px" preserveAspectRatio="none" style="width:238px;height:213px;" version="1.1" viewBox="0 0 238 213" width="238px" zoomAndPan="magnify"><defs><filter height="300%" id="f1x54uik0ssgqy" width="300%" x="-1" y="-1"><feGaussianBlur result="blurOut" stdDeviation="2.0"/><feColorMatrix in="blurOut" result="blurOut2" type="matrix" values="0 0 0 0 0 0 0 0 0 0 0 0 0 0 0 0 0 0 .4 0"/><feOffset dx="4.0" dy="4.0" in="blurOut2" result="blurOut3"/><feBlend in="SourceGraphic" in2="blurOut3" mode="normal"/></filter></defs><g><!--MD5=[c8ba0a919d2fd5eb29c230c3c1a52c1e]
class EnemyCollision--><rect fill="#FEFECE" filter="url(#f1x54uik0ssgqy)" height="86.4141" id="EnemyCollision" style="stroke: #A80036; stroke-width: 1.5;" width="221" x="6" y="116"/><ellipse cx="66.25" cy="132" fill="#ADD1B2" rx="11" ry="11" style="stroke: #A80036; stroke-width: 1.0;"/><path d="M69.2188,137.6406 Q68.6406,137.9375 68,138.0781 Q67.3594,138.2344 66.6563,138.2344 Q64.1563,138.2344 62.8281,136.5938 Q61.5156,134.9375 61.5156,131.8125 Q61.5156,128.6875 62.8281,127.0313 Q64.1563,125.375 66.6563,125.375 Q67.3594,125.375 68,125.5313 Q68.6563,125.6875 69.2188,125.9844 L69.2188,128.7031 Q68.5938,128.125 68,127.8594 Q67.4063,127.5781 66.7813,127.5781 Q65.4375,127.5781 64.75,128.6563 Q64.0625,129.7188 64.0625,131.8125 Q64.0625,133.9063 64.75,134.9844 Q65.4375,136.0469 66.7813,136.0469 Q67.4063,136.0469 68,135.7813 Q68.5938,135.5 69.2188,134.9219 L69.2188,137.6406 Z "/><text fill="#000000" font-family="sans-serif" font-size="12" lengthAdjust="spacingAndGlyphs" textLength="92" x="86.75" y="136.1543">EnemyCollision</text><line style="stroke: #A80036; stroke-width: 1.5;" x1="7" x2="226" y1="148" y2="148"/><line style="stroke: #A80036; stroke-width: 1.5;" x1="7" x2="226" y1="156" y2="156"/><text fill="#000000" font-family="sans-serif" font-size="11" lengthAdjust="spacingAndGlyphs" textLength="71" x="26" y="170.2104">Start() : void</text><ellipse cx="17" cy="179.8047" fill="#84BE84" rx="3" ry="3" style="stroke: #038048; stroke-width: 1.0;"/><text fill="#000000" font-family="sans-serif" font-size="11" lengthAdjust="spacingAndGlyphs" textLength="195" x="26" y="183.0151">OnTriggerEnter(Col:Collider) : void</text><text fill="#000000" font-family="sans-serif" font-size="11" lengthAdjust="spacingAndGlyphs" textLength="83" x="26" y="195.8198">Update() : void</text><!--MD5=[83b3cf3d23d77c6f1e1b5291a241bc2a]
class MonoBehaviour--><rect fill="#FEFECE" filter="url(#f1x54uik0ssgqy)" height="48" id="MonoBehaviour" style="stroke: #A80036; stroke-width: 1.5;" width="128" x="52.5" y="8"/><ellipse cx="67.5" cy="24" fill="#ADD1B2" rx="11" ry="11" style="stroke: #A80036; stroke-width: 1.0;"/><path d="M70.4688,29.6406 Q69.8906,29.9375 69.25,30.0781 Q68.6094,30.2344 67.9063,30.2344 Q65.4063,30.2344 64.0781,28.5938 Q62.7656,26.9375 62.7656,23.8125 Q62.7656,20.6875 64.0781,19.0313 Q65.4063,17.375 67.9063,17.375 Q68.6094,17.375 69.25,17.5313 Q69.9063,17.6875 70.4688,17.9844 L70.4688,20.7031 Q69.8438,20.125 69.25,19.8594 Q68.6563,19.5781 68.0313,19.5781 Q66.6875,19.5781 66,20.6563 Q65.3125,21.7188 65.3125,23.8125 Q65.3125,25.9063 66,26.9844 Q66.6875,28.0469 68.0313,28.0469 Q68.6563,28.0469 69.25,27.7813 Q69.8438,27.5 70.4688,26.9219 L70.4688,29.6406 Z "/><text fill="#000000" font-family="sans-serif" font-size="12" lengthAdjust="spacingAndGlyphs" textLength="96" x="81.5" y="28.1543">MonoBehaviour</text><line style="stroke: #A80036; stroke-width: 1.5;" x1="53.5" x2="179.5" y1="40" y2="40"/><line style="stroke: #A80036; stroke-width: 1.5;" x1="53.5" x2="179.5" y1="48" y2="48"/><!--MD5=[c1037583853e208e5940518f58c9e540]
reverse link MonoBehaviour to EnemyCollision--><path d="M116.5,76.27 C116.5,89.12 116.5,103.17 116.5,115.94 " fill="none" id="MonoBehaviour&lt;-EnemyCollision" style="stroke: #A80036; stroke-width: 1.0;"/><polygon fill="none" points="109.5,76.22,116.5,56.22,123.5,76.22,109.5,76.22" style="stroke: #A80036; stroke-width: 1.0;"/><!--MD5=[72a0e562e42ff47a75ce714aa5f37a84]
@startuml
class EnemyCollision {
    Start() : void
    + OnTriggerEnter(Col:Collider) : void
    Update() : void
}
MonoBehaviour <|- - EnemyCollision
@enduml

PlantUML version 1.2020.02(Sun Mar 01 10:22:07 GMT 2020)
(GPL source distribution)
Java Runtime: OpenJDK Runtime Environment
JVM: OpenJDK 64-Bit Server VM
Java Version: 11.0.9+11-Ubuntu-0ubuntu1
Operating System: Linux
Default Encoding: ANSI_X3.4-1968
Language: en
Country: US
--></g></svg>