<?xml version="1.0" encoding="UTF-8" standalone="no"?><svg xmlns="http://www.w3.org/2000/svg" xmlns:xlink="http://www.w3.org/1999/xlink" contentScriptType="application/ecmascript" contentStyleType="text/css" height="309px" preserveAspectRatio="none" style="width:149px;height:309px;" version="1.1" viewBox="0 0 149 309" width="149px" zoomAndPan="magnify"><defs><filter height="300%" id="f1wfbj6xcg5hzx" width="300%" x="-1" y="-1"><feGaussianBlur result="blurOut" stdDeviation="2.0"/><feColorMatrix in="blurOut" result="blurOut2" type="matrix" values="0 0 0 0 0 0 0 0 0 0 0 0 0 0 0 0 0 0 .4 0"/><feOffset dx="4.0" dy="4.0" in="blurOut2" result="blurOut3"/><feBlend in="SourceGraphic" in2="blurOut3" mode="normal"/></filter></defs><g><!--MD5=[91d9e5a0361ccc2d6dc511786183b301]
class footsteps--><rect fill="#FEFECE" filter="url(#f1wfbj6xcg5hzx)" height="73.6094" id="footsteps" style="stroke: #A80036; stroke-width: 1.5;" width="95" x="26.5" y="116"/><ellipse cx="42.85" cy="132" fill="#ADD1B2" rx="11" ry="11" style="stroke: #A80036; stroke-width: 1.0;"/><path d="M45.8188,137.6406 Q45.2406,137.9375 44.6,138.0781 Q43.9594,138.2344 43.2563,138.2344 Q40.7563,138.2344 39.4281,136.5938 Q38.1156,134.9375 38.1156,131.8125 Q38.1156,128.6875 39.4281,127.0313 Q40.7563,125.375 43.2563,125.375 Q43.9594,125.375 44.6,125.5313 Q45.2563,125.6875 45.8188,125.9844 L45.8188,128.7031 Q45.1938,128.125 44.6,127.8594 Q44.0063,127.5781 43.3813,127.5781 Q42.0375,127.5781 41.35,128.6563 Q40.6625,129.7188 40.6625,131.8125 Q40.6625,133.9063 41.35,134.9844 Q42.0375,136.0469 43.3813,136.0469 Q44.0063,136.0469 44.6,135.7813 Q45.1938,135.5 45.8188,134.9219 L45.8188,137.6406 Z "/><text fill="#000000" font-family="sans-serif" font-size="12" lengthAdjust="spacingAndGlyphs" textLength="60" x="57.15" y="136.1543">footsteps</text><line style="stroke: #A80036; stroke-width: 1.5;" x1="27.5" x2="120.5" y1="148" y2="148"/><line style="stroke: #A80036; stroke-width: 1.5;" x1="27.5" x2="120.5" y1="156" y2="156"/><text fill="#000000" font-family="sans-serif" font-size="11" lengthAdjust="spacingAndGlyphs" textLength="71" x="32.5" y="170.2104">Start() : void</text><text fill="#000000" font-family="sans-serif" font-size="11" lengthAdjust="spacingAndGlyphs" textLength="83" x="32.5" y="183.0151">Update() : void</text><!--MD5=[83b3cf3d23d77c6f1e1b5291a241bc2a]
class MonoBehaviour--><rect fill="#FEFECE" filter="url(#f1wfbj6xcg5hzx)" height="48" id="MonoBehaviour" style="stroke: #A80036; stroke-width: 1.5;" width="128" x="10" y="8"/><ellipse cx="25" cy="24" fill="#ADD1B2" rx="11" ry="11" style="stroke: #A80036; stroke-width: 1.0;"/><path d="M27.9688,29.6406 Q27.3906,29.9375 26.75,30.0781 Q26.1094,30.2344 25.4063,30.2344 Q22.9063,30.2344 21.5781,28.5938 Q20.2656,26.9375 20.2656,23.8125 Q20.2656,20.6875 21.5781,19.0313 Q22.9063,17.375 25.4063,17.375 Q26.1094,17.375 26.75,17.5313 Q27.4063,17.6875 27.9688,17.9844 L27.9688,20.7031 Q27.3438,20.125 26.75,19.8594 Q26.1563,19.5781 25.5313,19.5781 Q24.1875,19.5781 23.5,20.6563 Q22.8125,21.7188 22.8125,23.8125 Q22.8125,25.9063 23.5,26.9844 Q24.1875,28.0469 25.5313,28.0469 Q26.1563,28.0469 26.75,27.7813 Q27.3438,27.5 27.9688,26.9219 L27.9688,29.6406 Z "/><text fill="#000000" font-family="sans-serif" font-size="12" lengthAdjust="spacingAndGlyphs" textLength="96" x="39" y="28.1543">MonoBehaviour</text><line style="stroke: #A80036; stroke-width: 1.5;" x1="11" x2="137" y1="40" y2="40"/><line style="stroke: #A80036; stroke-width: 1.5;" x1="11" x2="137" y1="48" y2="48"/><!--MD5=[1dcb072468b0d7732dfb17a5d7634985]
class AudioSource--><rect fill="#FEFECE" filter="url(#f1wfbj6xcg5hzx)" height="48" id="AudioSource" style="stroke: #A80036; stroke-width: 1.5;" width="111" x="18.5" y="250"/><ellipse cx="33.5" cy="266" fill="#ADD1B2" rx="11" ry="11" style="stroke: #A80036; stroke-width: 1.0;"/><path d="M36.4688,271.6406 Q35.8906,271.9375 35.25,272.0781 Q34.6094,272.2344 33.9063,272.2344 Q31.4063,272.2344 30.0781,270.5938 Q28.7656,268.9375 28.7656,265.8125 Q28.7656,262.6875 30.0781,261.0313 Q31.4063,259.375 33.9063,259.375 Q34.6094,259.375 35.25,259.5313 Q35.9063,259.6875 36.4688,259.9844 L36.4688,262.7031 Q35.8438,262.125 35.25,261.8594 Q34.6563,261.5781 34.0313,261.5781 Q32.6875,261.5781 32,262.6563 Q31.3125,263.7188 31.3125,265.8125 Q31.3125,267.9063 32,268.9844 Q32.6875,270.0469 34.0313,270.0469 Q34.6563,270.0469 35.25,269.7813 Q35.8438,269.5 36.4688,268.9219 L36.4688,271.6406 Z "/><text fill="#000000" font-family="sans-serif" font-size="12" lengthAdjust="spacingAndGlyphs" textLength="79" x="47.5" y="270.1543">AudioSource</text><line style="stroke: #A80036; stroke-width: 1.5;" x1="19.5" x2="128.5" y1="282" y2="282"/><line style="stroke: #A80036; stroke-width: 1.5;" x1="19.5" x2="128.5" y1="290" y2="290"/><!--MD5=[f94ef24a20b570bf2a7c70c9ffca18e6]
reverse link MonoBehaviour to footsteps--><path d="M74,76.43 C74,89.33 74,103.32 74,115.71 " fill="none" id="MonoBehaviour&lt;-footsteps" style="stroke: #A80036; stroke-width: 1.0;"/><polygon fill="none" points="67,76.23,74,56.23,81,76.23,67,76.23" style="stroke: #A80036; stroke-width: 1.0;"/><!--MD5=[4e3da6cfff6fae3984c8d59c5736d67d]
link footsteps to AudioSource--><path d="M74,190.03 C74,207.48 74,228.15 74,244.49 " fill="none" id="footsteps-&gt;AudioSource" style="stroke: #A80036; stroke-width: 1.0;"/><polygon fill="#A80036" points="74,249.85,78,240.85,74,244.85,70,240.85,74,249.85" style="stroke: #A80036; stroke-width: 1.0;"/><text fill="#000000" font-family="sans-serif" font-size="13" lengthAdjust="spacingAndGlyphs" textLength="53" x="14.2094" y="238.8236">footstep</text><!--MD5=[8aa1c8d5ec57e2fc8ec88ca7938261df]
@startuml
class footsteps {
    Start() : void
    Update() : void
}
MonoBehaviour <|- - footsteps
footsteps - -> "footstep" AudioSource
@enduml

PlantUML version 1.2020.02(Sun Mar 01 10:22:07 GMT 2020)
(GPL source distribution)
Java Runtime: OpenJDK Runtime Environment
JVM: OpenJDK 64-Bit Server VM
Java Version: 11.0.9+11-Ubuntu-0ubuntu1
Operating System: Linux
Default Encoding: ANSI_X3.4-1968
Language: en
Country: US
--></g></svg>