<?xml version="1.0" encoding="UTF-8" standalone="no"?><svg xmlns="http://www.w3.org/2000/svg" xmlns:xlink="http://www.w3.org/1999/xlink" contentScriptType="application/ecmascript" contentStyleType="text/css" height="347px" preserveAspectRatio="none" style="width:238px;height:347px;" version="1.1" viewBox="0 0 238 347" width="238px" zoomAndPan="magnify"><defs><filter height="300%" id="f11c880u1vk6vy" width="300%" x="-1" y="-1"><feGaussianBlur result="blurOut" stdDeviation="2.0"/><feColorMatrix in="blurOut" result="blurOut2" type="matrix" values="0 0 0 0 0 0 0 0 0 0 0 0 0 0 0 0 0 0 .4 0"/><feOffset dx="4.0" dy="4.0" in="blurOut2" result="blurOut3"/><feBlend in="SourceGraphic" in2="blurOut3" mode="normal"/></filter></defs><g><!--MD5=[4b6ce1173581bdd84ca6c8c843f40d1e]
class ItemCollect--><rect fill="#FEFECE" filter="url(#f11c880u1vk6vy)" height="112.0234" id="ItemCollect" style="stroke: #A80036; stroke-width: 1.5;" width="221" x="6" y="116"/><ellipse cx="77.75" cy="132" fill="#ADD1B2" rx="11" ry="11" style="stroke: #A80036; stroke-width: 1.0;"/><path d="M80.7188,137.6406 Q80.1406,137.9375 79.5,138.0781 Q78.8594,138.2344 78.1563,138.2344 Q75.6563,138.2344 74.3281,136.5938 Q73.0156,134.9375 73.0156,131.8125 Q73.0156,128.6875 74.3281,127.0313 Q75.6563,125.375 78.1563,125.375 Q78.8594,125.375 79.5,125.5313 Q80.1563,125.6875 80.7188,125.9844 L80.7188,128.7031 Q80.0938,128.125 79.5,127.8594 Q78.9063,127.5781 78.2813,127.5781 Q76.9375,127.5781 76.25,128.6563 Q75.5625,129.7188 75.5625,131.8125 Q75.5625,133.9063 76.25,134.9844 Q76.9375,136.0469 78.2813,136.0469 Q78.9063,136.0469 79.5,135.7813 Q80.0938,135.5 80.7188,134.9219 L80.7188,137.6406 Z "/><text fill="#000000" font-family="sans-serif" font-size="12" lengthAdjust="spacingAndGlyphs" textLength="69" x="98.25" y="136.1543">ItemCollect</text><line style="stroke: #A80036; stroke-width: 1.5;" x1="7" x2="226" y1="148" y2="148"/><ellipse cx="17" cy="159" fill="none" rx="3" ry="3" style="stroke: #038048; stroke-width: 1.0;"/><text fill="#000000" font-family="sans-serif" font-size="11" lengthAdjust="spacingAndGlyphs" textLength="103" x="26" y="162.2104">itemCollected : int</text><line style="stroke: #A80036; stroke-width: 1.5;" x1="7" x2="226" y1="168.8047" y2="168.8047"/><text fill="#000000" font-family="sans-serif" font-size="11" lengthAdjust="spacingAndGlyphs" textLength="71" x="26" y="183.0151">Start() : void</text><ellipse cx="17" cy="192.6094" fill="#84BE84" rx="3" ry="3" style="stroke: #038048; stroke-width: 1.0;"/><text fill="#000000" font-family="sans-serif" font-size="11" lengthAdjust="spacingAndGlyphs" textLength="195" x="26" y="195.8198">OnTriggerEnter(Col:Collider) : void</text><text fill="#000000" font-family="sans-serif" font-size="11" lengthAdjust="spacingAndGlyphs" textLength="83" x="26" y="208.6245">Update() : void</text><text fill="#000000" font-family="sans-serif" font-size="11" lengthAdjust="spacingAndGlyphs" textLength="77" x="26" y="221.4292">Sprint() : void</text><!--MD5=[83b3cf3d23d77c6f1e1b5291a241bc2a]
class MonoBehaviour--><rect fill="#FEFECE" filter="url(#f11c880u1vk6vy)" height="48" id="MonoBehaviour" style="stroke: #A80036; stroke-width: 1.5;" width="128" x="52.5" y="8"/><ellipse cx="67.5" cy="24" fill="#ADD1B2" rx="11" ry="11" style="stroke: #A80036; stroke-width: 1.0;"/><path d="M70.4688,29.6406 Q69.8906,29.9375 69.25,30.0781 Q68.6094,30.2344 67.9063,30.2344 Q65.4063,30.2344 64.0781,28.5938 Q62.7656,26.9375 62.7656,23.8125 Q62.7656,20.6875 64.0781,19.0313 Q65.4063,17.375 67.9063,17.375 Q68.6094,17.375 69.25,17.5313 Q69.9063,17.6875 70.4688,17.9844 L70.4688,20.7031 Q69.8438,20.125 69.25,19.8594 Q68.6563,19.5781 68.0313,19.5781 Q66.6875,19.5781 66,20.6563 Q65.3125,21.7188 65.3125,23.8125 Q65.3125,25.9063 66,26.9844 Q66.6875,28.0469 68.0313,28.0469 Q68.6563,28.0469 69.25,27.7813 Q69.8438,27.5 70.4688,26.9219 L70.4688,29.6406 Z "/><text fill="#000000" font-family="sans-serif" font-size="12" lengthAdjust="spacingAndGlyphs" textLength="96" x="81.5" y="28.1543">MonoBehaviour</text><line style="stroke: #A80036; stroke-width: 1.5;" x1="53.5" x2="179.5" y1="40" y2="40"/><line style="stroke: #A80036; stroke-width: 1.5;" x1="53.5" x2="179.5" y1="48" y2="48"/><!--MD5=[1dcb072468b0d7732dfb17a5d7634985]
class AudioSource--><rect fill="#FEFECE" filter="url(#f11c880u1vk6vy)" height="48" id="AudioSource" style="stroke: #A80036; stroke-width: 1.5;" width="111" x="61" y="288"/><ellipse cx="76" cy="304" fill="#ADD1B2" rx="11" ry="11" style="stroke: #A80036; stroke-width: 1.0;"/><path d="M78.9688,309.6406 Q78.3906,309.9375 77.75,310.0781 Q77.1094,310.2344 76.4063,310.2344 Q73.9063,310.2344 72.5781,308.5938 Q71.2656,306.9375 71.2656,303.8125 Q71.2656,300.6875 72.5781,299.0313 Q73.9063,297.375 76.4063,297.375 Q77.1094,297.375 77.75,297.5313 Q78.4063,297.6875 78.9688,297.9844 L78.9688,300.7031 Q78.3438,300.125 77.75,299.8594 Q77.1563,299.5781 76.5313,299.5781 Q75.1875,299.5781 74.5,300.6563 Q73.8125,301.7188 73.8125,303.8125 Q73.8125,305.9063 74.5,306.9844 Q75.1875,308.0469 76.5313,308.0469 Q77.1563,308.0469 77.75,307.7813 Q78.3438,307.5 78.9688,306.9219 L78.9688,309.6406 Z "/><text fill="#000000" font-family="sans-serif" font-size="12" lengthAdjust="spacingAndGlyphs" textLength="79" x="90" y="308.1543">AudioSource</text><line style="stroke: #A80036; stroke-width: 1.5;" x1="62" x2="171" y1="320" y2="320"/><line style="stroke: #A80036; stroke-width: 1.5;" x1="62" x2="171" y1="328" y2="328"/><!--MD5=[713dadec84e6a1c38036cfee5a9cdbeb]
reverse link MonoBehaviour to ItemCollect--><path d="M116.5,76.25 C116.5,88.82 116.5,102.73 116.5,115.93 " fill="none" id="MonoBehaviour&lt;-ItemCollect" style="stroke: #A80036; stroke-width: 1.0;"/><polygon fill="none" points="109.5,76.1,116.5,56.1,123.5,76.1,109.5,76.1" style="stroke: #A80036; stroke-width: 1.0;"/><!--MD5=[f92afaf4686063a9930645eaca6cfd7e]
link ItemCollect to AudioSource--><path d="M116.5,228.33 C116.5,246.93 116.5,266.9 116.5,282.56 " fill="none" id="ItemCollect-&gt;AudioSource" style="stroke: #A80036; stroke-width: 1.0;"/><polygon fill="#A80036" points="116.5,287.69,120.5,278.69,116.5,282.69,112.5,278.69,116.5,287.69" style="stroke: #A80036; stroke-width: 1.0;"/><text fill="#000000" font-family="sans-serif" font-size="13" lengthAdjust="spacingAndGlyphs" textLength="68" x="40.2125" y="277.0194">itemsound</text><!--MD5=[899dc3470e43aff233765b4a2a6e6752]
@startuml
class ItemCollect {
    + itemCollected : int
    Start() : void
    + OnTriggerEnter(Col:Collider) : void
    Update() : void
    Sprint() : void
}
MonoBehaviour <|- - ItemCollect
ItemCollect - -> "itemsound" AudioSource
@enduml

PlantUML version 1.2020.02(Sun Mar 01 10:22:07 GMT 2020)
(GPL source distribution)
Java Runtime: OpenJDK Runtime Environment
JVM: OpenJDK 64-Bit Server VM
Java Version: 11.0.9+11-Ubuntu-0ubuntu1
Operating System: Linux
Default Encoding: ANSI_X3.4-1968
Language: en
Country: US
--></g></svg>