<?xml version="1.0" encoding="UTF-8" standalone="no"?><svg xmlns="http://www.w3.org/2000/svg" xmlns:xlink="http://www.w3.org/1999/xlink" contentScriptType="application/ecmascript" contentStyleType="text/css" height="334px" preserveAspectRatio="none" style="width:173px;height:334px;" version="1.1" viewBox="0 0 173 334" width="173px" zoomAndPan="magnify"><defs><filter height="300%" id="f1ij05hvm2ft9i" width="300%" x="-1" y="-1"><feGaussianBlur result="blurOut" stdDeviation="2.0"/><feColorMatrix in="blurOut" result="blurOut2" type="matrix" values="0 0 0 0 0 0 0 0 0 0 0 0 0 0 0 0 0 0 .4 0"/><feOffset dx="4.0" dy="4.0" in="blurOut2" result="blurOut3"/><feBlend in="SourceGraphic" in2="blurOut3" mode="normal"/></filter></defs><g><!--MD5=[55d3d70733958713714fb0de8a791436]
class PlayerName--><rect fill="#FEFECE" filter="url(#f1ij05hvm2ft9i)" height="99.2188" id="PlayerName" style="stroke: #A80036; stroke-width: 1.5;" width="156" x="6" y="116"/><ellipse cx="43.5" cy="132" fill="#ADD1B2" rx="11" ry="11" style="stroke: #A80036; stroke-width: 1.0;"/><path d="M46.4688,137.6406 Q45.8906,137.9375 45.25,138.0781 Q44.6094,138.2344 43.9063,138.2344 Q41.4063,138.2344 40.0781,136.5938 Q38.7656,134.9375 38.7656,131.8125 Q38.7656,128.6875 40.0781,127.0313 Q41.4063,125.375 43.9063,125.375 Q44.6094,125.375 45.25,125.5313 Q45.9063,125.6875 46.4688,125.9844 L46.4688,128.7031 Q45.8438,128.125 45.25,127.8594 Q44.6563,127.5781 44.0313,127.5781 Q42.6875,127.5781 42,128.6563 Q41.3125,129.7188 41.3125,131.8125 Q41.3125,133.9063 42,134.9844 Q42.6875,136.0469 44.0313,136.0469 Q44.6563,136.0469 45.25,135.7813 Q45.8438,135.5 46.4688,134.9219 L46.4688,137.6406 Z "/><text fill="#000000" font-family="sans-serif" font-size="12" lengthAdjust="spacingAndGlyphs" textLength="74" x="62.5" y="136.1543">PlayerName</text><line style="stroke: #A80036; stroke-width: 1.5;" x1="7" x2="161" y1="148" y2="148"/><line style="stroke: #A80036; stroke-width: 1.5;" x1="7" x2="161" y1="156" y2="156"/><text fill="#000000" font-family="sans-serif" font-size="11" lengthAdjust="spacingAndGlyphs" textLength="71" x="26" y="170.2104">Start() : void</text><text fill="#000000" font-family="sans-serif" font-size="11" lengthAdjust="spacingAndGlyphs" textLength="83" x="26" y="183.0151">Update() : void</text><ellipse cx="17" cy="192.6094" fill="#84BE84" rx="3" ry="3" style="stroke: #038048; stroke-width: 1.0;"/><text fill="#000000" font-family="sans-serif" font-size="11" lengthAdjust="spacingAndGlyphs" textLength="130" x="26" y="195.8198">setNameLevel1() : void</text><ellipse cx="17" cy="205.4141" fill="#84BE84" rx="3" ry="3" style="stroke: #038048; stroke-width: 1.0;"/><text fill="#000000" font-family="sans-serif" font-size="11" lengthAdjust="spacingAndGlyphs" textLength="130" x="26" y="208.6245">setNameLevel2() : void</text><!--MD5=[83b3cf3d23d77c6f1e1b5291a241bc2a]
class MonoBehaviour--><rect fill="#FEFECE" filter="url(#f1ij05hvm2ft9i)" height="48" id="MonoBehaviour" style="stroke: #A80036; stroke-width: 1.5;" width="128" x="20" y="8"/><ellipse cx="35" cy="24" fill="#ADD1B2" rx="11" ry="11" style="stroke: #A80036; stroke-width: 1.0;"/><path d="M37.9688,29.6406 Q37.3906,29.9375 36.75,30.0781 Q36.1094,30.2344 35.4063,30.2344 Q32.9063,30.2344 31.5781,28.5938 Q30.2656,26.9375 30.2656,23.8125 Q30.2656,20.6875 31.5781,19.0313 Q32.9063,17.375 35.4063,17.375 Q36.1094,17.375 36.75,17.5313 Q37.4063,17.6875 37.9688,17.9844 L37.9688,20.7031 Q37.3438,20.125 36.75,19.8594 Q36.1563,19.5781 35.5313,19.5781 Q34.1875,19.5781 33.5,20.6563 Q32.8125,21.7188 32.8125,23.8125 Q32.8125,25.9063 33.5,26.9844 Q34.1875,28.0469 35.5313,28.0469 Q36.1563,28.0469 36.75,27.7813 Q37.3438,27.5 37.9688,26.9219 L37.9688,29.6406 Z "/><text fill="#000000" font-family="sans-serif" font-size="12" lengthAdjust="spacingAndGlyphs" textLength="96" x="49" y="28.1543">MonoBehaviour</text><line style="stroke: #A80036; stroke-width: 1.5;" x1="21" x2="147" y1="40" y2="40"/><line style="stroke: #A80036; stroke-width: 1.5;" x1="21" x2="147" y1="48" y2="48"/><!--MD5=[db453f91a253a2358c4d376fa3bf4942]
class InputField--><rect fill="#FEFECE" filter="url(#f1ij05hvm2ft9i)" height="48" id="InputField" style="stroke: #A80036; stroke-width: 1.5;" width="93" x="37.5" y="275"/><ellipse cx="52.5" cy="291" fill="#ADD1B2" rx="11" ry="11" style="stroke: #A80036; stroke-width: 1.0;"/><path d="M55.4688,296.6406 Q54.8906,296.9375 54.25,297.0781 Q53.6094,297.2344 52.9063,297.2344 Q50.4063,297.2344 49.0781,295.5938 Q47.7656,293.9375 47.7656,290.8125 Q47.7656,287.6875 49.0781,286.0313 Q50.4063,284.375 52.9063,284.375 Q53.6094,284.375 54.25,284.5313 Q54.9063,284.6875 55.4688,284.9844 L55.4688,287.7031 Q54.8438,287.125 54.25,286.8594 Q53.6563,286.5781 53.0313,286.5781 Q51.6875,286.5781 51,287.6563 Q50.3125,288.7188 50.3125,290.8125 Q50.3125,292.9063 51,293.9844 Q51.6875,295.0469 53.0313,295.0469 Q53.6563,295.0469 54.25,294.7813 Q54.8438,294.5 55.4688,293.9219 L55.4688,296.6406 Z "/><text fill="#000000" font-family="sans-serif" font-size="12" lengthAdjust="spacingAndGlyphs" textLength="61" x="66.5" y="295.1543">InputField</text><line style="stroke: #A80036; stroke-width: 1.5;" x1="38.5" x2="129.5" y1="307" y2="307"/><line style="stroke: #A80036; stroke-width: 1.5;" x1="38.5" x2="129.5" y1="315" y2="315"/><!--MD5=[6e00ecd1b7bb6852978bd0a4ebceaf39]
reverse link MonoBehaviour to PlayerName--><path d="M84,76.51 C84,89.14 84,103.01 84,115.93 " fill="none" id="MonoBehaviour&lt;-PlayerName" style="stroke: #A80036; stroke-width: 1.0;"/><polygon fill="none" points="77,76.21,84,56.21,91,76.21,77,76.21" style="stroke: #A80036; stroke-width: 1.0;"/><!--MD5=[cd2c6ee8a51265ab965ca125f0e4ed49]
link PlayerName to InputField--><path d="M84,215.09 C84,233.5 84,253.83 84,269.75 " fill="none" id="PlayerName-&gt;InputField" style="stroke: #A80036; stroke-width: 1.0;"/><polygon fill="#A80036" points="84,274.98,88,265.98,84,269.98,80,265.98,84,274.98" style="stroke: #A80036; stroke-width: 1.0;"/><text fill="#000000" font-family="sans-serif" font-size="13" lengthAdjust="spacingAndGlyphs" textLength="32" x="47.9" y="263.9869">input</text><!--MD5=[f2f13682a2d2a1f6f514ca6bbaa2e45f]
@startuml
class PlayerName {
    Start() : void
    Update() : void
    + setNameLevel1() : void
    + setNameLevel2() : void
}
MonoBehaviour <|- - PlayerName
PlayerName - -> "input" InputField
@enduml

PlantUML version 1.2020.02(Sun Mar 01 10:22:07 GMT 2020)
(GPL source distribution)
Java Runtime: OpenJDK Runtime Environment
JVM: OpenJDK 64-Bit Server VM
Java Version: 11.0.9+11-Ubuntu-0ubuntu1
Operating System: Linux
Default Encoding: ANSI_X3.4-1968
Language: en
Country: US
--></g></svg>