<?xml version="1.0" encoding="UTF-8" standalone="no"?><svg xmlns="http://www.w3.org/2000/svg" xmlns:xlink="http://www.w3.org/1999/xlink" contentScriptType="application/ecmascript" contentStyleType="text/css" height="603px" preserveAspectRatio="none" style="width:569px;height:603px;" version="1.1" viewBox="0 0 569 603" width="569px" zoomAndPan="magnify"><defs><filter height="300%" id="f7cf1mwfau00v" width="300%" x="-1" y="-1"><feGaussianBlur result="blurOut" stdDeviation="2.0"/><feColorMatrix in="blurOut" result="blurOut2" type="matrix" values="0 0 0 0 0 0 0 0 0 0 0 0 0 0 0 0 0 0 .4 0"/><feOffset dx="4.0" dy="4.0" in="blurOut2" result="blurOut3"/><feBlend in="SourceGraphic" in2="blurOut3" mode="normal"/></filter></defs><g><!--MD5=[ca58ab8c00336ea3fb197d9b30222a24]
class PlayfabManager--><rect fill="#FEFECE" filter="url(#f7cf1mwfau00v)" height="368.1172" id="PlayfabManager" style="stroke: #A80036; stroke-width: 1.5;" width="552" x="6" y="116"/><ellipse cx="227.75" cy="132" fill="#ADD1B2" rx="11" ry="11" style="stroke: #A80036; stroke-width: 1.0;"/><path d="M230.7188,137.6406 Q230.1406,137.9375 229.5,138.0781 Q228.8594,138.2344 228.1563,138.2344 Q225.6563,138.2344 224.3281,136.5938 Q223.0156,134.9375 223.0156,131.8125 Q223.0156,128.6875 224.3281,127.0313 Q225.6563,125.375 228.1563,125.375 Q228.8594,125.375 229.5,125.5313 Q230.1563,125.6875 230.7188,125.9844 L230.7188,128.7031 Q230.0938,128.125 229.5,127.8594 Q228.9063,127.5781 228.2813,127.5781 Q226.9375,127.5781 226.25,128.6563 Q225.5625,129.7188 225.5625,131.8125 Q225.5625,133.9063 226.25,134.9844 Q226.9375,136.0469 228.2813,136.0469 Q228.9063,136.0469 229.5,135.7813 Q230.0938,135.5 230.7188,134.9219 L230.7188,137.6406 Z "/><text fill="#000000" font-family="sans-serif" font-size="12" lengthAdjust="spacingAndGlyphs" textLength="100" x="248.25" y="136.1543">PlayfabManager</text><line style="stroke: #A80036; stroke-width: 1.5;" x1="7" x2="557" y1="148" y2="148"/><text fill="#000000" font-family="sans-serif" font-size="11" lengthAdjust="spacingAndGlyphs" textLength="144" x="12" y="162.2104">loggedInPlayfabId : string</text><line style="stroke: #A80036; stroke-width: 1.5;" x1="7" x2="557" y1="168.8047" y2="168.8047"/><text fill="#000000" font-family="sans-serif" font-size="11" lengthAdjust="spacingAndGlyphs" textLength="79" x="26" y="183.0151">Awake() : void</text><text fill="#000000" font-family="sans-serif" font-size="11" lengthAdjust="spacingAndGlyphs" textLength="73" x="26" y="195.8198">Login() : void</text><text fill="#000000" font-family="sans-serif" font-size="11" lengthAdjust="spacingAndGlyphs" textLength="239" x="26" y="208.6245">OnLoginSuccess(result:LoginResult) : void</text><ellipse cx="17" cy="218.2188" fill="#84BE84" rx="3" ry="3" style="stroke: #038048; stroke-width: 1.0;"/><text fill="#000000" font-family="sans-serif" font-size="11" lengthAdjust="spacingAndGlyphs" textLength="220" x="26" y="221.4292">UpdatePlayerName(name:string) : void</text><text fill="#000000" font-family="sans-serif" font-size="11" lengthAdjust="spacingAndGlyphs" textLength="452" x="26" y="234.2339">OnUpdatePlayerNameSuccess(result:UpdateUserTitleDisplayNameResult) : void</text><ellipse cx="17" cy="243.8281" fill="#84BE84" rx="3" ry="3" style="stroke: #038048; stroke-width: 1.0;"/><text fill="#000000" font-family="sans-serif" font-size="11" lengthAdjust="spacingAndGlyphs" textLength="224" x="26" y="247.0386">uploadLevel1Score(score:double) : void</text><ellipse cx="17" cy="256.6328" fill="#84BE84" rx="3" ry="3" style="stroke: #038048; stroke-width: 1.0;"/><text fill="#000000" font-family="sans-serif" font-size="11" lengthAdjust="spacingAndGlyphs" textLength="224" x="26" y="259.8433">uploadLevel2Score(score:double) : void</text><ellipse cx="17" cy="269.4375" fill="#84BE84" rx="3" ry="3" style="stroke: #038048; stroke-width: 1.0;"/><text fill="#000000" font-family="sans-serif" font-size="11" lengthAdjust="spacingAndGlyphs" textLength="172" x="26" y="272.6479">GetLevel1LeaderBoard() : void</text><ellipse cx="17" cy="282.2422" fill="#84BE84" rx="3" ry="3" style="stroke: #038048; stroke-width: 1.0;"/><text fill="#000000" font-family="sans-serif" font-size="11" lengthAdjust="spacingAndGlyphs" textLength="172" x="26" y="285.4526">GetLevel2LeaderBoard() : void</text><text fill="#000000" font-family="sans-serif" font-size="11" lengthAdjust="spacingAndGlyphs" textLength="400" x="26" y="298.2573">OnGetLevel1LeaderBoardSuccess(result:GetLeaderboardResult) : void</text><text fill="#000000" font-family="sans-serif" font-size="11" lengthAdjust="spacingAndGlyphs" textLength="400" x="26" y="311.062">OnGetLevel2LeaderBoardSuccess(result:GetLeaderboardResult) : void</text><ellipse cx="17" cy="320.6563" fill="#84BE84" rx="3" ry="3" style="stroke: #038048; stroke-width: 1.0;"/><text fill="#000000" font-family="sans-serif" font-size="11" lengthAdjust="spacingAndGlyphs" textLength="172" x="26" y="323.8667">SavePlayerLevelStatus() : void</text><ellipse cx="17" cy="333.4609" fill="#84BE84" rx="3" ry="3" style="stroke: #038048; stroke-width: 1.0;"/><text fill="#000000" font-family="sans-serif" font-size="11" lengthAdjust="spacingAndGlyphs" textLength="164" x="26" y="336.6714">GetPlayerLevelStatus() : void</text><text fill="#000000" font-family="sans-serif" font-size="11" lengthAdjust="spacingAndGlyphs" textLength="380" x="26" y="349.4761">OnLoadPlayerLevelStatusSuccess(result:GetUserDataResult) : void</text><ellipse cx="17" cy="359.0703" fill="#84BE84" rx="3" ry="3" style="stroke: #038048; stroke-width: 1.0;"/><text fill="#000000" font-family="sans-serif" font-size="11" lengthAdjust="spacingAndGlyphs" textLength="202" x="26" y="362.2808">specificUserOnLeaderBoard() : void</text><text fill="#000000" font-family="sans-serif" font-size="11" lengthAdjust="spacingAndGlyphs" textLength="526" x="26" y="375.0854">OnGetSpecificUserOnLeaderBoardSuccess(result:GetLeaderboardAroundPlayerResult) : void</text><text fill="#000000" font-family="sans-serif" font-size="11" lengthAdjust="spacingAndGlyphs" textLength="209" x="26" y="387.8901">OnSuccess(result:LoginResult) : void</text><text fill="#000000" font-family="sans-serif" font-size="11" lengthAdjust="spacingAndGlyphs" textLength="193" x="26" y="400.6948">OnError(error:PlayFabError) : void</text><text fill="#000000" font-family="sans-serif" font-size="11" lengthAdjust="spacingAndGlyphs" textLength="380" x="26" y="413.4995">OnUpdateScoreSuccess(result:UpdatePlayerStatisticsResult) : void</text><text fill="#000000" font-family="sans-serif" font-size="11" lengthAdjust="spacingAndGlyphs" textLength="266" x="26" y="426.3042">OnUpdateScoreError(error:PlayFabError) : void</text><text fill="#000000" font-family="sans-serif" font-size="11" lengthAdjust="spacingAndGlyphs" textLength="286" x="26" y="439.1089">OnGetLeaderBoardError(error:PlayFabError) : void</text><text fill="#000000" font-family="sans-serif" font-size="11" lengthAdjust="spacingAndGlyphs" textLength="401" x="26" y="451.9136">OnSavePlayerLevelStatusSuccess(result:UpdateUserDataResult) : void</text><text fill="#000000" font-family="sans-serif" font-size="11" lengthAdjust="spacingAndGlyphs" textLength="322" x="26" y="464.7183">OnSavePlayerLevelStatusError(error:PlayFabError) : void</text><text fill="#000000" font-family="sans-serif" font-size="11" lengthAdjust="spacingAndGlyphs" textLength="321" x="26" y="477.5229">OnLoadPlayerLevelStatusError(error:PlayFabError) : void</text><!--MD5=[83b3cf3d23d77c6f1e1b5291a241bc2a]
class MonoBehaviour--><rect fill="#FEFECE" filter="url(#f7cf1mwfau00v)" height="48" id="MonoBehaviour" style="stroke: #A80036; stroke-width: 1.5;" width="128" x="218" y="8"/><ellipse cx="233" cy="24" fill="#ADD1B2" rx="11" ry="11" style="stroke: #A80036; stroke-width: 1.0;"/><path d="M235.9688,29.6406 Q235.3906,29.9375 234.75,30.0781 Q234.1094,30.2344 233.4063,30.2344 Q230.9063,30.2344 229.5781,28.5938 Q228.2656,26.9375 228.2656,23.8125 Q228.2656,20.6875 229.5781,19.0313 Q230.9063,17.375 233.4063,17.375 Q234.1094,17.375 234.75,17.5313 Q235.4063,17.6875 235.9688,17.9844 L235.9688,20.7031 Q235.3438,20.125 234.75,19.8594 Q234.1563,19.5781 233.5313,19.5781 Q232.1875,19.5781 231.5,20.6563 Q230.8125,21.7188 230.8125,23.8125 Q230.8125,25.9063 231.5,26.9844 Q232.1875,28.0469 233.5313,28.0469 Q234.1563,28.0469 234.75,27.7813 Q235.3438,27.5 235.9688,26.9219 L235.9688,29.6406 Z "/><text fill="#000000" font-family="sans-serif" font-size="12" lengthAdjust="spacingAndGlyphs" textLength="96" x="247" y="28.1543">MonoBehaviour</text><line style="stroke: #A80036; stroke-width: 1.5;" x1="219" x2="345" y1="40" y2="40"/><line style="stroke: #A80036; stroke-width: 1.5;" x1="219" x2="345" y1="48" y2="48"/><!--MD5=[064f7a74fee85463ec1a30143664ee17]
class GameObject--><rect fill="#FEFECE" filter="url(#f7cf1mwfau00v)" height="48" id="GameObject" style="stroke: #A80036; stroke-width: 1.5;" width="108" x="91" y="544"/><ellipse cx="106" cy="560" fill="#ADD1B2" rx="11" ry="11" style="stroke: #A80036; stroke-width: 1.0;"/><path d="M108.9688,565.6406 Q108.3906,565.9375 107.75,566.0781 Q107.1094,566.2344 106.4063,566.2344 Q103.9063,566.2344 102.5781,564.5938 Q101.2656,562.9375 101.2656,559.8125 Q101.2656,556.6875 102.5781,555.0313 Q103.9063,553.375 106.4063,553.375 Q107.1094,553.375 107.75,553.5313 Q108.4063,553.6875 108.9688,553.9844 L108.9688,556.7031 Q108.3438,556.125 107.75,555.8594 Q107.1563,555.5781 106.5313,555.5781 Q105.1875,555.5781 104.5,556.6563 Q103.8125,557.7188 103.8125,559.8125 Q103.8125,561.9063 104.5,562.9844 Q105.1875,564.0469 106.5313,564.0469 Q107.1563,564.0469 107.75,563.7813 Q108.3438,563.5 108.9688,562.9219 L108.9688,565.6406 Z "/><text fill="#000000" font-family="sans-serif" font-size="12" lengthAdjust="spacingAndGlyphs" textLength="76" x="120" y="564.1543">GameObject</text><line style="stroke: #A80036; stroke-width: 1.5;" x1="92" x2="198" y1="576" y2="576"/><line style="stroke: #A80036; stroke-width: 1.5;" x1="92" x2="198" y1="584" y2="584"/><!--MD5=[004b1d6c4ca8aad4ba8b586a335ed4f3]
class Transform--><rect fill="#FEFECE" filter="url(#f7cf1mwfau00v)" height="48" id="Transform" style="stroke: #A80036; stroke-width: 1.5;" width="95" x="234.5" y="544"/><ellipse cx="249.5" cy="560" fill="#ADD1B2" rx="11" ry="11" style="stroke: #A80036; stroke-width: 1.0;"/><path d="M252.4688,565.6406 Q251.8906,565.9375 251.25,566.0781 Q250.6094,566.2344 249.9063,566.2344 Q247.4063,566.2344 246.0781,564.5938 Q244.7656,562.9375 244.7656,559.8125 Q244.7656,556.6875 246.0781,555.0313 Q247.4063,553.375 249.9063,553.375 Q250.6094,553.375 251.25,553.5313 Q251.9063,553.6875 252.4688,553.9844 L252.4688,556.7031 Q251.8438,556.125 251.25,555.8594 Q250.6563,555.5781 250.0313,555.5781 Q248.6875,555.5781 248,556.6563 Q247.3125,557.7188 247.3125,559.8125 Q247.3125,561.9063 248,562.9844 Q248.6875,564.0469 250.0313,564.0469 Q250.6563,564.0469 251.25,563.7813 Q251.8438,563.5 252.4688,562.9219 L252.4688,565.6406 Z "/><text fill="#000000" font-family="sans-serif" font-size="12" lengthAdjust="spacingAndGlyphs" textLength="63" x="263.5" y="564.1543">Transform</text><line style="stroke: #A80036; stroke-width: 1.5;" x1="235.5" x2="328.5" y1="576" y2="576"/><line style="stroke: #A80036; stroke-width: 1.5;" x1="235.5" x2="328.5" y1="584" y2="584"/><!--MD5=[02a8746eb15ecbb4566dafa16ea4db73]
class Text--><rect fill="#FEFECE" filter="url(#f7cf1mwfau00v)" height="48" id="Text" style="stroke: #A80036; stroke-width: 1.5;" width="58" x="365" y="544"/><ellipse cx="380" cy="560" fill="#ADD1B2" rx="11" ry="11" style="stroke: #A80036; stroke-width: 1.0;"/><path d="M382.9688,565.6406 Q382.3906,565.9375 381.75,566.0781 Q381.1094,566.2344 380.4063,566.2344 Q377.9063,566.2344 376.5781,564.5938 Q375.2656,562.9375 375.2656,559.8125 Q375.2656,556.6875 376.5781,555.0313 Q377.9063,553.375 380.4063,553.375 Q381.1094,553.375 381.75,553.5313 Q382.4063,553.6875 382.9688,553.9844 L382.9688,556.7031 Q382.3438,556.125 381.75,555.8594 Q381.1563,555.5781 380.5313,555.5781 Q379.1875,555.5781 378.5,556.6563 Q377.8125,557.7188 377.8125,559.8125 Q377.8125,561.9063 378.5,562.9844 Q379.1875,564.0469 380.5313,564.0469 Q381.1563,564.0469 381.75,563.7813 Q382.3438,563.5 382.9688,562.9219 L382.9688,565.6406 Z "/><text fill="#000000" font-family="sans-serif" font-size="12" lengthAdjust="spacingAndGlyphs" textLength="26" x="394" y="564.1543">Text</text><line style="stroke: #A80036; stroke-width: 1.5;" x1="366" x2="422" y1="576" y2="576"/><line style="stroke: #A80036; stroke-width: 1.5;" x1="366" x2="422" y1="584" y2="584"/><!--MD5=[0e1bd1d0dde2ede63c3e7fdc0cfe38ea]
reverse link MonoBehaviour to PlayfabManager--><path d="M282,76.35 C282,88.1 282,101.58 282,115.99 " fill="none" id="MonoBehaviour&lt;-PlayfabManager" style="stroke: #A80036; stroke-width: 1.0;"/><polygon fill="none" points="275,76.14,282,56.14,289,76.14,275,76.14" style="stroke: #A80036; stroke-width: 1.0;"/><!--MD5=[0f7be8c914804de5e43d4e553c95a7a5]
link PlayfabManager to GameObject--><path d="M187.6,484.29 C176.69,505.48 166.8,524.66 159.31,539.21 " fill="none" id="PlayfabManager-&gt;GameObject" style="stroke: #A80036; stroke-width: 1.0;"/><polygon fill="#A80036" points="156.86,543.96,164.5342,537.7869,159.1474,539.5139,157.4204,534.1271,156.86,543.96" style="stroke: #A80036; stroke-width: 1.0;"/><text fill="#000000" font-family="sans-serif" font-size="13" lengthAdjust="spacingAndGlyphs" textLength="25" x="131.696" y="532.9618">Row</text><!--MD5=[d5afd5fe01546f6a0d4817612c2b0acc]
link PlayfabManager to Transform--><path d="M270.1,484.29 C270.84,505.29 272.07,524.33 273.78,538.83 " fill="none" id="PlayfabManager-&gt;Transform" style="stroke: #A80036; stroke-width: 1.0;"/><polygon fill="#A80036" points="274.43,543.96,277.2393,534.5203,273.787,539.0015,269.3058,535.5492,274.43,543.96" style="stroke: #A80036; stroke-width: 1.0;"/><text fill="#000000" font-family="sans-serif" font-size="13" lengthAdjust="spacingAndGlyphs" textLength="104" x="190.2094" y="532.9">level1RowParent</text><!--MD5=[d5afd5fe01546f6a0d4817612c2b0acc]
link PlayfabManager to Transform--><path d="M294.6,484.29 C293.82,505.29 292.52,524.33 290.7,538.83 " fill="none" id="PlayfabManager-&gt;Transform-1" style="stroke: #A80036; stroke-width: 1.0;"/><polygon fill="#A80036" points="290.01,543.96,295.1612,535.5657,290.6689,539.0036,287.231,534.5113,290.01,543.96" style="stroke: #A80036; stroke-width: 1.0;"/><text fill="#000000" font-family="sans-serif" font-size="13" lengthAdjust="spacingAndGlyphs" textLength="104" x="305.3304" y="532.9">level2RowParent</text><!--MD5=[de6d65752d757b857d706a66b8651e3c]
link PlayfabManager to Text--><path d="M359.18,484.29 C368.1,505.48 376.17,524.66 382.3,539.21 " fill="none" id="PlayfabManager-&gt;Text" style="stroke: #A80036; stroke-width: 1.0;"/><polygon fill="#A80036" points="384.3,543.96,384.4831,534.1128,382.3546,539.354,377.1135,537.2255,384.3,543.96" style="stroke: #A80036; stroke-width: 1.0;"/><text fill="#000000" font-family="sans-serif" font-size="13" lengthAdjust="spacingAndGlyphs" textLength="51" x="388.3488" y="532.9618">endText</text><!--MD5=[5f630b0ee795d4c99d576f26b5e22647]
@startuml
class PlayfabManager {
    loggedInPlayfabId : string
    Awake() : void
    Login() : void
    OnLoginSuccess(result:LoginResult) : void
    + UpdatePlayerName(name:string) : void
    OnUpdatePlayerNameSuccess(result:UpdateUserTitleDisplayNameResult) : void
    + uploadLevel1Score(score:double) : void
    + uploadLevel2Score(score:double) : void
    + GetLevel1LeaderBoard() : void
    + GetLevel2LeaderBoard() : void
    OnGetLevel1LeaderBoardSuccess(result:GetLeaderboardResult) : void
    OnGetLevel2LeaderBoardSuccess(result:GetLeaderboardResult) : void
    + SavePlayerLevelStatus() : void
    + GetPlayerLevelStatus() : void
    OnLoadPlayerLevelStatusSuccess(result:GetUserDataResult) : void
    + specificUserOnLeaderBoard() : void
    OnGetSpecificUserOnLeaderBoardSuccess(result:GetLeaderboardAroundPlayerResult) : void
    OnSuccess(result:LoginResult) : void
    OnError(error:PlayFabError) : void
    OnUpdateScoreSuccess(result:UpdatePlayerStatisticsResult) : void
    OnUpdateScoreError(error:PlayFabError) : void
    OnGetLeaderBoardError(error:PlayFabError) : void
    OnSavePlayerLevelStatusSuccess(result:UpdateUserDataResult) : void
    OnSavePlayerLevelStatusError(error:PlayFabError) : void
    OnLoadPlayerLevelStatusError(error:PlayFabError) : void
}
MonoBehaviour <|- - PlayfabManager
PlayfabManager - -> "Row" GameObject
PlayfabManager - -> "level1RowParent" Transform
PlayfabManager - -> "level2RowParent" Transform
PlayfabManager - -> "endText" Text
@enduml

PlantUML version 1.2020.02(Sun Mar 01 10:22:07 GMT 2020)
(GPL source distribution)
Java Runtime: OpenJDK Runtime Environment
JVM: OpenJDK 64-Bit Server VM
Java Version: 11.0.9+11-Ubuntu-0ubuntu1
Operating System: Linux
Default Encoding: ANSI_X3.4-1968
Language: en
Country: US
--></g></svg>