<?xml version="1.0" encoding="UTF-8" standalone="no"?><svg xmlns="http://www.w3.org/2000/svg" xmlns:xlink="http://www.w3.org/1999/xlink" contentScriptType="application/ecmascript" contentStyleType="text/css" height="367px" preserveAspectRatio="none" style="width:340px;height:367px;" version="1.1" viewBox="0 0 340 367" width="340px" zoomAndPan="magnify"><defs><filter height="300%" id="f1s19laf8w07pw" width="300%" x="-1" y="-1"><feGaussianBlur result="blurOut" stdDeviation="2.0"/><feColorMatrix in="blurOut" result="blurOut2" type="matrix" values="0 0 0 0 0 0 0 0 0 0 0 0 0 0 0 0 0 0 .4 0"/><feOffset dx="4.0" dy="4.0" in="blurOut2" result="blurOut3"/><feBlend in="SourceGraphic" in2="blurOut3" mode="normal"/></filter></defs><g><!--MD5=[2f4e497837a991172d40b04b7a7d0ca2]
class Singleton--><rect fill="#FEFECE" filter="url(#f1s19laf8w07pw)" height="240.0703" id="Singleton" style="stroke: #A80036; stroke-width: 1.5;" width="260" x="6" y="116"/><ellipse cx="102.25" cy="132" fill="#ADD1B2" rx="11" ry="11" style="stroke: #A80036; stroke-width: 1.0;"/><path d="M105.2188,137.6406 Q104.6406,137.9375 104,138.0781 Q103.3594,138.2344 102.6563,138.2344 Q100.1563,138.2344 98.8281,136.5938 Q97.5156,134.9375 97.5156,131.8125 Q97.5156,128.6875 98.8281,127.0313 Q100.1563,125.375 102.6563,125.375 Q103.3594,125.375 104,125.5313 Q104.6563,125.6875 105.2188,125.9844 L105.2188,128.7031 Q104.5938,128.125 104,127.8594 Q103.4063,127.5781 102.7813,127.5781 Q101.4375,127.5781 100.75,128.6563 Q100.0625,129.7188 100.0625,131.8125 Q100.0625,133.9063 100.75,134.9844 Q101.4375,136.0469 102.7813,136.0469 Q103.4063,136.0469 104,135.7813 Q104.5938,135.5 105.2188,134.9219 L105.2188,137.6406 Z "/><text fill="#000000" font-family="sans-serif" font-size="12" lengthAdjust="spacingAndGlyphs" textLength="59" x="122.75" y="136.1543">Singleton</text><line style="stroke: #A80036; stroke-width: 1.5;" x1="7" x2="265" y1="148" y2="148"/><ellipse cx="17" cy="159" fill="none" rx="3" ry="3" style="stroke: #038048; stroke-width: 1.0;"/><text fill="#000000" font-family="sans-serif" font-size="11" lengthAdjust="spacingAndGlyphs" textLength="124" x="26" y="162.2104">isFinish : bool = false</text><ellipse cx="17" cy="171.8047" fill="none" rx="3" ry="3" style="stroke: #038048; stroke-width: 1.0;"/><text fill="#000000" font-family="sans-serif" font-size="11" lengthAdjust="spacingAndGlyphs" textLength="110" x="26" y="175.0151">trace : bool = false</text><ellipse cx="17" cy="184.6094" fill="none" rx="3" ry="3" style="stroke: #038048; stroke-width: 1.0;"/><text fill="#000000" font-family="sans-serif" font-size="11" lengthAdjust="spacingAndGlyphs" textLength="151" x="26" y="187.8198">level1Status : bool = false</text><ellipse cx="17" cy="197.4141" fill="none" rx="3" ry="3" style="stroke: #038048; stroke-width: 1.0;"/><text fill="#000000" font-family="sans-serif" font-size="11" lengthAdjust="spacingAndGlyphs" textLength="151" x="26" y="200.6245">level2Status : bool = false</text><ellipse cx="17" cy="210.2188" fill="none" rx="3" ry="3" style="stroke: #038048; stroke-width: 1.0;"/><text fill="#000000" font-family="sans-serif" font-size="11" lengthAdjust="spacingAndGlyphs" textLength="150" x="26" y="213.4292">playerName : string = null</text><line style="stroke: #A80036; stroke-width: 1.5;" x1="7" x2="265" y1="220.0234" y2="220.0234"/><ellipse cx="17" cy="231.0234" fill="#84BE84" rx="3" ry="3" style="stroke: #038048; stroke-width: 1.0;"/><text fill="#000000" font-family="sans-serif" font-size="11" lengthAdjust="spacingAndGlyphs" textLength="105" x="26" y="234.2339">getIsFinish() : bool</text><ellipse cx="17" cy="243.8281" fill="#84BE84" rx="3" ry="3" style="stroke: #038048; stroke-width: 1.0;"/><text fill="#000000" font-family="sans-serif" font-size="11" lengthAdjust="spacingAndGlyphs" textLength="175" x="26" y="247.0386">setIsFinish(isFinish:bool) : void</text><ellipse cx="17" cy="256.6328" fill="#84BE84" rx="3" ry="3" style="stroke: #038048; stroke-width: 1.0;"/><text fill="#000000" font-family="sans-serif" font-size="11" lengthAdjust="spacingAndGlyphs" textLength="94" x="26" y="259.8433">getTrace() : bool</text><ellipse cx="17" cy="269.4375" fill="#84BE84" rx="3" ry="3" style="stroke: #038048; stroke-width: 1.0;"/><text fill="#000000" font-family="sans-serif" font-size="11" lengthAdjust="spacingAndGlyphs" textLength="150" x="26" y="272.6479">setTrace(trace:bool) : void</text><ellipse cx="17" cy="282.2422" fill="#84BE84" rx="3" ry="3" style="stroke: #038048; stroke-width: 1.0;"/><text fill="#000000" font-family="sans-serif" font-size="11" lengthAdjust="spacingAndGlyphs" textLength="135" x="26" y="285.4526">getLevel1Status() : bool</text><ellipse cx="17" cy="295.0469" fill="#84BE84" rx="3" ry="3" style="stroke: #038048; stroke-width: 1.0;"/><text fill="#000000" font-family="sans-serif" font-size="11" lengthAdjust="spacingAndGlyphs" textLength="232" x="26" y="298.2573">setLevel1Status(level1Status:bool) : void</text><ellipse cx="17" cy="307.8516" fill="#84BE84" rx="3" ry="3" style="stroke: #038048; stroke-width: 1.0;"/><text fill="#000000" font-family="sans-serif" font-size="11" lengthAdjust="spacingAndGlyphs" textLength="135" x="26" y="311.062">getLevel2Status() : bool</text><ellipse cx="17" cy="320.6563" fill="#84BE84" rx="3" ry="3" style="stroke: #038048; stroke-width: 1.0;"/><text fill="#000000" font-family="sans-serif" font-size="11" lengthAdjust="spacingAndGlyphs" textLength="232" x="26" y="323.8667">setLevel2Status(level2Status:bool) : void</text><ellipse cx="17" cy="333.4609" fill="#84BE84" rx="3" ry="3" style="stroke: #038048; stroke-width: 1.0;"/><text fill="#000000" font-family="sans-serif" font-size="11" lengthAdjust="spacingAndGlyphs" textLength="139" x="26" y="336.6714">getPlayerName() : string</text><ellipse cx="17" cy="346.2656" fill="#84BE84" rx="3" ry="3" style="stroke: #038048; stroke-width: 1.0;"/><text fill="#000000" font-family="sans-serif" font-size="11" lengthAdjust="spacingAndGlyphs" textLength="234" x="26" y="349.4761">setPlayerName(playerName:string) : void</text><!--MD5=[83b3cf3d23d77c6f1e1b5291a241bc2a]
class MonoBehaviour--><rect fill="#FEFECE" filter="url(#f1s19laf8w07pw)" height="48" id="MonoBehaviour" style="stroke: #A80036; stroke-width: 1.5;" width="128" x="72" y="8"/><ellipse cx="87" cy="24" fill="#ADD1B2" rx="11" ry="11" style="stroke: #A80036; stroke-width: 1.0;"/><path d="M89.9688,29.6406 Q89.3906,29.9375 88.75,30.0781 Q88.1094,30.2344 87.4063,30.2344 Q84.9063,30.2344 83.5781,28.5938 Q82.2656,26.9375 82.2656,23.8125 Q82.2656,20.6875 83.5781,19.0313 Q84.9063,17.375 87.4063,17.375 Q88.1094,17.375 88.75,17.5313 Q89.4063,17.6875 89.9688,17.9844 L89.9688,20.7031 Q89.3438,20.125 88.75,19.8594 Q88.1563,19.5781 87.5313,19.5781 Q86.1875,19.5781 85.5,20.6563 Q84.8125,21.7188 84.8125,23.8125 Q84.8125,25.9063 85.5,26.9844 Q86.1875,28.0469 87.5313,28.0469 Q88.1563,28.0469 88.75,27.7813 Q89.3438,27.5 89.9688,26.9219 L89.9688,29.6406 Z "/><text fill="#000000" font-family="sans-serif" font-size="12" lengthAdjust="spacingAndGlyphs" textLength="96" x="101" y="28.1543">MonoBehaviour</text><line style="stroke: #A80036; stroke-width: 1.5;" x1="73" x2="199" y1="40" y2="40"/><line style="stroke: #A80036; stroke-width: 1.5;" x1="73" x2="199" y1="48" y2="48"/><!--MD5=[38bcfa198caf79c8f371ddea855d9e56]
reverse link MonoBehaviour to Singleton--><path d="M136,76.19 C136,88.09 136,101.61 136,115.62 " fill="none" id="MonoBehaviour&lt;-Singleton" style="stroke: #A80036; stroke-width: 1.0;"/><polygon fill="none" points="129,76.17,136,56.17,143,76.17,129,76.17" style="stroke: #A80036; stroke-width: 1.0;"/><!--MD5=[606bfff5e731bbe500a8872b8636183b]
link Singleton to Singleton--><path d="M266.04,200.78 C286.79,205.93 301,217.67 301,236 C301,252.75 289.13,264 271.24,269.75 " fill="none" id="Singleton-&gt;Singleton" style="stroke: #A80036; stroke-width: 1.0;"/><polygon fill="#A80036" points="266.04,271.22,275.7926,272.5936,270.8476,269.8464,273.5948,264.9014,266.04,271.22" style="stroke: #A80036; stroke-width: 1.0;"/><text fill="#000000" font-family="sans-serif" font-size="13" lengthAdjust="spacingAndGlyphs" textLength="54" x="274.1374" y="269.7178">Instance</text><!--MD5=[c84e9f9c535cf45de2c333cbc612cc26]
@startuml
class Singleton {
    + isFinish : bool = false
    + trace : bool = false
    + level1Status : bool = false
    + level2Status : bool = false
    + playerName : string = null
    + getIsFinish() : bool
    + setIsFinish(isFinish:bool) : void
    + getTrace() : bool
    + setTrace(trace:bool) : void
    + getLevel1Status() : bool
    + setLevel1Status(level1Status:bool) : void
    + getLevel2Status() : bool
    + setLevel2Status(level2Status:bool) : void
    + getPlayerName() : string
    + setPlayerName(playerName:string) : void
}
MonoBehaviour <|- - Singleton
Singleton - -> "Instance" Singleton
@enduml

PlantUML version 1.2020.02(Sun Mar 01 10:22:07 GMT 2020)
(GPL source distribution)
Java Runtime: OpenJDK Runtime Environment
JVM: OpenJDK 64-Bit Server VM
Java Version: 11.0.9+11-Ubuntu-0ubuntu1
Operating System: Linux
Default Encoding: ANSI_X3.4-1968
Language: en
Country: US
--></g></svg>