<?xml version="1.0" encoding="UTF-8" standalone="no"?><svg xmlns="http://www.w3.org/2000/svg" xmlns:xlink="http://www.w3.org/1999/xlink" contentScriptType="application/ecmascript" contentStyleType="text/css" height="360px" preserveAspectRatio="none" style="width:532px;height:360px;" version="1.1" viewBox="0 0 532 360" width="532px" zoomAndPan="magnify"><defs><filter height="300%" id="f9z1ekskny1z7" width="300%" x="-1" y="-1"><feGaussianBlur result="blurOut" stdDeviation="2.0"/><feColorMatrix in="blurOut" result="blurOut2" type="matrix" values="0 0 0 0 0 0 0 0 0 0 0 0 0 0 0 0 0 0 .4 0"/><feOffset dx="4.0" dy="4.0" in="blurOut2" result="blurOut3"/><feBlend in="SourceGraphic" in2="blurOut3" mode="normal"/></filter></defs><g><!--MD5=[1b844c90688aafb95cd8c95626c3b83a]
class Timer--><rect fill="#FEFECE" filter="url(#f9z1ekskny1z7)" height="124.8281" id="Timer" style="stroke: #A80036; stroke-width: 1.5;" width="184" x="140.43" y="116"/><ellipse cx="211.18" cy="132" fill="#ADD1B2" rx="11" ry="11" style="stroke: #A80036; stroke-width: 1.0;"/><path d="M214.1488,137.6406 Q213.5706,137.9375 212.93,138.0781 Q212.2894,138.2344 211.5863,138.2344 Q209.0863,138.2344 207.7581,136.5938 Q206.4456,134.9375 206.4456,131.8125 Q206.4456,128.6875 207.7581,127.0313 Q209.0863,125.375 211.5863,125.375 Q212.2894,125.375 212.93,125.5313 Q213.5863,125.6875 214.1488,125.9844 L214.1488,128.7031 Q213.5238,128.125 212.93,127.8594 Q212.3363,127.5781 211.7113,127.5781 Q210.3675,127.5781 209.68,128.6563 Q208.9925,129.7188 208.9925,131.8125 Q208.9925,133.9063 209.68,134.9844 Q210.3675,136.0469 211.7113,136.0469 Q212.3363,136.0469 212.93,135.7813 Q213.5238,135.5 214.1488,134.9219 L214.1488,137.6406 Z "/><text fill="#000000" font-family="sans-serif" font-size="12" lengthAdjust="spacingAndGlyphs" textLength="34" x="231.68" y="136.1543">Timer</text><line style="stroke: #A80036; stroke-width: 1.5;" x1="141.43" x2="323.43" y1="148" y2="148"/><ellipse cx="151.43" cy="159" fill="none" rx="3" ry="3" style="stroke: #038048; stroke-width: 1.0;"/><text fill="#000000" font-family="sans-serif" font-size="11" lengthAdjust="spacingAndGlyphs" textLength="79" x="160.43" y="162.2104">isFinish : bool</text><text fill="#000000" font-family="sans-serif" font-size="11" lengthAdjust="spacingAndGlyphs" textLength="92" x="160.43" y="175.0151">startTime : float</text><line style="stroke: #A80036; stroke-width: 1.5;" x1="141.43" x2="323.43" y1="181.6094" y2="181.6094"/><text fill="#000000" font-family="sans-serif" font-size="11" lengthAdjust="spacingAndGlyphs" textLength="71" x="160.43" y="195.8198">Start() : void</text><text fill="#000000" font-family="sans-serif" font-size="11" lengthAdjust="spacingAndGlyphs" textLength="83" x="160.43" y="208.6245">Update() : void</text><ellipse cx="151.43" cy="218.2188" fill="#84BE84" rx="3" ry="3" style="stroke: #038048; stroke-width: 1.0;"/><text fill="#000000" font-family="sans-serif" font-size="11" lengthAdjust="spacingAndGlyphs" textLength="93" x="160.43" y="221.4292">initTimer() : void</text><ellipse cx="151.43" cy="231.0234" fill="#84BE84" rx="3" ry="3" style="stroke: #038048; stroke-width: 1.0;"/><text fill="#000000" font-family="sans-serif" font-size="11" lengthAdjust="spacingAndGlyphs" textLength="158" x="160.43" y="234.2339">finish(levelClear:bool) : void</text><!--MD5=[83b3cf3d23d77c6f1e1b5291a241bc2a]
class MonoBehaviour--><rect fill="#FEFECE" filter="url(#f9z1ekskny1z7)" height="48" id="MonoBehaviour" style="stroke: #A80036; stroke-width: 1.5;" width="128" x="168.43" y="8"/><ellipse cx="183.43" cy="24" fill="#ADD1B2" rx="11" ry="11" style="stroke: #A80036; stroke-width: 1.0;"/><path d="M186.3988,29.6406 Q185.8206,29.9375 185.18,30.0781 Q184.5394,30.2344 183.8363,30.2344 Q181.3363,30.2344 180.0081,28.5938 Q178.6956,26.9375 178.6956,23.8125 Q178.6956,20.6875 180.0081,19.0313 Q181.3363,17.375 183.8363,17.375 Q184.5394,17.375 185.18,17.5313 Q185.8363,17.6875 186.3988,17.9844 L186.3988,20.7031 Q185.7738,20.125 185.18,19.8594 Q184.5863,19.5781 183.9613,19.5781 Q182.6175,19.5781 181.93,20.6563 Q181.2425,21.7188 181.2425,23.8125 Q181.2425,25.9063 181.93,26.9844 Q182.6175,28.0469 183.9613,28.0469 Q184.5863,28.0469 185.18,27.7813 Q185.7738,27.5 186.3988,26.9219 L186.3988,29.6406 Z "/><text fill="#000000" font-family="sans-serif" font-size="12" lengthAdjust="spacingAndGlyphs" textLength="96" x="197.43" y="28.1543">MonoBehaviour</text><line style="stroke: #A80036; stroke-width: 1.5;" x1="169.43" x2="295.43" y1="40" y2="40"/><line style="stroke: #A80036; stroke-width: 1.5;" x1="169.43" x2="295.43" y1="48" y2="48"/><!--MD5=[02a8746eb15ecbb4566dafa16ea4db73]
class Text--><rect fill="#FEFECE" filter="url(#f9z1ekskny1z7)" height="48" id="Text" style="stroke: #A80036; stroke-width: 1.5;" width="58" x="24.43" y="301"/><ellipse cx="39.43" cy="317" fill="#ADD1B2" rx="11" ry="11" style="stroke: #A80036; stroke-width: 1.0;"/><path d="M42.3988,322.6406 Q41.8206,322.9375 41.18,323.0781 Q40.5394,323.2344 39.8363,323.2344 Q37.3363,323.2344 36.0081,321.5938 Q34.6956,319.9375 34.6956,316.8125 Q34.6956,313.6875 36.0081,312.0313 Q37.3363,310.375 39.8363,310.375 Q40.5394,310.375 41.18,310.5313 Q41.8363,310.6875 42.3988,310.9844 L42.3988,313.7031 Q41.7738,313.125 41.18,312.8594 Q40.5863,312.5781 39.9613,312.5781 Q38.6175,312.5781 37.93,313.6563 Q37.2425,314.7188 37.2425,316.8125 Q37.2425,318.9063 37.93,319.9844 Q38.6175,321.0469 39.9613,321.0469 Q40.5863,321.0469 41.18,320.7813 Q41.7738,320.5 42.3988,319.9219 L42.3988,322.6406 Z "/><text fill="#000000" font-family="sans-serif" font-size="12" lengthAdjust="spacingAndGlyphs" textLength="26" x="53.43" y="321.1543">Text</text><line style="stroke: #A80036; stroke-width: 1.5;" x1="25.43" x2="81.43" y1="333" y2="333"/><line style="stroke: #A80036; stroke-width: 1.5;" x1="25.43" x2="81.43" y1="341" y2="341"/><!--MD5=[53103a2ef5837e9a1a31dfb3a6dd9e1a]
class TimeSpan--><rect fill="#FEFECE" filter="url(#f9z1ekskny1z7)" height="48" id="TimeSpan" style="stroke: #A80036; stroke-width: 1.5;" width="93" x="117.93" y="301"/><ellipse cx="132.93" cy="317" fill="#ADD1B2" rx="11" ry="11" style="stroke: #A80036; stroke-width: 1.0;"/><path d="M135.8988,322.6406 Q135.3206,322.9375 134.68,323.0781 Q134.0394,323.2344 133.3363,323.2344 Q130.8363,323.2344 129.5081,321.5938 Q128.1956,319.9375 128.1956,316.8125 Q128.1956,313.6875 129.5081,312.0313 Q130.8363,310.375 133.3363,310.375 Q134.0394,310.375 134.68,310.5313 Q135.3363,310.6875 135.8988,310.9844 L135.8988,313.7031 Q135.2738,313.125 134.68,312.8594 Q134.0863,312.5781 133.4613,312.5781 Q132.1175,312.5781 131.43,313.6563 Q130.7425,314.7188 130.7425,316.8125 Q130.7425,318.9063 131.43,319.9844 Q132.1175,321.0469 133.4613,321.0469 Q134.0863,321.0469 134.68,320.7813 Q135.2738,320.5 135.8988,319.9219 L135.8988,322.6406 Z "/><text fill="#000000" font-family="sans-serif" font-size="12" lengthAdjust="spacingAndGlyphs" textLength="61" x="146.93" y="321.1543">TimeSpan</text><line style="stroke: #A80036; stroke-width: 1.5;" x1="118.93" x2="209.93" y1="333" y2="333"/><line style="stroke: #A80036; stroke-width: 1.5;" x1="118.93" x2="209.93" y1="341" y2="341"/><!--MD5=[064f7a74fee85463ec1a30143664ee17]
class GameObject--><rect fill="#FEFECE" filter="url(#f9z1ekskny1z7)" height="48" id="GameObject" style="stroke: #A80036; stroke-width: 1.5;" width="108" x="246.43" y="301"/><ellipse cx="261.43" cy="317" fill="#ADD1B2" rx="11" ry="11" style="stroke: #A80036; stroke-width: 1.0;"/><path d="M264.3988,322.6406 Q263.8206,322.9375 263.18,323.0781 Q262.5394,323.2344 261.8363,323.2344 Q259.3363,323.2344 258.0081,321.5938 Q256.6956,319.9375 256.6956,316.8125 Q256.6956,313.6875 258.0081,312.0313 Q259.3363,310.375 261.8363,310.375 Q262.5394,310.375 263.18,310.5313 Q263.8363,310.6875 264.3988,310.9844 L264.3988,313.7031 Q263.7738,313.125 263.18,312.8594 Q262.5863,312.5781 261.9613,312.5781 Q260.6175,312.5781 259.93,313.6563 Q259.2425,314.7188 259.2425,316.8125 Q259.2425,318.9063 259.93,319.9844 Q260.6175,321.0469 261.9613,321.0469 Q262.5863,321.0469 263.18,320.7813 Q263.7738,320.5 264.3988,319.9219 L264.3988,322.6406 Z "/><text fill="#000000" font-family="sans-serif" font-size="12" lengthAdjust="spacingAndGlyphs" textLength="76" x="275.43" y="321.1543">GameObject</text><line style="stroke: #A80036; stroke-width: 1.5;" x1="247.43" x2="353.43" y1="333" y2="333"/><line style="stroke: #A80036; stroke-width: 1.5;" x1="247.43" x2="353.43" y1="341" y2="341"/><!--MD5=[ca58ab8c00336ea3fb197d9b30222a24]
class PlayfabManager--><rect fill="#FEFECE" filter="url(#f9z1ekskny1z7)" height="48" id="PlayfabManager" style="stroke: #A80036; stroke-width: 1.5;" width="132" x="389.43" y="301"/><ellipse cx="404.43" cy="317" fill="#ADD1B2" rx="11" ry="11" style="stroke: #A80036; stroke-width: 1.0;"/><path d="M407.3988,322.6406 Q406.8206,322.9375 406.18,323.0781 Q405.5394,323.2344 404.8363,323.2344 Q402.3363,323.2344 401.0081,321.5938 Q399.6956,319.9375 399.6956,316.8125 Q399.6956,313.6875 401.0081,312.0313 Q402.3363,310.375 404.8363,310.375 Q405.5394,310.375 406.18,310.5313 Q406.8363,310.6875 407.3988,310.9844 L407.3988,313.7031 Q406.7738,313.125 406.18,312.8594 Q405.5863,312.5781 404.9613,312.5781 Q403.6175,312.5781 402.93,313.6563 Q402.2425,314.7188 402.2425,316.8125 Q402.2425,318.9063 402.93,319.9844 Q403.6175,321.0469 404.9613,321.0469 Q405.5863,321.0469 406.18,320.7813 Q406.7738,320.5 407.3988,319.9219 L407.3988,322.6406 Z "/><text fill="#000000" font-family="sans-serif" font-size="12" lengthAdjust="spacingAndGlyphs" textLength="100" x="418.43" y="321.1543">PlayfabManager</text><line style="stroke: #A80036; stroke-width: 1.5;" x1="390.43" x2="520.43" y1="333" y2="333"/><line style="stroke: #A80036; stroke-width: 1.5;" x1="390.43" x2="520.43" y1="341" y2="341"/><!--MD5=[65c0e49bfc4d858f02fb50619d36140e]
reverse link MonoBehaviour to Timer--><path d="M232.43,76.67 C232.43,89.05 232.43,102.77 232.43,115.99 " fill="none" id="MonoBehaviour&lt;-Timer" style="stroke: #A80036; stroke-width: 1.0;"/><polygon fill="none" points="225.43,76.22,232.43,56.22,239.43,76.22,225.43,76.22" style="stroke: #A80036; stroke-width: 1.0;"/><!--MD5=[bfa52cbac0fc1690cc1d428fa414fc77]
link Timer to Text--><path d="M156,241.2 C131.62,260.88 105.91,281.63 86.33,297.44 " fill="none" id="Timer-&gt;Text" style="stroke: #A80036; stroke-width: 1.0;"/><polygon fill="#A80036" points="82,300.94,91.5176,298.4073,85.8932,297.8026,86.4978,292.1782,82,300.94" style="stroke: #A80036; stroke-width: 1.0;"/><text fill="#000000" font-family="sans-serif" font-size="13" lengthAdjust="spacingAndGlyphs" textLength="61" x="20.5054" y="289.9367">timerText</text><!--MD5=[c8f93386c111e622d991001493071b6a]
link Timer to TimeSpan--><path d="M203.39,241.2 C194.37,260.39 184.86,280.59 177.5,296.23 " fill="none" id="Timer-&gt;TimeSpan" style="stroke: #A80036; stroke-width: 1.0;"/><polygon fill="#A80036" points="175.28,300.94,182.7285,294.4964,177.4069,296.4149,175.4884,291.0933,175.28,300.94" style="stroke: #A80036; stroke-width: 1.0;"/><text fill="#000000" font-family="sans-serif" font-size="13" lengthAdjust="spacingAndGlyphs" textLength="29" x="145.3447" y="289.9367">time</text><!--MD5=[dfae9895e33bcab493ce33685ae434ae]
link Timer to GameObject--><path d="M261.47,241.2 C270.49,260.39 280,280.59 287.36,296.23 " fill="none" id="Timer-&gt;GameObject" style="stroke: #A80036; stroke-width: 1.0;"/><polygon fill="#A80036" points="289.58,300.94,289.3716,291.0933,287.4531,296.4149,282.1315,294.4964,289.58,300.94" style="stroke: #A80036; stroke-width: 1.0;"/><text fill="#000000" font-family="sans-serif" font-size="13" lengthAdjust="spacingAndGlyphs" textLength="67" x="211.2153" y="289.9367">deadMenu</text><!--MD5=[70ee1d8ed8f66f4a5375cc56eec54a21]
link Timer to PlayfabManager--><path d="M324.74,239.32 C356.46,259.87 390.31,281.8 415.61,298.2 " fill="none" id="Timer-&gt;PlayfabManager" style="stroke: #A80036; stroke-width: 1.0;"/><polygon fill="#A80036" points="419.91,300.99,414.5222,292.7455,415.7106,298.2761,410.18,299.4645,419.91,300.99" style="stroke: #A80036; stroke-width: 1.0;"/><text fill="#000000" font-family="sans-serif" font-size="13" lengthAdjust="spacingAndGlyphs" textLength="102" x="335.3502" y="289.9378">playfabManager</text><!--MD5=[8d5a2cd76b414227228000968c3b9bd8]
@startuml
class Timer {
    + isFinish : bool
    startTime : float
    Start() : void
    Update() : void
    + initTimer() : void
    + finish(levelClear:bool) : void
}
MonoBehaviour <|- - Timer
Timer - -> "timerText" Text
Timer - -> "time" TimeSpan
Timer - -> "deadMenu" GameObject
Timer - -> "playfabManager" PlayfabManager
@enduml

PlantUML version 1.2020.02(Sun Mar 01 10:22:07 GMT 2020)
(GPL source distribution)
Java Runtime: OpenJDK Runtime Environment
JVM: OpenJDK 64-Bit Server VM
Java Version: 11.0.9+11-Ubuntu-0ubuntu1
Operating System: Linux
Default Encoding: ANSI_X3.4-1968
Language: en
Country: US
--></g></svg>