<?xml version="1.0" encoding="UTF-8" standalone="no"?><svg xmlns="http://www.w3.org/2000/svg" xmlns:xlink="http://www.w3.org/1999/xlink" contentScriptType="application/ecmascript" contentStyleType="text/css" height="309px" preserveAspectRatio="none" style="width:156px;height:309px;" version="1.1" viewBox="0 0 156 309" width="156px" zoomAndPan="magnify"><defs><filter height="300%" id="f1j2fggkovjr74" width="300%" x="-1" y="-1"><feGaussianBlur result="blurOut" stdDeviation="2.0"/><feColorMatrix in="blurOut" result="blurOut2" type="matrix" values="0 0 0 0 0 0 0 0 0 0 0 0 0 0 0 0 0 0 .4 0"/><feOffset dx="4.0" dy="4.0" in="blurOut2" result="blurOut3"/><feBlend in="SourceGraphic" in2="blurOut3" mode="normal"/></filter></defs><g><!--MD5=[2e7a782aaacfacebc7165ead03a94e21]
class UpdateTime--><rect fill="#FEFECE" filter="url(#f1j2fggkovjr74)" height="73.6094" id="UpdateTime" style="stroke: #A80036; stroke-width: 1.5;" width="137" x="8.5" y="116"/><ellipse cx="37" cy="132" fill="#ADD1B2" rx="11" ry="11" style="stroke: #A80036; stroke-width: 1.0;"/><path d="M39.9688,137.6406 Q39.3906,137.9375 38.75,138.0781 Q38.1094,138.2344 37.4063,138.2344 Q34.9063,138.2344 33.5781,136.5938 Q32.2656,134.9375 32.2656,131.8125 Q32.2656,128.6875 33.5781,127.0313 Q34.9063,125.375 37.4063,125.375 Q38.1094,125.375 38.75,125.5313 Q39.4063,125.6875 39.9688,125.9844 L39.9688,128.7031 Q39.3438,128.125 38.75,127.8594 Q38.1563,127.5781 37.5313,127.5781 Q36.1875,127.5781 35.5,128.6563 Q34.8125,129.7188 34.8125,131.8125 Q34.8125,133.9063 35.5,134.9844 Q36.1875,136.0469 37.5313,136.0469 Q38.1563,136.0469 38.75,135.7813 Q39.3438,135.5 39.9688,134.9219 L39.9688,137.6406 Z "/><text fill="#000000" font-family="sans-serif" font-size="12" lengthAdjust="spacingAndGlyphs" textLength="75" x="54" y="136.1543">UpdateTime</text><line style="stroke: #A80036; stroke-width: 1.5;" x1="9.5" x2="144.5" y1="148" y2="148"/><line style="stroke: #A80036; stroke-width: 1.5;" x1="9.5" x2="144.5" y1="156" y2="156"/><text fill="#000000" font-family="sans-serif" font-size="11" lengthAdjust="spacingAndGlyphs" textLength="71" x="14.5" y="170.2104">Start() : void</text><text fill="#000000" font-family="sans-serif" font-size="11" lengthAdjust="spacingAndGlyphs" textLength="125" x="14.5" y="183.0151">waiter() : IEnumerator</text><!--MD5=[83b3cf3d23d77c6f1e1b5291a241bc2a]
class MonoBehaviour--><rect fill="#FEFECE" filter="url(#f1j2fggkovjr74)" height="48" id="MonoBehaviour" style="stroke: #A80036; stroke-width: 1.5;" width="128" x="13" y="8"/><ellipse cx="28" cy="24" fill="#ADD1B2" rx="11" ry="11" style="stroke: #A80036; stroke-width: 1.0;"/><path d="M30.9688,29.6406 Q30.3906,29.9375 29.75,30.0781 Q29.1094,30.2344 28.4063,30.2344 Q25.9063,30.2344 24.5781,28.5938 Q23.2656,26.9375 23.2656,23.8125 Q23.2656,20.6875 24.5781,19.0313 Q25.9063,17.375 28.4063,17.375 Q29.1094,17.375 29.75,17.5313 Q30.4063,17.6875 30.9688,17.9844 L30.9688,20.7031 Q30.3438,20.125 29.75,19.8594 Q29.1563,19.5781 28.5313,19.5781 Q27.1875,19.5781 26.5,20.6563 Q25.8125,21.7188 25.8125,23.8125 Q25.8125,25.9063 26.5,26.9844 Q27.1875,28.0469 28.5313,28.0469 Q29.1563,28.0469 29.75,27.7813 Q30.3438,27.5 30.9688,26.9219 L30.9688,29.6406 Z "/><text fill="#000000" font-family="sans-serif" font-size="12" lengthAdjust="spacingAndGlyphs" textLength="96" x="42" y="28.1543">MonoBehaviour</text><line style="stroke: #A80036; stroke-width: 1.5;" x1="14" x2="140" y1="40" y2="40"/><line style="stroke: #A80036; stroke-width: 1.5;" x1="14" x2="140" y1="48" y2="48"/><!--MD5=[02a8746eb15ecbb4566dafa16ea4db73]
class Text--><rect fill="#FEFECE" filter="url(#f1j2fggkovjr74)" height="48" id="Text" style="stroke: #A80036; stroke-width: 1.5;" width="58" x="48" y="250"/><ellipse cx="63" cy="266" fill="#ADD1B2" rx="11" ry="11" style="stroke: #A80036; stroke-width: 1.0;"/><path d="M65.9688,271.6406 Q65.3906,271.9375 64.75,272.0781 Q64.1094,272.2344 63.4063,272.2344 Q60.9063,272.2344 59.5781,270.5938 Q58.2656,268.9375 58.2656,265.8125 Q58.2656,262.6875 59.5781,261.0313 Q60.9063,259.375 63.4063,259.375 Q64.1094,259.375 64.75,259.5313 Q65.4063,259.6875 65.9688,259.9844 L65.9688,262.7031 Q65.3438,262.125 64.75,261.8594 Q64.1563,261.5781 63.5313,261.5781 Q62.1875,261.5781 61.5,262.6563 Q60.8125,263.7188 60.8125,265.8125 Q60.8125,267.9063 61.5,268.9844 Q62.1875,270.0469 63.5313,270.0469 Q64.1563,270.0469 64.75,269.7813 Q65.3438,269.5 65.9688,268.9219 L65.9688,271.6406 Z "/><text fill="#000000" font-family="sans-serif" font-size="12" lengthAdjust="spacingAndGlyphs" textLength="26" x="77" y="270.1543">Text</text><line style="stroke: #A80036; stroke-width: 1.5;" x1="49" x2="105" y1="282" y2="282"/><line style="stroke: #A80036; stroke-width: 1.5;" x1="49" x2="105" y1="290" y2="290"/><!--MD5=[42b690ecfa8d7bb7428625e13794d7a9]
reverse link MonoBehaviour to UpdateTime--><path d="M77,76.43 C77,89.33 77,103.32 77,115.71 " fill="none" id="MonoBehaviour&lt;-UpdateTime" style="stroke: #A80036; stroke-width: 1.0;"/><polygon fill="none" points="70,76.23,77,56.23,84,76.23,70,76.23" style="stroke: #A80036; stroke-width: 1.0;"/><!--MD5=[f38fa5bb06943fdd2774b35fdd9901cd]
link UpdateTime to Text--><path d="M77,190.03 C77,207.48 77,228.15 77,244.49 " fill="none" id="UpdateTime-&gt;Text" style="stroke: #A80036; stroke-width: 1.0;"/><polygon fill="#A80036" points="77,249.85,81,240.85,77,244.85,73,240.85,77,249.85" style="stroke: #A80036; stroke-width: 1.0;"/><text fill="#000000" font-family="sans-serif" font-size="13" lengthAdjust="spacingAndGlyphs" textLength="56" x="13.825" y="238.8236">timeText</text><!--MD5=[7f1aa66ff5a7c81db5127e4da707d8ad]
@startuml
class UpdateTime {
    Start() : void
    waiter() : IEnumerator
}
MonoBehaviour <|- - UpdateTime
UpdateTime - -> "timeText" Text
@enduml

PlantUML version 1.2020.02(Sun Mar 01 10:22:07 GMT 2020)
(GPL source distribution)
Java Runtime: OpenJDK Runtime Environment
JVM: OpenJDK 64-Bit Server VM
Java Version: 11.0.9+11-Ubuntu-0ubuntu1
Operating System: Linux
Default Encoding: ANSI_X3.4-1968
Language: en
Country: US
--></g></svg>