<?xml version="1.0" encoding="UTF-8" standalone="no"?><svg xmlns="http://www.w3.org/2000/svg" xmlns:xlink="http://www.w3.org/1999/xlink" contentScriptType="application/ecmascript" contentStyleType="text/css" height="437px" preserveAspectRatio="none" style="width:445px;height:437px;" version="1.1" viewBox="0 0 445 437" width="445px" zoomAndPan="magnify"><defs><filter height="300%" id="f1ldy4br7n1no6" width="300%" x="-1" y="-1"><feGaussianBlur result="blurOut" stdDeviation="2.0"/><feColorMatrix in="blurOut" result="blurOut2" type="matrix" values="0 0 0 0 0 0 0 0 0 0 0 0 0 0 0 0 0 0 .4 0"/><feOffset dx="4.0" dy="4.0" in="blurOut2" result="blurOut3"/><feBlend in="SourceGraphic" in2="blurOut3" mode="normal"/></filter></defs><g><!--MD5=[80806e08dac105db4bf03e60335471e4]
class MainMenu--><rect fill="#FEFECE" filter="url(#f1ldy4br7n1no6)" height="201.6563" id="MainMenu" style="stroke: #A80036; stroke-width: 1.5;" width="266" x="55.28" y="116"/><ellipse cx="152.53" cy="132" fill="#ADD1B2" rx="11" ry="11" style="stroke: #A80036; stroke-width: 1.0;"/><path d="M155.4988,137.6406 Q154.9206,137.9375 154.28,138.0781 Q153.6394,138.2344 152.9363,138.2344 Q150.4363,138.2344 149.1081,136.5938 Q147.7956,134.9375 147.7956,131.8125 Q147.7956,128.6875 149.1081,127.0313 Q150.4363,125.375 152.9363,125.375 Q153.6394,125.375 154.28,125.5313 Q154.9363,125.6875 155.4988,125.9844 L155.4988,128.7031 Q154.8738,128.125 154.28,127.8594 Q153.6863,127.5781 153.0613,127.5781 Q151.7175,127.5781 151.03,128.6563 Q150.3425,129.7188 150.3425,131.8125 Q150.3425,133.9063 151.03,134.9844 Q151.7175,136.0469 153.0613,136.0469 Q153.6863,136.0469 154.28,135.7813 Q154.8738,135.5 155.4988,134.9219 L155.4988,137.6406 Z "/><text fill="#000000" font-family="sans-serif" font-size="12" lengthAdjust="spacingAndGlyphs" textLength="63" x="173.03" y="136.1543">MainMenu</text><line style="stroke: #A80036; stroke-width: 1.5;" x1="56.28" x2="320.28" y1="148" y2="148"/><line style="stroke: #A80036; stroke-width: 1.5;" x1="56.28" x2="320.28" y1="156" y2="156"/><text fill="#000000" font-family="sans-serif" font-size="11" lengthAdjust="spacingAndGlyphs" textLength="71" x="75.28" y="170.2104">Start() : void</text><ellipse cx="66.28" cy="179.8047" fill="#84BE84" rx="3" ry="3" style="stroke: #038048; stroke-width: 1.0;"/><text fill="#000000" font-family="sans-serif" font-size="11" lengthAdjust="spacingAndGlyphs" textLength="100" x="75.28" y="183.0151">PlayGame() : void</text><ellipse cx="66.28" cy="192.6094" fill="#84BE84" rx="3" ry="3" style="stroke: #038048; stroke-width: 1.0;"/><text fill="#000000" font-family="sans-serif" font-size="11" lengthAdjust="spacingAndGlyphs" textLength="100" x="75.28" y="195.8198">QuitGame() : void</text><ellipse cx="66.28" cy="205.4141" fill="#84BE84" rx="3" ry="3" style="stroke: #038048; stroke-width: 1.0;"/><text fill="#000000" font-family="sans-serif" font-size="11" lengthAdjust="spacingAndGlyphs" textLength="116" x="75.28" y="208.6245">LeaderBoard() : void</text><ellipse cx="66.28" cy="218.2188" fill="#84BE84" rx="3" ry="3" style="stroke: #038048; stroke-width: 1.0;"/><text fill="#000000" font-family="sans-serif" font-size="11" lengthAdjust="spacingAndGlyphs" textLength="148" x="75.28" y="221.4292">CloseLeaderBoard() : void</text><ellipse cx="66.28" cy="231.0234" fill="#84BE84" rx="3" ry="3" style="stroke: #038048; stroke-width: 1.0;"/><text fill="#000000" font-family="sans-serif" font-size="11" lengthAdjust="spacingAndGlyphs" textLength="113" x="75.28" y="234.2339">SettingMenu() : void</text><ellipse cx="66.28" cy="243.8281" fill="#84BE84" rx="3" ry="3" style="stroke: #038048; stroke-width: 1.0;"/><text fill="#000000" font-family="sans-serif" font-size="11" lengthAdjust="spacingAndGlyphs" textLength="145" x="75.28" y="247.0386">CloseSettingMenu() : void</text><ellipse cx="66.28" cy="256.6328" fill="#84BE84" rx="3" ry="3" style="stroke: #038048; stroke-width: 1.0;"/><text fill="#000000" font-family="sans-serif" font-size="11" lengthAdjust="spacingAndGlyphs" textLength="131" x="75.28" y="259.8433">GoToStartMenu() : void</text><ellipse cx="66.28" cy="269.4375" fill="#84BE84" rx="3" ry="3" style="stroke: #038048; stroke-width: 1.0;"/><text fill="#000000" font-family="sans-serif" font-size="11" lengthAdjust="spacingAndGlyphs" textLength="114" x="75.28" y="272.6479">BackToMenu() : void</text><ellipse cx="66.28" cy="282.2422" fill="#84BE84" rx="3" ry="3" style="stroke: #038048; stroke-width: 1.0;"/><text fill="#000000" font-family="sans-serif" font-size="11" lengthAdjust="spacingAndGlyphs" textLength="109" x="75.28" y="285.4526">GoToLevel1() : void</text><ellipse cx="66.28" cy="295.0469" fill="#84BE84" rx="3" ry="3" style="stroke: #038048; stroke-width: 1.0;"/><text fill="#000000" font-family="sans-serif" font-size="11" lengthAdjust="spacingAndGlyphs" textLength="109" x="75.28" y="298.2573">GoToLevel2() : void</text><ellipse cx="66.28" cy="307.8516" fill="#84BE84" rx="3" ry="3" style="stroke: #038048; stroke-width: 1.0;"/><text fill="#000000" font-family="sans-serif" font-size="11" lengthAdjust="spacingAndGlyphs" textLength="240" x="75.28" y="311.062">CloseNameInputBoard(levelNum:int) : void</text><!--MD5=[83b3cf3d23d77c6f1e1b5291a241bc2a]
class MonoBehaviour--><rect fill="#FEFECE" filter="url(#f1ldy4br7n1no6)" height="48" id="MonoBehaviour" style="stroke: #A80036; stroke-width: 1.5;" width="128" x="124.28" y="8"/><ellipse cx="139.28" cy="24" fill="#ADD1B2" rx="11" ry="11" style="stroke: #A80036; stroke-width: 1.0;"/><path d="M142.2488,29.6406 Q141.6706,29.9375 141.03,30.0781 Q140.3894,30.2344 139.6863,30.2344 Q137.1863,30.2344 135.8581,28.5938 Q134.5456,26.9375 134.5456,23.8125 Q134.5456,20.6875 135.8581,19.0313 Q137.1863,17.375 139.6863,17.375 Q140.3894,17.375 141.03,17.5313 Q141.6863,17.6875 142.2488,17.9844 L142.2488,20.7031 Q141.6238,20.125 141.03,19.8594 Q140.4363,19.5781 139.8113,19.5781 Q138.4675,19.5781 137.78,20.6563 Q137.0925,21.7188 137.0925,23.8125 Q137.0925,25.9063 137.78,26.9844 Q138.4675,28.0469 139.8113,28.0469 Q140.4363,28.0469 141.03,27.7813 Q141.6238,27.5 142.2488,26.9219 L142.2488,29.6406 Z "/><text fill="#000000" font-family="sans-serif" font-size="12" lengthAdjust="spacingAndGlyphs" textLength="96" x="153.28" y="28.1543">MonoBehaviour</text><line style="stroke: #A80036; stroke-width: 1.5;" x1="125.28" x2="251.28" y1="40" y2="40"/><line style="stroke: #A80036; stroke-width: 1.5;" x1="125.28" x2="251.28" y1="48" y2="48"/><!--MD5=[064f7a74fee85463ec1a30143664ee17]
class GameObject--><rect fill="#FEFECE" filter="url(#f1ldy4br7n1no6)" height="48" id="GameObject" style="stroke: #A80036; stroke-width: 1.5;" width="108" x="134.28" y="378"/><ellipse cx="149.28" cy="394" fill="#ADD1B2" rx="11" ry="11" style="stroke: #A80036; stroke-width: 1.0;"/><path d="M152.2488,399.6406 Q151.6706,399.9375 151.03,400.0781 Q150.3894,400.2344 149.6863,400.2344 Q147.1863,400.2344 145.8581,398.5938 Q144.5456,396.9375 144.5456,393.8125 Q144.5456,390.6875 145.8581,389.0313 Q147.1863,387.375 149.6863,387.375 Q150.3894,387.375 151.03,387.5313 Q151.6863,387.6875 152.2488,387.9844 L152.2488,390.7031 Q151.6238,390.125 151.03,389.8594 Q150.4363,389.5781 149.8113,389.5781 Q148.4675,389.5781 147.78,390.6563 Q147.0925,391.7188 147.0925,393.8125 Q147.0925,395.9063 147.78,396.9844 Q148.4675,398.0469 149.8113,398.0469 Q150.4363,398.0469 151.03,397.7813 Q151.6238,397.5 152.2488,396.9219 L152.2488,399.6406 Z "/><text fill="#000000" font-family="sans-serif" font-size="12" lengthAdjust="spacingAndGlyphs" textLength="76" x="163.28" y="398.1543">GameObject</text><line style="stroke: #A80036; stroke-width: 1.5;" x1="135.28" x2="241.28" y1="410" y2="410"/><line style="stroke: #A80036; stroke-width: 1.5;" x1="135.28" x2="241.28" y1="418" y2="418"/><!--MD5=[ca58ab8c00336ea3fb197d9b30222a24]
class PlayfabManager--><rect fill="#FEFECE" filter="url(#f1ldy4br7n1no6)" height="48" id="PlayfabManager" style="stroke: #A80036; stroke-width: 1.5;" width="132" x="277.28" y="378"/><ellipse cx="292.28" cy="394" fill="#ADD1B2" rx="11" ry="11" style="stroke: #A80036; stroke-width: 1.0;"/><path d="M295.2488,399.6406 Q294.6706,399.9375 294.03,400.0781 Q293.3894,400.2344 292.6863,400.2344 Q290.1863,400.2344 288.8581,398.5938 Q287.5456,396.9375 287.5456,393.8125 Q287.5456,390.6875 288.8581,389.0313 Q290.1863,387.375 292.6863,387.375 Q293.3894,387.375 294.03,387.5313 Q294.6863,387.6875 295.2488,387.9844 L295.2488,390.7031 Q294.6238,390.125 294.03,389.8594 Q293.4363,389.5781 292.8113,389.5781 Q291.4675,389.5781 290.78,390.6563 Q290.0925,391.7188 290.0925,393.8125 Q290.0925,395.9063 290.78,396.9844 Q291.4675,398.0469 292.8113,398.0469 Q293.4363,398.0469 294.03,397.7813 Q294.6238,397.5 295.2488,396.9219 L295.2488,399.6406 Z "/><text fill="#000000" font-family="sans-serif" font-size="12" lengthAdjust="spacingAndGlyphs" textLength="100" x="306.28" y="398.1543">PlayfabManager</text><line style="stroke: #A80036; stroke-width: 1.5;" x1="278.28" x2="408.28" y1="410" y2="410"/><line style="stroke: #A80036; stroke-width: 1.5;" x1="278.28" x2="408.28" y1="418" y2="418"/><!--MD5=[433f513694bd447943a8e7c21da51852]
reverse link MonoBehaviour to MainMenu--><path d="M188.28,76.46 C188.28,88.49 188.28,102.06 188.28,115.9 " fill="none" id="MonoBehaviour&lt;-MainMenu" style="stroke: #A80036; stroke-width: 1.0;"/><polygon fill="none" points="181.28,76.18,188.28,56.18,195.28,76.18,181.28,76.18" style="stroke: #A80036; stroke-width: 1.0;"/><!--MD5=[a7f2e47d99e7fa36b63b17d43ad40b09]
link MainMenu to GameObject--><path d="M123.28,318.07 C124.5,338.51 130.1,358.37 140.07,373.54 " fill="none" id="MainMenu-&gt;GameObject" style="stroke: #A80036; stroke-width: 1.0;"/><polygon fill="#A80036" points="143,377.68,141.0751,368.0211,140.1155,373.596,134.5406,372.6363,143,377.68" style="stroke: #A80036; stroke-width: 1.0;"/><text fill="#000000" font-family="sans-serif" font-size="13" lengthAdjust="spacingAndGlyphs" textLength="122" x="4.0616" y="369.6862">LeaderBoardScene</text><!--MD5=[a7f2e47d99e7fa36b63b17d43ad40b09]
link MainMenu to GameObject--><path d="M149.43,318.07 C150.15,338.16 153.39,357.69 159.16,372.75 " fill="none" id="MainMenu-&gt;GameObject-1" style="stroke: #A80036; stroke-width: 1.0;"/><polygon fill="#A80036" points="161.22,377.68,161.4659,367.8342,159.304,373.0617,154.0766,370.8998,161.22,377.68" style="stroke: #A80036; stroke-width: 1.0;"/><text fill="#000000" font-family="sans-serif" font-size="13" lengthAdjust="spacingAndGlyphs" textLength="87" x="165.2273" y="367.007">NameScene1</text><!--MD5=[a7f2e47d99e7fa36b63b17d43ad40b09]
link MainMenu to GameObject--><path d="M175.58,318.07 C175.81,337.98 176.86,357.35 178.71,372.36 " fill="none" id="MainMenu-&gt;GameObject-2" style="stroke: #A80036; stroke-width: 1.0;"/><polygon fill="#A80036" points="179.43,377.68,182.1858,368.2246,178.7589,372.7252,174.2582,369.2983,179.43,377.68" style="stroke: #A80036; stroke-width: 1.0;"/><text fill="#000000" font-family="sans-serif" font-size="13" lengthAdjust="spacingAndGlyphs" textLength="87" x="38.7713" y="372.5745">NameScene2</text><!--MD5=[a7f2e47d99e7fa36b63b17d43ad40b09]
link MainMenu to GameObject--><path d="M201.73,318.07 C201.48,337.98 200.38,357.35 198.41,372.36 " fill="none" id="MainMenu-&gt;GameObject-3" style="stroke: #A80036; stroke-width: 1.0;"/><polygon fill="#A80036" points="197.65,377.68,202.8725,369.3298,198.3511,372.7294,194.9515,368.208,197.65,377.68" style="stroke: #A80036; stroke-width: 1.0;"/><text fill="#000000" font-family="sans-serif" font-size="13" lengthAdjust="spacingAndGlyphs" textLength="34" x="161.7902" y="367.007">Block</text><!--MD5=[a7f2e47d99e7fa36b63b17d43ad40b09]
link MainMenu to GameObject--><path d="M227.87,318.07 C227.14,338.16 223.84,357.69 217.96,372.75 " fill="none" id="MainMenu-&gt;GameObject-4" style="stroke: #A80036; stroke-width: 1.0;"/><polygon fill="#A80036" points="215.86,377.68,223.0642,370.9644,217.8175,373.0791,215.7028,367.8324,215.86,377.68" style="stroke: #A80036; stroke-width: 1.0;"/><text fill="#000000" font-family="sans-serif" font-size="13" lengthAdjust="spacingAndGlyphs" textLength="67" x="230.6248" y="366.9452">StartMenu</text><!--MD5=[a7f2e47d99e7fa36b63b17d43ad40b09]
link MainMenu to GameObject--><path d="M254.02,318.07 C252.79,338.51 247.13,358.37 237.04,373.54 " fill="none" id="MainMenu-&gt;GameObject-5" style="stroke: #A80036; stroke-width: 1.0;"/><polygon fill="#A80036" points="234.08,377.68,242.5594,372.6701,236.9808,373.6075,236.0434,368.0288,234.08,377.68" style="stroke: #A80036; stroke-width: 1.0;"/><text fill="#000000" font-family="sans-serif" font-size="13" lengthAdjust="spacingAndGlyphs" textLength="46" x="223.1919" y="378.0083">Setting</text><!--MD5=[ef0950ba7828452305e28e0119bcf0d1]
link MainMenu to PlayfabManager--><path d="M273.04,318.07 C290.35,338.51 307.18,358.37 320.02,373.54 " fill="none" id="MainMenu-&gt;PlayfabManager" style="stroke: #A80036; stroke-width: 1.0;"/><polygon fill="#A80036" points="323.53,377.68,320.7685,368.2262,320.2996,373.8636,314.6623,373.3948,323.53,377.68" style="stroke: #A80036; stroke-width: 1.0;"/><text fill="#000000" font-family="sans-serif" font-size="13" lengthAdjust="spacingAndGlyphs" textLength="102" x="331.1472" y="367.007">playfabManager</text><!--MD5=[34084ba54cda2d721bb484513e965218]
@startuml
class MainMenu {
    Start() : void
    + PlayGame() : void
    + QuitGame() : void
    + LeaderBoard() : void
    + CloseLeaderBoard() : void
    + SettingMenu() : void
    + CloseSettingMenu() : void
    + GoToStartMenu() : void
    + BackToMenu() : void
    + GoToLevel1() : void
    + GoToLevel2() : void
    + CloseNameInputBoard(levelNum:int) : void
}
MonoBehaviour <|- - MainMenu
MainMenu - -> "LeaderBoardScene" GameObject
MainMenu - -> "NameScene1" GameObject
MainMenu - -> "NameScene2" GameObject
MainMenu - -> "Block" GameObject
MainMenu - -> "StartMenu" GameObject
MainMenu - -> "Setting" GameObject
MainMenu - -> "playfabManager" PlayfabManager
@enduml

PlantUML version 1.2020.02(Sun Mar 01 10:22:07 GMT 2020)
(GPL source distribution)
Java Runtime: OpenJDK Runtime Environment
JVM: OpenJDK 64-Bit Server VM
Java Version: 11.0.9+11-Ubuntu-0ubuntu1
Operating System: Linux
Default Encoding: ANSI_X3.4-1968
Language: en
Country: US
--></g></svg>