<?xml version="1.0" encoding="UTF-8" standalone="no"?><svg xmlns="http://www.w3.org/2000/svg" xmlns:xlink="http://www.w3.org/1999/xlink" contentScriptType="application/ecmascript" contentStyleType="text/css" height="334px" preserveAspectRatio="none" style="width:154px;height:334px;" version="1.1" viewBox="0 0 154 334" width="154px" zoomAndPan="magnify"><defs><filter height="300%" id="f1hcq4khbo7fsu" width="300%" x="-1" y="-1"><feGaussianBlur result="blurOut" stdDeviation="2.0"/><feColorMatrix in="blurOut" result="blurOut2" type="matrix" values="0 0 0 0 0 0 0 0 0 0 0 0 0 0 0 0 0 0 .4 0"/><feOffset dx="4.0" dy="4.0" in="blurOut2" result="blurOut3"/><feBlend in="SourceGraphic" in2="blurOut3" mode="normal"/></filter></defs><g><!--MD5=[c281cd549d6bfb16e3ecc036314443fd]
class MenuManager--><rect fill="#FEFECE" filter="url(#f1hcq4khbo7fsu)" height="99.2188" id="MenuManager" style="stroke: #A80036; stroke-width: 1.5;" width="137" x="6" y="116"/><ellipse cx="28.2" cy="132" fill="#ADD1B2" rx="11" ry="11" style="stroke: #A80036; stroke-width: 1.0;"/><path d="M31.1688,137.6406 Q30.5906,137.9375 29.95,138.0781 Q29.3094,138.2344 28.6063,138.2344 Q26.1063,138.2344 24.7781,136.5938 Q23.4656,134.9375 23.4656,131.8125 Q23.4656,128.6875 24.7781,127.0313 Q26.1063,125.375 28.6063,125.375 Q29.3094,125.375 29.95,125.5313 Q30.6063,125.6875 31.1688,125.9844 L31.1688,128.7031 Q30.5438,128.125 29.95,127.8594 Q29.3563,127.5781 28.7313,127.5781 Q27.3875,127.5781 26.7,128.6563 Q26.0125,129.7188 26.0125,131.8125 Q26.0125,133.9063 26.7,134.9844 Q27.3875,136.0469 28.7313,136.0469 Q29.3563,136.0469 29.95,135.7813 Q30.5438,135.5 31.1688,134.9219 L31.1688,137.6406 Z "/><text fill="#000000" font-family="sans-serif" font-size="12" lengthAdjust="spacingAndGlyphs" textLength="89" x="43.8" y="136.1543">MenuManager</text><line style="stroke: #A80036; stroke-width: 1.5;" x1="7" x2="142" y1="148" y2="148"/><line style="stroke: #A80036; stroke-width: 1.5;" x1="7" x2="142" y1="156" y2="156"/><text fill="#000000" font-family="sans-serif" font-size="11" lengthAdjust="spacingAndGlyphs" textLength="71" x="26" y="170.2104">Start() : void</text><text fill="#000000" font-family="sans-serif" font-size="11" lengthAdjust="spacingAndGlyphs" textLength="83" x="26" y="183.0151">Update() : void</text><ellipse cx="17" cy="192.6094" fill="#84BE84" rx="3" ry="3" style="stroke: #038048; stroke-width: 1.0;"/><text fill="#000000" font-family="sans-serif" font-size="11" lengthAdjust="spacingAndGlyphs" textLength="72" x="26" y="195.8198">Retry() : void</text><ellipse cx="17" cy="205.4141" fill="#84BE84" rx="3" ry="3" style="stroke: #038048; stroke-width: 1.0;"/><text fill="#000000" font-family="sans-serif" font-size="11" lengthAdjust="spacingAndGlyphs" textLength="111" x="26" y="208.6245">BacktoMenu() : void</text><!--MD5=[83b3cf3d23d77c6f1e1b5291a241bc2a]
class MonoBehaviour--><rect fill="#FEFECE" filter="url(#f1hcq4khbo7fsu)" height="48" id="MonoBehaviour" style="stroke: #A80036; stroke-width: 1.5;" width="128" x="10.5" y="8"/><ellipse cx="25.5" cy="24" fill="#ADD1B2" rx="11" ry="11" style="stroke: #A80036; stroke-width: 1.0;"/><path d="M28.4688,29.6406 Q27.8906,29.9375 27.25,30.0781 Q26.6094,30.2344 25.9063,30.2344 Q23.4063,30.2344 22.0781,28.5938 Q20.7656,26.9375 20.7656,23.8125 Q20.7656,20.6875 22.0781,19.0313 Q23.4063,17.375 25.9063,17.375 Q26.6094,17.375 27.25,17.5313 Q27.9063,17.6875 28.4688,17.9844 L28.4688,20.7031 Q27.8438,20.125 27.25,19.8594 Q26.6563,19.5781 26.0313,19.5781 Q24.6875,19.5781 24,20.6563 Q23.3125,21.7188 23.3125,23.8125 Q23.3125,25.9063 24,26.9844 Q24.6875,28.0469 26.0313,28.0469 Q26.6563,28.0469 27.25,27.7813 Q27.8438,27.5 28.4688,26.9219 L28.4688,29.6406 Z "/><text fill="#000000" font-family="sans-serif" font-size="12" lengthAdjust="spacingAndGlyphs" textLength="96" x="39.5" y="28.1543">MonoBehaviour</text><line style="stroke: #A80036; stroke-width: 1.5;" x1="11.5" x2="137.5" y1="40" y2="40"/><line style="stroke: #A80036; stroke-width: 1.5;" x1="11.5" x2="137.5" y1="48" y2="48"/><!--MD5=[064f7a74fee85463ec1a30143664ee17]
class GameObject--><rect fill="#FEFECE" filter="url(#f1hcq4khbo7fsu)" height="48" id="GameObject" style="stroke: #A80036; stroke-width: 1.5;" width="108" x="20.5" y="275"/><ellipse cx="35.5" cy="291" fill="#ADD1B2" rx="11" ry="11" style="stroke: #A80036; stroke-width: 1.0;"/><path d="M38.4688,296.6406 Q37.8906,296.9375 37.25,297.0781 Q36.6094,297.2344 35.9063,297.2344 Q33.4063,297.2344 32.0781,295.5938 Q30.7656,293.9375 30.7656,290.8125 Q30.7656,287.6875 32.0781,286.0313 Q33.4063,284.375 35.9063,284.375 Q36.6094,284.375 37.25,284.5313 Q37.9063,284.6875 38.4688,284.9844 L38.4688,287.7031 Q37.8438,287.125 37.25,286.8594 Q36.6563,286.5781 36.0313,286.5781 Q34.6875,286.5781 34,287.6563 Q33.3125,288.7188 33.3125,290.8125 Q33.3125,292.9063 34,293.9844 Q34.6875,295.0469 36.0313,295.0469 Q36.6563,295.0469 37.25,294.7813 Q37.8438,294.5 38.4688,293.9219 L38.4688,296.6406 Z "/><text fill="#000000" font-family="sans-serif" font-size="12" lengthAdjust="spacingAndGlyphs" textLength="76" x="49.5" y="295.1543">GameObject</text><line style="stroke: #A80036; stroke-width: 1.5;" x1="21.5" x2="127.5" y1="307" y2="307"/><line style="stroke: #A80036; stroke-width: 1.5;" x1="21.5" x2="127.5" y1="315" y2="315"/><!--MD5=[c410863c9b5d1f501de3cfc3c5a7a87d]
reverse link MonoBehaviour to MenuManager--><path d="M74.5,76.51 C74.5,89.14 74.5,103.01 74.5,115.93 " fill="none" id="MonoBehaviour&lt;-MenuManager" style="stroke: #A80036; stroke-width: 1.0;"/><polygon fill="none" points="67.5,76.21,74.5,56.21,81.5,76.21,67.5,76.21" style="stroke: #A80036; stroke-width: 1.0;"/><!--MD5=[0a31ea7c0025862d9d3b48fbf9fba62c]
link MenuManager to GameObject--><path d="M74.5,215.09 C74.5,233.5 74.5,253.83 74.5,269.75 " fill="none" id="MenuManager-&gt;GameObject" style="stroke: #A80036; stroke-width: 1.0;"/><polygon fill="#A80036" points="74.5,274.98,78.5,265.98,74.5,269.98,70.5,265.98,74.5,274.98" style="stroke: #A80036; stroke-width: 1.0;"/><text fill="#000000" font-family="sans-serif" font-size="13" lengthAdjust="spacingAndGlyphs" textLength="39" x="30.5031" y="263.9869">target</text><!--MD5=[9f1ee52eb98482a6fd0d1b551fb867de]
@startuml
class MenuManager {
    Start() : void
    Update() : void
    + Retry() : void
    + BacktoMenu() : void
}
MonoBehaviour <|- - MenuManager
MenuManager - -> "target" GameObject
@enduml

PlantUML version 1.2020.02(Sun Mar 01 10:22:07 GMT 2020)
(GPL source distribution)
Java Runtime: OpenJDK Runtime Environment
JVM: OpenJDK 64-Bit Server VM
Java Version: 11.0.9+11-Ubuntu-0ubuntu1
Operating System: Linux
Default Encoding: ANSI_X3.4-1968
Language: en
Country: US
--></g></svg>