<?xml version="1.0" encoding="UTF-8" standalone="no"?><svg xmlns="http://www.w3.org/2000/svg" xmlns:xlink="http://www.w3.org/1999/xlink" contentScriptType="application/ecmascript" contentStyleType="text/css" height="309px" preserveAspectRatio="none" style="width:192px;height:309px;" version="1.1" viewBox="0 0 192 309" width="192px" zoomAndPan="magnify"><defs><filter height="300%" id="fdl4j3dk1c3mz" width="300%" x="-1" y="-1"><feGaussianBlur result="blurOut" stdDeviation="2.0"/><feColorMatrix in="blurOut" result="blurOut2" type="matrix" values="0 0 0 0 0 0 0 0 0 0 0 0 0 0 0 0 0 0 .4 0"/><feOffset dx="4.0" dy="4.0" in="blurOut2" result="blurOut3"/><feBlend in="SourceGraphic" in2="blurOut3" mode="normal"/></filter></defs><g><!--MD5=[3b66e3a12dd87bd1486b74e8ddc236cd]
class SoundManager--><rect fill="#FEFECE" filter="url(#fdl4j3dk1c3mz)" height="73.6094" id="SoundManager" style="stroke: #A80036; stroke-width: 1.5;" width="154" x="27" y="116"/><ellipse cx="54.15" cy="132" fill="#ADD1B2" rx="11" ry="11" style="stroke: #A80036; stroke-width: 1.0;"/><path d="M57.1188,137.6406 Q56.5406,137.9375 55.9,138.0781 Q55.2594,138.2344 54.5563,138.2344 Q52.0563,138.2344 50.7281,136.5938 Q49.4156,134.9375 49.4156,131.8125 Q49.4156,128.6875 50.7281,127.0313 Q52.0563,125.375 54.5563,125.375 Q55.2594,125.375 55.9,125.5313 Q56.5563,125.6875 57.1188,125.9844 L57.1188,128.7031 Q56.4938,128.125 55.9,127.8594 Q55.3063,127.5781 54.6813,127.5781 Q53.3375,127.5781 52.65,128.6563 Q51.9625,129.7188 51.9625,131.8125 Q51.9625,133.9063 52.65,134.9844 Q53.3375,136.0469 54.6813,136.0469 Q55.3063,136.0469 55.9,135.7813 Q56.4938,135.5 57.1188,134.9219 L57.1188,137.6406 Z "/><text fill="#000000" font-family="sans-serif" font-size="12" lengthAdjust="spacingAndGlyphs" textLength="95" x="70.85" y="136.1543">SoundManager</text><line style="stroke: #A80036; stroke-width: 1.5;" x1="28" x2="180" y1="148" y2="148"/><line style="stroke: #A80036; stroke-width: 1.5;" x1="28" x2="180" y1="156" y2="156"/><text fill="#000000" font-family="sans-serif" font-size="11" lengthAdjust="spacingAndGlyphs" textLength="71" x="47" y="170.2104">Start() : void</text><ellipse cx="38" cy="179.8047" fill="#84BE84" rx="3" ry="3" style="stroke: #038048; stroke-width: 1.0;"/><text fill="#000000" font-family="sans-serif" font-size="11" lengthAdjust="spacingAndGlyphs" textLength="128" x="47" y="183.0151">ChangeVolume() : void</text><!--MD5=[83b3cf3d23d77c6f1e1b5291a241bc2a]
class MonoBehaviour--><rect fill="#FEFECE" filter="url(#fdl4j3dk1c3mz)" height="48" id="MonoBehaviour" style="stroke: #A80036; stroke-width: 1.5;" width="128" x="40" y="8"/><ellipse cx="55" cy="24" fill="#ADD1B2" rx="11" ry="11" style="stroke: #A80036; stroke-width: 1.0;"/><path d="M57.9688,29.6406 Q57.3906,29.9375 56.75,30.0781 Q56.1094,30.2344 55.4063,30.2344 Q52.9063,30.2344 51.5781,28.5938 Q50.2656,26.9375 50.2656,23.8125 Q50.2656,20.6875 51.5781,19.0313 Q52.9063,17.375 55.4063,17.375 Q56.1094,17.375 56.75,17.5313 Q57.4063,17.6875 57.9688,17.9844 L57.9688,20.7031 Q57.3438,20.125 56.75,19.8594 Q56.1563,19.5781 55.5313,19.5781 Q54.1875,19.5781 53.5,20.6563 Q52.8125,21.7188 52.8125,23.8125 Q52.8125,25.9063 53.5,26.9844 Q54.1875,28.0469 55.5313,28.0469 Q56.1563,28.0469 56.75,27.7813 Q57.3438,27.5 57.9688,26.9219 L57.9688,29.6406 Z "/><text fill="#000000" font-family="sans-serif" font-size="12" lengthAdjust="spacingAndGlyphs" textLength="96" x="69" y="28.1543">MonoBehaviour</text><line style="stroke: #A80036; stroke-width: 1.5;" x1="41" x2="167" y1="40" y2="40"/><line style="stroke: #A80036; stroke-width: 1.5;" x1="41" x2="167" y1="48" y2="48"/><!--MD5=[5b63724585581d1714c92cb3ec182af9]
class Slider--><rect fill="#FEFECE" filter="url(#fdl4j3dk1c3mz)" height="48" id="Slider" style="stroke: #A80036; stroke-width: 1.5;" width="67" x="70.5" y="250"/><ellipse cx="85.5" cy="266" fill="#ADD1B2" rx="11" ry="11" style="stroke: #A80036; stroke-width: 1.0;"/><path d="M88.4688,271.6406 Q87.8906,271.9375 87.25,272.0781 Q86.6094,272.2344 85.9063,272.2344 Q83.4063,272.2344 82.0781,270.5938 Q80.7656,268.9375 80.7656,265.8125 Q80.7656,262.6875 82.0781,261.0313 Q83.4063,259.375 85.9063,259.375 Q86.6094,259.375 87.25,259.5313 Q87.9063,259.6875 88.4688,259.9844 L88.4688,262.7031 Q87.8438,262.125 87.25,261.8594 Q86.6563,261.5781 86.0313,261.5781 Q84.6875,261.5781 84,262.6563 Q83.3125,263.7188 83.3125,265.8125 Q83.3125,267.9063 84,268.9844 Q84.6875,270.0469 86.0313,270.0469 Q86.6563,270.0469 87.25,269.7813 Q87.8438,269.5 88.4688,268.9219 L88.4688,271.6406 Z "/><text fill="#000000" font-family="sans-serif" font-size="12" lengthAdjust="spacingAndGlyphs" textLength="35" x="99.5" y="270.1543">Slider</text><line style="stroke: #A80036; stroke-width: 1.5;" x1="71.5" x2="136.5" y1="282" y2="282"/><line style="stroke: #A80036; stroke-width: 1.5;" x1="71.5" x2="136.5" y1="290" y2="290"/><!--MD5=[93e92d52039a26ac54871c82cfe3d689]
reverse link MonoBehaviour to SoundManager--><path d="M104,76.43 C104,89.33 104,103.32 104,115.71 " fill="none" id="MonoBehaviour&lt;-SoundManager" style="stroke: #A80036; stroke-width: 1.0;"/><polygon fill="none" points="97,76.23,104,56.23,111,76.23,97,76.23" style="stroke: #A80036; stroke-width: 1.0;"/><!--MD5=[4c7d95b7b163bfa6cb430f6c080ac3e6]
link SoundManager to Slider--><path d="M104,190.03 C104,207.48 104,228.15 104,244.49 " fill="none" id="SoundManager-&gt;Slider" style="stroke: #A80036; stroke-width: 1.0;"/><polygon fill="#A80036" points="104,249.85,108,240.85,104,244.85,100,240.85,104,249.85" style="stroke: #A80036; stroke-width: 1.0;"/><text fill="#000000" font-family="sans-serif" font-size="13" lengthAdjust="spacingAndGlyphs" textLength="83" x="10.3656" y="238.8236">volumeSlider</text><!--MD5=[525de638449a07cd6e52514aeba37b54]
@startuml
class SoundManager {
    Start() : void
    + ChangeVolume() : void
}
MonoBehaviour <|- - SoundManager
SoundManager - -> "volumeSlider" Slider
@enduml

PlantUML version 1.2020.02(Sun Mar 01 10:22:07 GMT 2020)
(GPL source distribution)
Java Runtime: OpenJDK Runtime Environment
JVM: OpenJDK 64-Bit Server VM
Java Version: 11.0.9+11-Ubuntu-0ubuntu1
Operating System: Linux
Default Encoding: ANSI_X3.4-1968
Language: en
Country: US
--></g></svg>