<?xml version="1.0" encoding="UTF-8" standalone="no"?><svg xmlns="http://www.w3.org/2000/svg" xmlns:xlink="http://www.w3.org/1999/xlink" contentScriptType="application/ecmascript" contentStyleType="text/css" height="334px" preserveAspectRatio="none" style="width:171px;height:334px;" version="1.1" viewBox="0 0 171 334" width="171px" zoomAndPan="magnify"><defs><filter height="300%" id="fh3z8ffb1l87w" width="300%" x="-1" y="-1"><feGaussianBlur result="blurOut" stdDeviation="2.0"/><feColorMatrix in="blurOut" result="blurOut2" type="matrix" values="0 0 0 0 0 0 0 0 0 0 0 0 0 0 0 0 0 0 .4 0"/><feOffset dx="4.0" dy="4.0" in="blurOut2" result="blurOut3"/><feBlend in="SourceGraphic" in2="blurOut3" mode="normal"/></filter></defs><g><!--MD5=[d95c0bf92c7bf6bdea7dc6ebddf3375a]
class AITarget--><rect fill="#FEFECE" filter="url(#fh3z8ffb1l87w)" height="99.2188" id="AITarget" style="stroke: #A80036; stroke-width: 1.5;" width="127" x="19.5" y="116"/><ellipse cx="53.85" cy="132" fill="#ADD1B2" rx="11" ry="11" style="stroke: #A80036; stroke-width: 1.0;"/><path d="M56.8188,137.6406 Q56.2406,137.9375 55.6,138.0781 Q54.9594,138.2344 54.2563,138.2344 Q51.7563,138.2344 50.4281,136.5938 Q49.1156,134.9375 49.1156,131.8125 Q49.1156,128.6875 50.4281,127.0313 Q51.7563,125.375 54.2563,125.375 Q54.9594,125.375 55.6,125.5313 Q56.2563,125.6875 56.8188,125.9844 L56.8188,128.7031 Q56.1938,128.125 55.6,127.8594 Q55.0063,127.5781 54.3813,127.5781 Q53.0375,127.5781 52.35,128.6563 Q51.6625,129.7188 51.6625,131.8125 Q51.6625,133.9063 52.35,134.9844 Q53.0375,136.0469 54.3813,136.0469 Q55.0063,136.0469 55.6,135.7813 Q56.1938,135.5 56.8188,134.9219 L56.8188,137.6406 Z "/><text fill="#000000" font-family="sans-serif" font-size="12" lengthAdjust="spacingAndGlyphs" textLength="52" x="72.15" y="136.1543">AITarget</text><line style="stroke: #A80036; stroke-width: 1.5;" x1="20.5" x2="145.5" y1="148" y2="148"/><line style="stroke: #A80036; stroke-width: 1.5;" x1="20.5" x2="145.5" y1="156" y2="156"/><text fill="#000000" font-family="sans-serif" font-size="11" lengthAdjust="spacingAndGlyphs" textLength="71" x="39.5" y="170.2104">Start() : void</text><text fill="#000000" font-family="sans-serif" font-size="11" lengthAdjust="spacingAndGlyphs" textLength="83" x="39.5" y="183.0151">Update() : void</text><ellipse cx="30.5" cy="192.6094" fill="#84BE84" rx="3" ry="3" style="stroke: #038048; stroke-width: 1.0;"/><text fill="#000000" font-family="sans-serif" font-size="11" lengthAdjust="spacingAndGlyphs" textLength="97" x="39.5" y="195.8198">OnEnable() : void</text><ellipse cx="30.5" cy="205.4141" fill="#84BE84" rx="3" ry="3" style="stroke: #038048; stroke-width: 1.0;"/><text fill="#000000" font-family="sans-serif" font-size="11" lengthAdjust="spacingAndGlyphs" textLength="101" x="39.5" y="208.6245">OnDisable() : void</text><!--MD5=[e28423a5e760c2ffe851eb59bd237cb0]
class AIDestinationSetter--><rect fill="#FEFECE" filter="url(#fh3z8ffb1l87w)" height="48" id="AIDestinationSetter" style="stroke: #A80036; stroke-width: 1.5;" width="154" x="6" y="8"/><ellipse cx="21" cy="24" fill="#ADD1B2" rx="11" ry="11" style="stroke: #A80036; stroke-width: 1.0;"/><path d="M23.9688,29.6406 Q23.3906,29.9375 22.75,30.0781 Q22.1094,30.2344 21.4063,30.2344 Q18.9063,30.2344 17.5781,28.5938 Q16.2656,26.9375 16.2656,23.8125 Q16.2656,20.6875 17.5781,19.0313 Q18.9063,17.375 21.4063,17.375 Q22.1094,17.375 22.75,17.5313 Q23.4063,17.6875 23.9688,17.9844 L23.9688,20.7031 Q23.3438,20.125 22.75,19.8594 Q22.1563,19.5781 21.5313,19.5781 Q20.1875,19.5781 19.5,20.6563 Q18.8125,21.7188 18.8125,23.8125 Q18.8125,25.9063 19.5,26.9844 Q20.1875,28.0469 21.5313,28.0469 Q22.1563,28.0469 22.75,27.7813 Q23.3438,27.5 23.9688,26.9219 L23.9688,29.6406 Z "/><text fill="#000000" font-family="sans-serif" font-size="12" lengthAdjust="spacingAndGlyphs" textLength="122" x="35" y="28.1543">AIDestinationSetter</text><line style="stroke: #A80036; stroke-width: 1.5;" x1="7" x2="159" y1="40" y2="40"/><line style="stroke: #A80036; stroke-width: 1.5;" x1="7" x2="159" y1="48" y2="48"/><!--MD5=[435205f731df39e1f6d46e586574433f]
class IAstarAI--><rect fill="#FEFECE" filter="url(#fh3z8ffb1l87w)" height="48" id="IAstarAI" style="stroke: #A80036; stroke-width: 1.5;" width="79" x="43.5" y="275"/><ellipse cx="58.5" cy="291" fill="#ADD1B2" rx="11" ry="11" style="stroke: #A80036; stroke-width: 1.0;"/><path d="M61.4688,296.6406 Q60.8906,296.9375 60.25,297.0781 Q59.6094,297.2344 58.9063,297.2344 Q56.4063,297.2344 55.0781,295.5938 Q53.7656,293.9375 53.7656,290.8125 Q53.7656,287.6875 55.0781,286.0313 Q56.4063,284.375 58.9063,284.375 Q59.6094,284.375 60.25,284.5313 Q60.9063,284.6875 61.4688,284.9844 L61.4688,287.7031 Q60.8438,287.125 60.25,286.8594 Q59.6563,286.5781 59.0313,286.5781 Q57.6875,286.5781 57,287.6563 Q56.3125,288.7188 56.3125,290.8125 Q56.3125,292.9063 57,293.9844 Q57.6875,295.0469 59.0313,295.0469 Q59.6563,295.0469 60.25,294.7813 Q60.8438,294.5 61.4688,293.9219 L61.4688,296.6406 Z "/><text fill="#000000" font-family="sans-serif" font-size="12" lengthAdjust="spacingAndGlyphs" textLength="47" x="72.5" y="295.1543">IAstarAI</text><line style="stroke: #A80036; stroke-width: 1.5;" x1="44.5" x2="121.5" y1="307" y2="307"/><line style="stroke: #A80036; stroke-width: 1.5;" x1="44.5" x2="121.5" y1="315" y2="315"/><!--MD5=[acf1aa382581b1520bbc2240ccd621d6]
reverse link AIDestinationSetter to AITarget--><path d="M83,76.51 C83,89.14 83,103.01 83,115.93 " fill="none" id="AIDestinationSetter&lt;-AITarget" style="stroke: #A80036; stroke-width: 1.0;"/><polygon fill="none" points="76,76.21,83,56.21,90,76.21,76,76.21" style="stroke: #A80036; stroke-width: 1.0;"/><!--MD5=[b3422545e3c509c4404def0daf1e5d93]
link AITarget to IAstarAI--><path d="M83,215.09 C83,233.5 83,253.83 83,269.75 " fill="none" id="AITarget-&gt;IAstarAI" style="stroke: #A80036; stroke-width: 1.0;"/><polygon fill="#A80036" points="83,274.98,87,265.98,83,269.98,79,265.98,83,274.98" style="stroke: #A80036; stroke-width: 1.0;"/><text fill="#000000" font-family="sans-serif" font-size="13" lengthAdjust="spacingAndGlyphs" textLength="11" x="70.5906" y="263.9869">ai</text><!--MD5=[f8ca2a27378a62cfb157e0f588f28746]
@startuml
class AITarget {
    Start() : void
    Update() : void
    + OnEnable() : void
    + OnDisable() : void
}
AIDestinationSetter <|- - AITarget
AITarget - -> "ai" IAstarAI
@enduml

PlantUML version 1.2020.02(Sun Mar 01 10:22:07 GMT 2020)
(GPL source distribution)
Java Runtime: OpenJDK Runtime Environment
JVM: OpenJDK 64-Bit Server VM
Java Version: 11.0.9+11-Ubuntu-0ubuntu1
Operating System: Linux
Default Encoding: ANSI_X3.4-1968
Language: en
Country: US
--></g></svg>