<?xml version="1.0" encoding="UTF-8" standalone="no"?><svg xmlns="http://www.w3.org/2000/svg" xmlns:xlink="http://www.w3.org/1999/xlink" contentScriptType="application/ecmascript" contentStyleType="text/css" height="360px" preserveAspectRatio="none" style="width:270px;height:360px;" version="1.1" viewBox="0 0 270 360" width="270px" zoomAndPan="magnify"><defs><filter height="300%" id="f1nsty3bqh66ne" width="300%" x="-1" y="-1"><feGaussianBlur result="blurOut" stdDeviation="2.0"/><feColorMatrix in="blurOut" result="blurOut2" type="matrix" values="0 0 0 0 0 0 0 0 0 0 0 0 0 0 0 0 0 0 .4 0"/><feOffset dx="4.0" dy="4.0" in="blurOut2" result="blurOut3"/><feBlend in="SourceGraphic" in2="blurOut3" mode="normal"/></filter></defs><g><!--MD5=[0dc786e856daa36066428f0c7bb11cf6]
class frontMonster--><rect fill="#FEFECE" filter="url(#f1nsty3bqh66ne)" height="124.8281" id="frontMonster" style="stroke: #A80036; stroke-width: 1.5;" width="180" x="6" y="116"/><ellipse cx="51.25" cy="132" fill="#ADD1B2" rx="11" ry="11" style="stroke: #A80036; stroke-width: 1.0;"/><path d="M54.2188,137.6406 Q53.6406,137.9375 53,138.0781 Q52.3594,138.2344 51.6563,138.2344 Q49.1563,138.2344 47.8281,136.5938 Q46.5156,134.9375 46.5156,131.8125 Q46.5156,128.6875 47.8281,127.0313 Q49.1563,125.375 51.6563,125.375 Q52.3594,125.375 53,125.5313 Q53.6563,125.6875 54.2188,125.9844 L54.2188,128.7031 Q53.5938,128.125 53,127.8594 Q52.4063,127.5781 51.7813,127.5781 Q50.4375,127.5781 49.75,128.6563 Q49.0625,129.7188 49.0625,131.8125 Q49.0625,133.9063 49.75,134.9844 Q50.4375,136.0469 51.7813,136.0469 Q52.4063,136.0469 53,135.7813 Q53.5938,135.5 54.2188,134.9219 L54.2188,137.6406 Z "/><text fill="#000000" font-family="sans-serif" font-size="12" lengthAdjust="spacingAndGlyphs" textLength="81" x="71.75" y="136.1543">frontMonster</text><line style="stroke: #A80036; stroke-width: 1.5;" x1="7" x2="185" y1="148" y2="148"/><ellipse cx="17" cy="159" fill="none" rx="3" ry="3" style="stroke: #038048; stroke-width: 1.0;"/><text fill="#000000" font-family="sans-serif" font-size="11" lengthAdjust="spacingAndGlyphs" textLength="134" x="26" y="162.2104">attackRange : float = 1f</text><ellipse cx="17" cy="171.8047" fill="none" rx="3" ry="3" style="stroke: #038048; stroke-width: 1.0;"/><text fill="#000000" font-family="sans-serif" font-size="11" lengthAdjust="spacingAndGlyphs" textLength="124" x="26" y="175.0151">attackRate : float = 1f</text><ellipse cx="17" cy="184.6094" fill="none" rx="3" ry="3" style="stroke: #038048; stroke-width: 1.0;"/><text fill="#000000" font-family="sans-serif" font-size="11" lengthAdjust="spacingAndGlyphs" textLength="154" x="26" y="187.8198">attackCooldown : float = 0f</text><line style="stroke: #A80036; stroke-width: 1.5;" x1="7" x2="185" y1="194.4141" y2="194.4141"/><ellipse cx="17" cy="205.4141" fill="#84BE84" rx="3" ry="3" style="stroke: #038048; stroke-width: 1.0;"/><text fill="#000000" font-family="sans-serif" font-size="11" lengthAdjust="spacingAndGlyphs" textLength="112" x="26" y="208.6245">«new» Start() : void</text><ellipse cx="17" cy="218.2188" fill="#84BE84" rx="3" ry="3" style="stroke: #038048; stroke-width: 1.0;"/><text fill="#000000" font-family="sans-serif" font-size="11" lengthAdjust="spacingAndGlyphs" textLength="124" x="26" y="221.4292">«new» Update() : void</text><text fill="#000000" font-family="sans-serif" font-size="11" lengthAdjust="spacingAndGlyphs" textLength="77" x="26" y="234.2339">Attack() : void</text><!--MD5=[2a578774cf62b55b7b7066481117dcd5]
class AIPath--><rect fill="#FEFECE" filter="url(#f1nsty3bqh66ne)" height="48" id="AIPath" style="stroke: #A80036; stroke-width: 1.5;" width="72" x="60" y="8"/><ellipse cx="75" cy="24" fill="#ADD1B2" rx="11" ry="11" style="stroke: #A80036; stroke-width: 1.0;"/><path d="M77.9688,29.6406 Q77.3906,29.9375 76.75,30.0781 Q76.1094,30.2344 75.4063,30.2344 Q72.9063,30.2344 71.5781,28.5938 Q70.2656,26.9375 70.2656,23.8125 Q70.2656,20.6875 71.5781,19.0313 Q72.9063,17.375 75.4063,17.375 Q76.1094,17.375 76.75,17.5313 Q77.4063,17.6875 77.9688,17.9844 L77.9688,20.7031 Q77.3438,20.125 76.75,19.8594 Q76.1563,19.5781 75.5313,19.5781 Q74.1875,19.5781 73.5,20.6563 Q72.8125,21.7188 72.8125,23.8125 Q72.8125,25.9063 73.5,26.9844 Q74.1875,28.0469 75.5313,28.0469 Q76.1563,28.0469 76.75,27.7813 Q77.3438,27.5 77.9688,26.9219 L77.9688,29.6406 Z "/><text fill="#000000" font-family="sans-serif" font-size="12" lengthAdjust="spacingAndGlyphs" textLength="40" x="89" y="28.1543">AIPath</text><line style="stroke: #A80036; stroke-width: 1.5;" x1="61" x2="131" y1="40" y2="40"/><line style="stroke: #A80036; stroke-width: 1.5;" x1="61" x2="131" y1="48" y2="48"/><!--MD5=[004b1d6c4ca8aad4ba8b586a335ed4f3]
class Transform--><rect fill="#FEFECE" filter="url(#f1nsty3bqh66ne)" height="48" id="Transform" style="stroke: #A80036; stroke-width: 1.5;" width="95" x="48.5" y="301"/><ellipse cx="63.5" cy="317" fill="#ADD1B2" rx="11" ry="11" style="stroke: #A80036; stroke-width: 1.0;"/><path d="M66.4688,322.6406 Q65.8906,322.9375 65.25,323.0781 Q64.6094,323.2344 63.9063,323.2344 Q61.4063,323.2344 60.0781,321.5938 Q58.7656,319.9375 58.7656,316.8125 Q58.7656,313.6875 60.0781,312.0313 Q61.4063,310.375 63.9063,310.375 Q64.6094,310.375 65.25,310.5313 Q65.9063,310.6875 66.4688,310.9844 L66.4688,313.7031 Q65.8438,313.125 65.25,312.8594 Q64.6563,312.5781 64.0313,312.5781 Q62.6875,312.5781 62,313.6563 Q61.3125,314.7188 61.3125,316.8125 Q61.3125,318.9063 62,319.9844 Q62.6875,321.0469 64.0313,321.0469 Q64.6563,321.0469 65.25,320.7813 Q65.8438,320.5 66.4688,319.9219 L66.4688,322.6406 Z "/><text fill="#000000" font-family="sans-serif" font-size="12" lengthAdjust="spacingAndGlyphs" textLength="63" x="77.5" y="321.1543">Transform</text><line style="stroke: #A80036; stroke-width: 1.5;" x1="49.5" x2="142.5" y1="333" y2="333"/><line style="stroke: #A80036; stroke-width: 1.5;" x1="49.5" x2="142.5" y1="341" y2="341"/><!--MD5=[65d619c042c23702cef2ca07d67b1cf6]
class Vector3--><rect fill="#FEFECE" filter="url(#f1nsty3bqh66ne)" height="48" id="Vector3" style="stroke: #A80036; stroke-width: 1.5;" width="81" x="178.5" y="301"/><ellipse cx="193.5" cy="317" fill="#ADD1B2" rx="11" ry="11" style="stroke: #A80036; stroke-width: 1.0;"/><path d="M196.4688,322.6406 Q195.8906,322.9375 195.25,323.0781 Q194.6094,323.2344 193.9063,323.2344 Q191.4063,323.2344 190.0781,321.5938 Q188.7656,319.9375 188.7656,316.8125 Q188.7656,313.6875 190.0781,312.0313 Q191.4063,310.375 193.9063,310.375 Q194.6094,310.375 195.25,310.5313 Q195.9063,310.6875 196.4688,310.9844 L196.4688,313.7031 Q195.8438,313.125 195.25,312.8594 Q194.6563,312.5781 194.0313,312.5781 Q192.6875,312.5781 192,313.6563 Q191.3125,314.7188 191.3125,316.8125 Q191.3125,318.9063 192,319.9844 Q192.6875,321.0469 194.0313,321.0469 Q194.6563,321.0469 195.25,320.7813 Q195.8438,320.5 196.4688,319.9219 L196.4688,322.6406 Z "/><text fill="#000000" font-family="sans-serif" font-size="12" lengthAdjust="spacingAndGlyphs" textLength="49" x="207.5" y="321.1543">Vector3</text><line style="stroke: #A80036; stroke-width: 1.5;" x1="179.5" x2="258.5" y1="333" y2="333"/><line style="stroke: #A80036; stroke-width: 1.5;" x1="179.5" x2="258.5" y1="341" y2="341"/><!--MD5=[5db61714e60b53b9ce23b23bd9538baa]
reverse link AIPath to frontMonster--><path d="M96,76.67 C96,89.05 96,102.77 96,115.99 " fill="none" id="AIPath&lt;-frontMonster" style="stroke: #A80036; stroke-width: 1.0;"/><polygon fill="none" points="89,76.22,96,56.22,103,76.22,89,76.22" style="stroke: #A80036; stroke-width: 1.0;"/><!--MD5=[304f1a8764ce200ef8f7df104301395f]
link frontMonster to Transform--><path d="M83.37,241.2 C82.93,260.22 83.69,280.24 85.65,295.83 " fill="none" id="frontMonster-&gt;Transform" style="stroke: #A80036; stroke-width: 1.0;"/><polygon fill="#A80036" points="86.36,300.94,89.0623,291.4691,85.6609,295.9891,81.1409,292.5877,86.36,300.94" style="stroke: #A80036; stroke-width: 1.0;"/><text fill="#000000" font-family="sans-serif" font-size="13" lengthAdjust="spacingAndGlyphs" textLength="30" x="50.046" y="289.9367">front</text><!--MD5=[304f1a8764ce200ef8f7df104301395f]
link frontMonster to Transform--><path d="M109.37,241.2 C109.84,260.22 109.03,280.24 106.96,295.83 " fill="none" id="frontMonster-&gt;Transform-1" style="stroke: #A80036; stroke-width: 1.0;"/><polygon fill="#A80036" points="106.2,300.94,111.4662,292.6173,106.9271,295.9931,103.5512,291.454,106.2,300.94" style="stroke: #A80036; stroke-width: 1.0;"/><text fill="#000000" font-family="sans-serif" font-size="13" lengthAdjust="spacingAndGlyphs" textLength="39" x="113.8106" y="289.9367">player</text><!--MD5=[ff460d9d51d97c2a31a0501722dd4c8b]
link frontMonster to Vector3--><path d="M148.52,241.2 C165.13,260.72 182.64,281.28 196.05,297.04 " fill="none" id="frontMonster-&gt;Vector3" style="stroke: #A80036; stroke-width: 1.0;"/><polygon fill="#A80036" points="199.37,300.94,196.5879,291.4923,196.1313,297.1307,190.4929,296.6741,199.37,300.94" style="stroke: #A80036; stroke-width: 1.0;"/><text fill="#000000" font-family="sans-serif" font-size="13" lengthAdjust="spacingAndGlyphs" textLength="57" x="201.6429" y="289.9367">noTarget</text><!--MD5=[4b7abcb9b882582ba818b533f615c324]
@startuml
class frontMonster {
    + attackRange : float = 1f
    + attackRate : float = 1f
    + attackCooldown : float = 0f
    + <<new>> Start() : void
    + <<new>> Update() : void
    Attack() : void
}
AIPath <|- - frontMonster
frontMonster - -> "front" Transform
frontMonster - -> "player" Transform
frontMonster - -> "noTarget" Vector3
@enduml

PlantUML version 1.2020.02(Sun Mar 01 10:22:07 GMT 2020)
(GPL source distribution)
Java Runtime: OpenJDK Runtime Environment
JVM: OpenJDK 64-Bit Server VM
Java Version: 11.0.9+11-Ubuntu-0ubuntu1
Operating System: Linux
Default Encoding: ANSI_X3.4-1968
Language: en
Country: US
--></g></svg>