<?xml version="1.0" encoding="UTF-8" standalone="no"?><svg xmlns="http://www.w3.org/2000/svg" xmlns:xlink="http://www.w3.org/1999/xlink" contentScriptType="application/ecmascript" contentStyleType="text/css" height="360px" preserveAspectRatio="none" style="width:197px;height:360px;" version="1.1" viewBox="0 0 197 360" width="197px" zoomAndPan="magnify"><defs><filter height="300%" id="f980b3rttnt7r" width="300%" x="-1" y="-1"><feGaussianBlur result="blurOut" stdDeviation="2.0"/><feColorMatrix in="blurOut" result="blurOut2" type="matrix" values="0 0 0 0 0 0 0 0 0 0 0 0 0 0 0 0 0 0 .4 0"/><feOffset dx="4.0" dy="4.0" in="blurOut2" result="blurOut3"/><feBlend in="SourceGraphic" in2="blurOut3" mode="normal"/></filter></defs><g><!--MD5=[c2c334e465a507549e2aeb585651f6a7]
class MonsterAI--><rect fill="#FEFECE" filter="url(#f980b3rttnt7r)" height="124.8281" id="MonsterAI" style="stroke: #A80036; stroke-width: 1.5;" width="180" x="6" y="116"/><ellipse cx="60.75" cy="132" fill="#ADD1B2" rx="11" ry="11" style="stroke: #A80036; stroke-width: 1.0;"/><path d="M63.7188,137.6406 Q63.1406,137.9375 62.5,138.0781 Q61.8594,138.2344 61.1563,138.2344 Q58.6563,138.2344 57.3281,136.5938 Q56.0156,134.9375 56.0156,131.8125 Q56.0156,128.6875 57.3281,127.0313 Q58.6563,125.375 61.1563,125.375 Q61.8594,125.375 62.5,125.5313 Q63.1563,125.6875 63.7188,125.9844 L63.7188,128.7031 Q63.0938,128.125 62.5,127.8594 Q61.9063,127.5781 61.2813,127.5781 Q59.9375,127.5781 59.25,128.6563 Q58.5625,129.7188 58.5625,131.8125 Q58.5625,133.9063 59.25,134.9844 Q59.9375,136.0469 61.2813,136.0469 Q61.9063,136.0469 62.5,135.7813 Q63.0938,135.5 63.7188,134.9219 L63.7188,137.6406 Z "/><text fill="#000000" font-family="sans-serif" font-size="12" lengthAdjust="spacingAndGlyphs" textLength="62" x="81.25" y="136.1543">MonsterAI</text><line style="stroke: #A80036; stroke-width: 1.5;" x1="7" x2="185" y1="148" y2="148"/><ellipse cx="17" cy="159" fill="none" rx="3" ry="3" style="stroke: #038048; stroke-width: 1.0;"/><text fill="#000000" font-family="sans-serif" font-size="11" lengthAdjust="spacingAndGlyphs" textLength="134" x="26" y="162.2104">attackRange : float = 1f</text><ellipse cx="17" cy="171.8047" fill="none" rx="3" ry="3" style="stroke: #038048; stroke-width: 1.0;"/><text fill="#000000" font-family="sans-serif" font-size="11" lengthAdjust="spacingAndGlyphs" textLength="124" x="26" y="175.0151">attackRate : float = 1f</text><ellipse cx="17" cy="184.6094" fill="none" rx="3" ry="3" style="stroke: #038048; stroke-width: 1.0;"/><text fill="#000000" font-family="sans-serif" font-size="11" lengthAdjust="spacingAndGlyphs" textLength="154" x="26" y="187.8198">attackCooldown : float = 0f</text><line style="stroke: #A80036; stroke-width: 1.5;" x1="7" x2="185" y1="194.4141" y2="194.4141"/><ellipse cx="17" cy="205.4141" fill="#84BE84" rx="3" ry="3" style="stroke: #038048; stroke-width: 1.0;"/><text fill="#000000" font-family="sans-serif" font-size="11" lengthAdjust="spacingAndGlyphs" textLength="112" x="26" y="208.6245">«new» Start() : void</text><ellipse cx="17" cy="218.2188" fill="#84BE84" rx="3" ry="3" style="stroke: #038048; stroke-width: 1.0;"/><text fill="#000000" font-family="sans-serif" font-size="11" lengthAdjust="spacingAndGlyphs" textLength="124" x="26" y="221.4292">«new» Update() : void</text><text fill="#000000" font-family="sans-serif" font-size="11" lengthAdjust="spacingAndGlyphs" textLength="77" x="26" y="234.2339">Attack() : void</text><!--MD5=[2a578774cf62b55b7b7066481117dcd5]
class AIPath--><rect fill="#FEFECE" filter="url(#f980b3rttnt7r)" height="48" id="AIPath" style="stroke: #A80036; stroke-width: 1.5;" width="72" x="60" y="8"/><ellipse cx="75" cy="24" fill="#ADD1B2" rx="11" ry="11" style="stroke: #A80036; stroke-width: 1.0;"/><path d="M77.9688,29.6406 Q77.3906,29.9375 76.75,30.0781 Q76.1094,30.2344 75.4063,30.2344 Q72.9063,30.2344 71.5781,28.5938 Q70.2656,26.9375 70.2656,23.8125 Q70.2656,20.6875 71.5781,19.0313 Q72.9063,17.375 75.4063,17.375 Q76.1094,17.375 76.75,17.5313 Q77.4063,17.6875 77.9688,17.9844 L77.9688,20.7031 Q77.3438,20.125 76.75,19.8594 Q76.1563,19.5781 75.5313,19.5781 Q74.1875,19.5781 73.5,20.6563 Q72.8125,21.7188 72.8125,23.8125 Q72.8125,25.9063 73.5,26.9844 Q74.1875,28.0469 75.5313,28.0469 Q76.1563,28.0469 76.75,27.7813 Q77.3438,27.5 77.9688,26.9219 L77.9688,29.6406 Z "/><text fill="#000000" font-family="sans-serif" font-size="12" lengthAdjust="spacingAndGlyphs" textLength="40" x="89" y="28.1543">AIPath</text><line style="stroke: #A80036; stroke-width: 1.5;" x1="61" x2="131" y1="40" y2="40"/><line style="stroke: #A80036; stroke-width: 1.5;" x1="61" x2="131" y1="48" y2="48"/><!--MD5=[65d619c042c23702cef2ca07d67b1cf6]
class Vector3--><rect fill="#FEFECE" filter="url(#f980b3rttnt7r)" height="48" id="Vector3" style="stroke: #A80036; stroke-width: 1.5;" width="81" x="55.5" y="301"/><ellipse cx="70.5" cy="317" fill="#ADD1B2" rx="11" ry="11" style="stroke: #A80036; stroke-width: 1.0;"/><path d="M73.4688,322.6406 Q72.8906,322.9375 72.25,323.0781 Q71.6094,323.2344 70.9063,323.2344 Q68.4063,323.2344 67.0781,321.5938 Q65.7656,319.9375 65.7656,316.8125 Q65.7656,313.6875 67.0781,312.0313 Q68.4063,310.375 70.9063,310.375 Q71.6094,310.375 72.25,310.5313 Q72.9063,310.6875 73.4688,310.9844 L73.4688,313.7031 Q72.8438,313.125 72.25,312.8594 Q71.6563,312.5781 71.0313,312.5781 Q69.6875,312.5781 69,313.6563 Q68.3125,314.7188 68.3125,316.8125 Q68.3125,318.9063 69,319.9844 Q69.6875,321.0469 71.0313,321.0469 Q71.6563,321.0469 72.25,320.7813 Q72.8438,320.5 73.4688,319.9219 L73.4688,322.6406 Z "/><text fill="#000000" font-family="sans-serif" font-size="12" lengthAdjust="spacingAndGlyphs" textLength="49" x="84.5" y="321.1543">Vector3</text><line style="stroke: #A80036; stroke-width: 1.5;" x1="56.5" x2="135.5" y1="333" y2="333"/><line style="stroke: #A80036; stroke-width: 1.5;" x1="56.5" x2="135.5" y1="341" y2="341"/><!--MD5=[aa0ab44ce1fdb02fc71739fad5b69b7e]
reverse link AIPath to MonsterAI--><path d="M96,76.67 C96,89.05 96,102.77 96,115.99 " fill="none" id="AIPath&lt;-MonsterAI" style="stroke: #A80036; stroke-width: 1.0;"/><polygon fill="none" points="89,76.22,96,56.22,103,76.22,89,76.22" style="stroke: #A80036; stroke-width: 1.0;"/><!--MD5=[789ccb530dc8a0116933dc90d8831e0d]
link MonsterAI to Vector3--><path d="M96,241.2 C96,260.22 96,280.24 96,295.83 " fill="none" id="MonsterAI-&gt;Vector3" style="stroke: #A80036; stroke-width: 1.0;"/><polygon fill="#A80036" points="96,300.94,100,291.94,96,295.94,92,291.94,96,300.94" style="stroke: #A80036; stroke-width: 1.0;"/><text fill="#000000" font-family="sans-serif" font-size="13" lengthAdjust="spacingAndGlyphs" textLength="57" x="31.6969" y="289.9367">noTarget</text><!--MD5=[851abba0d220f754b6c3eed44e1ef0bc]
@startuml
class MonsterAI {
    + attackRange : float = 1f
    + attackRate : float = 1f
    + attackCooldown : float = 0f
    + <<new>> Start() : void
    + <<new>> Update() : void
    Attack() : void
}
AIPath <|- - MonsterAI
MonsterAI - -> "noTarget" Vector3
@enduml

PlantUML version 1.2020.02(Sun Mar 01 10:22:07 GMT 2020)
(GPL source distribution)
Java Runtime: OpenJDK Runtime Environment
JVM: OpenJDK 64-Bit Server VM
Java Version: 11.0.9+11-Ubuntu-0ubuntu1
Operating System: Linux
Default Encoding: ANSI_X3.4-1968
Language: en
Country: US
--></g></svg>