<?xml version="1.0" encoding="UTF-8" standalone="no"?><svg xmlns="http://www.w3.org/2000/svg" xmlns:xlink="http://www.w3.org/1999/xlink" contentScriptType="application/ecmascript" contentStyleType="text/css" height="213px" preserveAspectRatio="none" style="width:168px;height:213px;" version="1.1" viewBox="0 0 168 213" width="168px" zoomAndPan="magnify"><defs><filter height="300%" id="f1buftmn1hl3oy" width="300%" x="-1" y="-1"><feGaussianBlur result="blurOut" stdDeviation="2.0"/><feColorMatrix in="blurOut" result="blurOut2" type="matrix" values="0 0 0 0 0 0 0 0 0 0 0 0 0 0 0 0 0 0 .4 0"/><feOffset dx="4.0" dy="4.0" in="blurOut2" result="blurOut3"/><feBlend in="SourceGraphic" in2="blurOut3" mode="normal"/></filter></defs><g><!--MD5=[ce4de624be6568e67434f6a747ec9e77]
class Rand--><rect fill="#FEFECE" filter="url(#f1buftmn1hl3oy)" height="86.4141" id="Rand" style="stroke: #A80036; stroke-width: 1.5;" width="151" x="6" y="116"/><ellipse cx="61.25" cy="132" fill="#ADD1B2" rx="11" ry="11" style="stroke: #A80036; stroke-width: 1.0;"/><path d="M64.2188,137.6406 Q63.6406,137.9375 63,138.0781 Q62.3594,138.2344 61.6563,138.2344 Q59.1563,138.2344 57.8281,136.5938 Q56.5156,134.9375 56.5156,131.8125 Q56.5156,128.6875 57.8281,127.0313 Q59.1563,125.375 61.6563,125.375 Q62.3594,125.375 63,125.5313 Q63.6563,125.6875 64.2188,125.9844 L64.2188,128.7031 Q63.5938,128.125 63,127.8594 Q62.4063,127.5781 61.7813,127.5781 Q60.4375,127.5781 59.75,128.6563 Q59.0625,129.7188 59.0625,131.8125 Q59.0625,133.9063 59.75,134.9844 Q60.4375,136.0469 61.7813,136.0469 Q62.4063,136.0469 63,135.7813 Q63.5938,135.5 64.2188,134.9219 L64.2188,137.6406 Z "/><text fill="#000000" font-family="sans-serif" font-size="12" lengthAdjust="spacingAndGlyphs" textLength="32" x="81.75" y="136.1543">Rand</text><line style="stroke: #A80036; stroke-width: 1.5;" x1="7" x2="156" y1="148" y2="148"/><ellipse cx="17" cy="159" fill="none" rx="3" ry="3" style="stroke: #038048; stroke-width: 1.0;"/><text fill="#000000" font-family="sans-serif" font-size="11" lengthAdjust="spacingAndGlyphs" textLength="101" x="26" y="162.2104">period : float = 5f</text><line style="stroke: #A80036; stroke-width: 1.5;" x1="7" x2="156" y1="168.8047" y2="168.8047"/><text fill="#000000" font-family="sans-serif" font-size="11" lengthAdjust="spacingAndGlyphs" textLength="83" x="12" y="183.0151">Update() : void</text><text fill="#000000" font-family="sans-serif" font-size="11" lengthAdjust="spacingAndGlyphs" textLength="139" x="12" y="195.8198">randomAPosition() : void</text><!--MD5=[83b3cf3d23d77c6f1e1b5291a241bc2a]
class MonoBehaviour--><rect fill="#FEFECE" filter="url(#f1buftmn1hl3oy)" height="48" id="MonoBehaviour" style="stroke: #A80036; stroke-width: 1.5;" width="128" x="17.5" y="8"/><ellipse cx="32.5" cy="24" fill="#ADD1B2" rx="11" ry="11" style="stroke: #A80036; stroke-width: 1.0;"/><path d="M35.4688,29.6406 Q34.8906,29.9375 34.25,30.0781 Q33.6094,30.2344 32.9063,30.2344 Q30.4063,30.2344 29.0781,28.5938 Q27.7656,26.9375 27.7656,23.8125 Q27.7656,20.6875 29.0781,19.0313 Q30.4063,17.375 32.9063,17.375 Q33.6094,17.375 34.25,17.5313 Q34.9063,17.6875 35.4688,17.9844 L35.4688,20.7031 Q34.8438,20.125 34.25,19.8594 Q33.6563,19.5781 33.0313,19.5781 Q31.6875,19.5781 31,20.6563 Q30.3125,21.7188 30.3125,23.8125 Q30.3125,25.9063 31,26.9844 Q31.6875,28.0469 33.0313,28.0469 Q33.6563,28.0469 34.25,27.7813 Q34.8438,27.5 35.4688,26.9219 L35.4688,29.6406 Z "/><text fill="#000000" font-family="sans-serif" font-size="12" lengthAdjust="spacingAndGlyphs" textLength="96" x="46.5" y="28.1543">MonoBehaviour</text><line style="stroke: #A80036; stroke-width: 1.5;" x1="18.5" x2="144.5" y1="40" y2="40"/><line style="stroke: #A80036; stroke-width: 1.5;" x1="18.5" x2="144.5" y1="48" y2="48"/><!--MD5=[bb47c80d0837e2d16b6dd366758c53e2]
reverse link MonoBehaviour to Rand--><path d="M81.5,76.27 C81.5,89.12 81.5,103.17 81.5,115.94 " fill="none" id="MonoBehaviour&lt;-Rand" style="stroke: #A80036; stroke-width: 1.0;"/><polygon fill="none" points="74.5,76.22,81.5,56.22,88.5,76.22,74.5,76.22" style="stroke: #A80036; stroke-width: 1.0;"/><!--MD5=[b8c25622a0cfd9f4a2c0dd5a4d4703ce]
@startuml
class Rand {
    + period : float = 5f
    Update() : void
    randomAPosition() : void
}
MonoBehaviour <|- - Rand
@enduml

PlantUML version 1.2020.02(Sun Mar 01 10:22:07 GMT 2020)
(GPL source distribution)
Java Runtime: OpenJDK Runtime Environment
JVM: OpenJDK 64-Bit Server VM
Java Version: 11.0.9+11-Ubuntu-0ubuntu1
Operating System: Linux
Default Encoding: ANSI_X3.4-1968
Language: en
Country: US
--></g></svg>