<?xml version="1.0" encoding="UTF-8" standalone="no"?><svg xmlns="http://www.w3.org/2000/svg" xmlns:xlink="http://www.w3.org/1999/xlink" contentScriptType="application/ecmascript" contentStyleType="text/css" height="360px" preserveAspectRatio="none" style="width:228px;height:360px;" version="1.1" viewBox="0 0 228 360" width="228px" zoomAndPan="magnify"><defs><filter height="300%" id="f11b3ogvxxjjvq" width="300%" x="-1" y="-1"><feGaussianBlur result="blurOut" stdDeviation="2.0"/><feColorMatrix in="blurOut" result="blurOut2" type="matrix" values="0 0 0 0 0 0 0 0 0 0 0 0 0 0 0 0 0 0 .4 0"/><feOffset dx="4.0" dy="4.0" in="blurOut2" result="blurOut3"/><feBlend in="SourceGraphic" in2="blurOut3" mode="normal"/></filter></defs><g><!--MD5=[6f522b686bd2387045ddfacafecb1c39]
class RandMonsterAI--><rect fill="#FEFECE" filter="url(#f11b3ogvxxjjvq)" height="124.8281" id="RandMonsterAI" style="stroke: #A80036; stroke-width: 1.5;" width="180" x="24.5" y="116"/><ellipse cx="63.8" cy="132" fill="#ADD1B2" rx="11" ry="11" style="stroke: #A80036; stroke-width: 1.0;"/><path d="M66.7688,137.6406 Q66.1906,137.9375 65.55,138.0781 Q64.9094,138.2344 64.2063,138.2344 Q61.7063,138.2344 60.3781,136.5938 Q59.0656,134.9375 59.0656,131.8125 Q59.0656,128.6875 60.3781,127.0313 Q61.7063,125.375 64.2063,125.375 Q64.9094,125.375 65.55,125.5313 Q66.2063,125.6875 66.7688,125.9844 L66.7688,128.7031 Q66.1438,128.125 65.55,127.8594 Q64.9563,127.5781 64.3313,127.5781 Q62.9875,127.5781 62.3,128.6563 Q61.6125,129.7188 61.6125,131.8125 Q61.6125,133.9063 62.3,134.9844 Q62.9875,136.0469 64.3313,136.0469 Q64.9563,136.0469 65.55,135.7813 Q66.1438,135.5 66.7688,134.9219 L66.7688,137.6406 Z "/><text fill="#000000" font-family="sans-serif" font-size="12" lengthAdjust="spacingAndGlyphs" textLength="94" x="83.2" y="136.1543">RandMonsterAI</text><line style="stroke: #A80036; stroke-width: 1.5;" x1="25.5" x2="203.5" y1="148" y2="148"/><ellipse cx="35.5" cy="159" fill="none" rx="3" ry="3" style="stroke: #038048; stroke-width: 1.0;"/><text fill="#000000" font-family="sans-serif" font-size="11" lengthAdjust="spacingAndGlyphs" textLength="145" x="44.5" y="162.2104">attackRange : float = 1.5f</text><ellipse cx="35.5" cy="171.8047" fill="none" rx="3" ry="3" style="stroke: #038048; stroke-width: 1.0;"/><text fill="#000000" font-family="sans-serif" font-size="11" lengthAdjust="spacingAndGlyphs" textLength="124" x="44.5" y="175.0151">attackRate : float = 1f</text><ellipse cx="35.5" cy="184.6094" fill="none" rx="3" ry="3" style="stroke: #038048; stroke-width: 1.0;"/><text fill="#000000" font-family="sans-serif" font-size="11" lengthAdjust="spacingAndGlyphs" textLength="154" x="44.5" y="187.8198">attackCooldown : float = 0f</text><line style="stroke: #A80036; stroke-width: 1.5;" x1="25.5" x2="203.5" y1="194.4141" y2="194.4141"/><ellipse cx="35.5" cy="205.4141" fill="#84BE84" rx="3" ry="3" style="stroke: #038048; stroke-width: 1.0;"/><text fill="#000000" font-family="sans-serif" font-size="11" lengthAdjust="spacingAndGlyphs" textLength="112" x="44.5" y="208.6245">«new» Start() : void</text><ellipse cx="35.5" cy="218.2188" fill="#84BE84" rx="3" ry="3" style="stroke: #038048; stroke-width: 1.0;"/><text fill="#000000" font-family="sans-serif" font-size="11" lengthAdjust="spacingAndGlyphs" textLength="124" x="44.5" y="221.4292">«new» Update() : void</text><text fill="#000000" font-family="sans-serif" font-size="11" lengthAdjust="spacingAndGlyphs" textLength="77" x="44.5" y="234.2339">Attack() : void</text><!--MD5=[2a578774cf62b55b7b7066481117dcd5]
class AIPath--><rect fill="#FEFECE" filter="url(#f11b3ogvxxjjvq)" height="48" id="AIPath" style="stroke: #A80036; stroke-width: 1.5;" width="72" x="78.5" y="8"/><ellipse cx="93.5" cy="24" fill="#ADD1B2" rx="11" ry="11" style="stroke: #A80036; stroke-width: 1.0;"/><path d="M96.4688,29.6406 Q95.8906,29.9375 95.25,30.0781 Q94.6094,30.2344 93.9063,30.2344 Q91.4063,30.2344 90.0781,28.5938 Q88.7656,26.9375 88.7656,23.8125 Q88.7656,20.6875 90.0781,19.0313 Q91.4063,17.375 93.9063,17.375 Q94.6094,17.375 95.25,17.5313 Q95.9063,17.6875 96.4688,17.9844 L96.4688,20.7031 Q95.8438,20.125 95.25,19.8594 Q94.6563,19.5781 94.0313,19.5781 Q92.6875,19.5781 92,20.6563 Q91.3125,21.7188 91.3125,23.8125 Q91.3125,25.9063 92,26.9844 Q92.6875,28.0469 94.0313,28.0469 Q94.6563,28.0469 95.25,27.7813 Q95.8438,27.5 96.4688,26.9219 L96.4688,29.6406 Z "/><text fill="#000000" font-family="sans-serif" font-size="12" lengthAdjust="spacingAndGlyphs" textLength="40" x="107.5" y="28.1543">AIPath</text><line style="stroke: #A80036; stroke-width: 1.5;" x1="79.5" x2="149.5" y1="40" y2="40"/><line style="stroke: #A80036; stroke-width: 1.5;" x1="79.5" x2="149.5" y1="48" y2="48"/><!--MD5=[004b1d6c4ca8aad4ba8b586a335ed4f3]
class Transform--><rect fill="#FEFECE" filter="url(#f11b3ogvxxjjvq)" height="48" id="Transform" style="stroke: #A80036; stroke-width: 1.5;" width="95" x="6" y="301"/><ellipse cx="21" cy="317" fill="#ADD1B2" rx="11" ry="11" style="stroke: #A80036; stroke-width: 1.0;"/><path d="M23.9688,322.6406 Q23.3906,322.9375 22.75,323.0781 Q22.1094,323.2344 21.4063,323.2344 Q18.9063,323.2344 17.5781,321.5938 Q16.2656,319.9375 16.2656,316.8125 Q16.2656,313.6875 17.5781,312.0313 Q18.9063,310.375 21.4063,310.375 Q22.1094,310.375 22.75,310.5313 Q23.4063,310.6875 23.9688,310.9844 L23.9688,313.7031 Q23.3438,313.125 22.75,312.8594 Q22.1563,312.5781 21.5313,312.5781 Q20.1875,312.5781 19.5,313.6563 Q18.8125,314.7188 18.8125,316.8125 Q18.8125,318.9063 19.5,319.9844 Q20.1875,321.0469 21.5313,321.0469 Q22.1563,321.0469 22.75,320.7813 Q23.3438,320.5 23.9688,319.9219 L23.9688,322.6406 Z "/><text fill="#000000" font-family="sans-serif" font-size="12" lengthAdjust="spacingAndGlyphs" textLength="63" x="35" y="321.1543">Transform</text><line style="stroke: #A80036; stroke-width: 1.5;" x1="7" x2="100" y1="333" y2="333"/><line style="stroke: #A80036; stroke-width: 1.5;" x1="7" x2="100" y1="341" y2="341"/><!--MD5=[65d619c042c23702cef2ca07d67b1cf6]
class Vector3--><rect fill="#FEFECE" filter="url(#f11b3ogvxxjjvq)" height="48" id="Vector3" style="stroke: #A80036; stroke-width: 1.5;" width="81" x="136" y="301"/><ellipse cx="151" cy="317" fill="#ADD1B2" rx="11" ry="11" style="stroke: #A80036; stroke-width: 1.0;"/><path d="M153.9688,322.6406 Q153.3906,322.9375 152.75,323.0781 Q152.1094,323.2344 151.4063,323.2344 Q148.9063,323.2344 147.5781,321.5938 Q146.2656,319.9375 146.2656,316.8125 Q146.2656,313.6875 147.5781,312.0313 Q148.9063,310.375 151.4063,310.375 Q152.1094,310.375 152.75,310.5313 Q153.4063,310.6875 153.9688,310.9844 L153.9688,313.7031 Q153.3438,313.125 152.75,312.8594 Q152.1563,312.5781 151.5313,312.5781 Q150.1875,312.5781 149.5,313.6563 Q148.8125,314.7188 148.8125,316.8125 Q148.8125,318.9063 149.5,319.9844 Q150.1875,321.0469 151.5313,321.0469 Q152.1563,321.0469 152.75,320.7813 Q153.3438,320.5 153.9688,319.9219 L153.9688,322.6406 Z "/><text fill="#000000" font-family="sans-serif" font-size="12" lengthAdjust="spacingAndGlyphs" textLength="49" x="165" y="321.1543">Vector3</text><line style="stroke: #A80036; stroke-width: 1.5;" x1="137" x2="216" y1="333" y2="333"/><line style="stroke: #A80036; stroke-width: 1.5;" x1="137" x2="216" y1="341" y2="341"/><!--MD5=[2b7e282fe4691669c87ca2341a6c2cbe]
reverse link AIPath to RandMonsterAI--><path d="M114.5,76.67 C114.5,89.05 114.5,102.77 114.5,115.99 " fill="none" id="AIPath&lt;-RandMonsterAI" style="stroke: #A80036; stroke-width: 1.0;"/><polygon fill="none" points="107.5,76.22,114.5,56.22,121.5,76.22,107.5,76.22" style="stroke: #A80036; stroke-width: 1.0;"/><!--MD5=[861710f013dcdb715c4d83c5a10a3e32]
link RandMonsterAI to Transform--><path d="M88.45,241.2 C80.35,260.39 71.83,280.59 65.22,296.23 " fill="none" id="RandMonsterAI-&gt;Transform" style="stroke: #A80036; stroke-width: 1.0;"/><polygon fill="#A80036" points="63.24,300.94,70.4265,294.2055,65.1854,296.334,63.0569,291.0928,63.24,300.94" style="stroke: #A80036; stroke-width: 1.0;"/><text fill="#000000" font-family="sans-serif" font-size="13" lengthAdjust="spacingAndGlyphs" textLength="39" x="21.739" y="289.9367">player</text><!--MD5=[fa0c62566c1113c8c28e02be826a37b6]
link RandMonsterAI to Vector3--><path d="M140.97,241.2 C149.21,260.39 157.87,280.59 164.59,296.23 " fill="none" id="RandMonsterAI-&gt;Vector3" style="stroke: #A80036; stroke-width: 1.0;"/><polygon fill="#A80036" points="166.6,300.94,166.7313,291.092,164.6304,296.3443,159.3781,294.2434,166.6,300.94" style="stroke: #A80036; stroke-width: 1.0;"/><text fill="#000000" font-family="sans-serif" font-size="13" lengthAdjust="spacingAndGlyphs" textLength="57" x="99.76" y="289.9367">noTarget</text><!--MD5=[e30822f79a848571052ce620b9703b73]
@startuml
class RandMonsterAI {
    + attackRange : float = 1.5f
    + attackRate : float = 1f
    + attackCooldown : float = 0f
    + <<new>> Start() : void
    + <<new>> Update() : void
    Attack() : void
}
AIPath <|- - RandMonsterAI
RandMonsterAI - -> "player" Transform
RandMonsterAI - -> "noTarget" Vector3
@enduml

PlantUML version 1.2020.02(Sun Mar 01 10:22:07 GMT 2020)
(GPL source distribution)
Java Runtime: OpenJDK Runtime Environment
JVM: OpenJDK 64-Bit Server VM
Java Version: 11.0.9+11-Ubuntu-0ubuntu1
Operating System: Linux
Default Encoding: ANSI_X3.4-1968
Language: en
Country: US
--></g></svg>