<?xml version="1.0" encoding="UTF-8" standalone="no"?><svg xmlns="http://www.w3.org/2000/svg" xmlns:xlink="http://www.w3.org/1999/xlink" contentScriptType="application/ecmascript" contentStyleType="text/css" height="309px" preserveAspectRatio="none" style="width:173px;height:309px;" version="1.1" viewBox="0 0 173 309" width="173px" zoomAndPan="magnify"><defs><filter height="300%" id="f1jzajjmz44agh" width="300%" x="-1" y="-1"><feGaussianBlur result="blurOut" stdDeviation="2.0"/><feColorMatrix in="blurOut" result="blurOut2" type="matrix" values="0 0 0 0 0 0 0 0 0 0 0 0 0 0 0 0 0 0 .4 0"/><feOffset dx="4.0" dy="4.0" in="blurOut2" result="blurOut3"/><feBlend in="SourceGraphic" in2="blurOut3" mode="normal"/></filter></defs><g><!--MD5=[46c0f6cfedc5f84e0cacde0090a36d6f]
class DestroyMiniMapIcon--><rect fill="#FEFECE" filter="url(#f1jzajjmz44agh)" height="73.6094" id="DestroyMiniMapIcon" style="stroke: #A80036; stroke-width: 1.5;" width="156" x="6" y="116"/><ellipse cx="21" cy="132" fill="#ADD1B2" rx="11" ry="11" style="stroke: #A80036; stroke-width: 1.0;"/><path d="M23.9688,137.6406 Q23.3906,137.9375 22.75,138.0781 Q22.1094,138.2344 21.4063,138.2344 Q18.9063,138.2344 17.5781,136.5938 Q16.2656,134.9375 16.2656,131.8125 Q16.2656,128.6875 17.5781,127.0313 Q18.9063,125.375 21.4063,125.375 Q22.1094,125.375 22.75,125.5313 Q23.4063,125.6875 23.9688,125.9844 L23.9688,128.7031 Q23.3438,128.125 22.75,127.8594 Q22.1563,127.5781 21.5313,127.5781 Q20.1875,127.5781 19.5,128.6563 Q18.8125,129.7188 18.8125,131.8125 Q18.8125,133.9063 19.5,134.9844 Q20.1875,136.0469 21.5313,136.0469 Q22.1563,136.0469 22.75,135.7813 Q23.3438,135.5 23.9688,134.9219 L23.9688,137.6406 Z "/><text fill="#000000" font-family="sans-serif" font-size="12" lengthAdjust="spacingAndGlyphs" textLength="124" x="35" y="136.1543">DestroyMiniMapIcon</text><line style="stroke: #A80036; stroke-width: 1.5;" x1="7" x2="161" y1="148" y2="148"/><line style="stroke: #A80036; stroke-width: 1.5;" x1="7" x2="161" y1="156" y2="156"/><text fill="#000000" font-family="sans-serif" font-size="11" lengthAdjust="spacingAndGlyphs" textLength="71" x="12" y="170.2104">Start() : void</text><text fill="#000000" font-family="sans-serif" font-size="11" lengthAdjust="spacingAndGlyphs" textLength="83" x="12" y="183.0151">Update() : void</text><!--MD5=[83b3cf3d23d77c6f1e1b5291a241bc2a]
class MonoBehaviour--><rect fill="#FEFECE" filter="url(#f1jzajjmz44agh)" height="48" id="MonoBehaviour" style="stroke: #A80036; stroke-width: 1.5;" width="128" x="20" y="8"/><ellipse cx="35" cy="24" fill="#ADD1B2" rx="11" ry="11" style="stroke: #A80036; stroke-width: 1.0;"/><path d="M37.9688,29.6406 Q37.3906,29.9375 36.75,30.0781 Q36.1094,30.2344 35.4063,30.2344 Q32.9063,30.2344 31.5781,28.5938 Q30.2656,26.9375 30.2656,23.8125 Q30.2656,20.6875 31.5781,19.0313 Q32.9063,17.375 35.4063,17.375 Q36.1094,17.375 36.75,17.5313 Q37.4063,17.6875 37.9688,17.9844 L37.9688,20.7031 Q37.3438,20.125 36.75,19.8594 Q36.1563,19.5781 35.5313,19.5781 Q34.1875,19.5781 33.5,20.6563 Q32.8125,21.7188 32.8125,23.8125 Q32.8125,25.9063 33.5,26.9844 Q34.1875,28.0469 35.5313,28.0469 Q36.1563,28.0469 36.75,27.7813 Q37.3438,27.5 37.9688,26.9219 L37.9688,29.6406 Z "/><text fill="#000000" font-family="sans-serif" font-size="12" lengthAdjust="spacingAndGlyphs" textLength="96" x="49" y="28.1543">MonoBehaviour</text><line style="stroke: #A80036; stroke-width: 1.5;" x1="21" x2="147" y1="40" y2="40"/><line style="stroke: #A80036; stroke-width: 1.5;" x1="21" x2="147" y1="48" y2="48"/><!--MD5=[064f7a74fee85463ec1a30143664ee17]
class GameObject--><rect fill="#FEFECE" filter="url(#f1jzajjmz44agh)" height="48" id="GameObject" style="stroke: #A80036; stroke-width: 1.5;" width="108" x="30" y="250"/><ellipse cx="45" cy="266" fill="#ADD1B2" rx="11" ry="11" style="stroke: #A80036; stroke-width: 1.0;"/><path d="M47.9688,271.6406 Q47.3906,271.9375 46.75,272.0781 Q46.1094,272.2344 45.4063,272.2344 Q42.9063,272.2344 41.5781,270.5938 Q40.2656,268.9375 40.2656,265.8125 Q40.2656,262.6875 41.5781,261.0313 Q42.9063,259.375 45.4063,259.375 Q46.1094,259.375 46.75,259.5313 Q47.4063,259.6875 47.9688,259.9844 L47.9688,262.7031 Q47.3438,262.125 46.75,261.8594 Q46.1563,261.5781 45.5313,261.5781 Q44.1875,261.5781 43.5,262.6563 Q42.8125,263.7188 42.8125,265.8125 Q42.8125,267.9063 43.5,268.9844 Q44.1875,270.0469 45.5313,270.0469 Q46.1563,270.0469 46.75,269.7813 Q47.3438,269.5 47.9688,268.9219 L47.9688,271.6406 Z "/><text fill="#000000" font-family="sans-serif" font-size="12" lengthAdjust="spacingAndGlyphs" textLength="76" x="59" y="270.1543">GameObject</text><line style="stroke: #A80036; stroke-width: 1.5;" x1="31" x2="137" y1="282" y2="282"/><line style="stroke: #A80036; stroke-width: 1.5;" x1="31" x2="137" y1="290" y2="290"/><!--MD5=[5d8cbcf8374ad73c00fe790f7300bd88]
reverse link MonoBehaviour to DestroyMiniMapIcon--><path d="M84,76.43 C84,89.33 84,103.32 84,115.71 " fill="none" id="MonoBehaviour&lt;-DestroyMiniMapIcon" style="stroke: #A80036; stroke-width: 1.0;"/><polygon fill="none" points="77,76.23,84,56.23,91,76.23,77,76.23" style="stroke: #A80036; stroke-width: 1.0;"/><!--MD5=[f6433a59ae119012602d46e1c759ffd9]
link DestroyMiniMapIcon to GameObject--><path d="M72.18,190.03 C70.73,207.48 70.98,228.15 72.93,244.49 " fill="none" id="DestroyMiniMapIcon-&gt;GameObject" style="stroke: #A80036; stroke-width: 1.0;"/><polygon fill="#A80036" points="73.66,249.85,76.4158,240.3946,72.9889,244.8952,68.4882,241.4683,73.66,249.85" style="stroke: #A80036; stroke-width: 1.0;"/><text fill="#000000" font-family="sans-serif" font-size="13" lengthAdjust="spacingAndGlyphs" textLength="22" x="46.1916" y="238.8236">key</text><!--MD5=[f6433a59ae119012602d46e1c759ffd9]
link DestroyMiniMapIcon to GameObject--><path d="M96.52,190.03 C98.05,207.48 97.79,228.15 95.72,244.49 " fill="none" id="DestroyMiniMapIcon-&gt;GameObject-1" style="stroke: #A80036; stroke-width: 1.0;"/><polygon fill="#A80036" points="94.95,249.85,100.1961,241.5146,95.6651,244.9014,92.2783,240.3704,94.95,249.85" style="stroke: #A80036; stroke-width: 1.0;"/><text fill="#000000" font-family="sans-serif" font-size="13" lengthAdjust="spacingAndGlyphs" textLength="48" x="103.9059" y="238.8236">keyIcon</text><!--MD5=[51b092ff9c6d6fde818f8fa564369ff9]
@startuml
class DestroyMiniMapIcon {
    Start() : void
    Update() : void
}
MonoBehaviour <|- - DestroyMiniMapIcon
DestroyMiniMapIcon - -> "key" GameObject
DestroyMiniMapIcon - -> "keyIcon" GameObject
@enduml

PlantUML version 1.2020.02(Sun Mar 01 10:22:07 GMT 2020)
(GPL source distribution)
Java Runtime: OpenJDK Runtime Environment
JVM: OpenJDK 64-Bit Server VM
Java Version: 11.0.9+11-Ubuntu-0ubuntu1
Operating System: Linux
Default Encoding: ANSI_X3.4-1968
Language: en
Country: US
--></g></svg>