<?xml version="1.0" encoding="UTF-8" standalone="no"?><svg xmlns="http://www.w3.org/2000/svg" xmlns:xlink="http://www.w3.org/1999/xlink" contentScriptType="application/ecmascript" contentStyleType="text/css" height="200px" preserveAspectRatio="none" style="width:145px;height:200px;" version="1.1" viewBox="0 0 145 200" width="145px" zoomAndPan="magnify"><defs><filter height="300%" id="fg59p6ydak3xg" width="300%" x="-1" y="-1"><feGaussianBlur result="blurOut" stdDeviation="2.0"/><feColorMatrix in="blurOut" result="blurOut2" type="matrix" values="0 0 0 0 0 0 0 0 0 0 0 0 0 0 0 0 0 0 .4 0"/><feOffset dx="4.0" dy="4.0" in="blurOut2" result="blurOut3"/><feBlend in="SourceGraphic" in2="blurOut3" mode="normal"/></filter></defs><g><!--MD5=[2c73bf5b0ed160ee9d504c7cc528328c]
class Minimap--><rect fill="#FEFECE" filter="url(#fg59p6ydak3xg)" height="73.6094" id="Minimap" style="stroke: #A80036; stroke-width: 1.5;" width="119" x="10.5" y="116"/><ellipse cx="41.7" cy="132" fill="#ADD1B2" rx="11" ry="11" style="stroke: #A80036; stroke-width: 1.0;"/><path d="M44.6688,137.6406 Q44.0906,137.9375 43.45,138.0781 Q42.8094,138.2344 42.1063,138.2344 Q39.6063,138.2344 38.2781,136.5938 Q36.9656,134.9375 36.9656,131.8125 Q36.9656,128.6875 38.2781,127.0313 Q39.6063,125.375 42.1063,125.375 Q42.8094,125.375 43.45,125.5313 Q44.1063,125.6875 44.6688,125.9844 L44.6688,128.7031 Q44.0438,128.125 43.45,127.8594 Q42.8563,127.5781 42.2313,127.5781 Q40.8875,127.5781 40.2,128.6563 Q39.5125,129.7188 39.5125,131.8125 Q39.5125,133.9063 40.2,134.9844 Q40.8875,136.0469 42.2313,136.0469 Q42.8563,136.0469 43.45,135.7813 Q44.0438,135.5 44.6688,134.9219 L44.6688,137.6406 Z "/><text fill="#000000" font-family="sans-serif" font-size="12" lengthAdjust="spacingAndGlyphs" textLength="51" x="59.3" y="136.1543">Minimap</text><line style="stroke: #A80036; stroke-width: 1.5;" x1="11.5" x2="128.5" y1="148" y2="148"/><line style="stroke: #A80036; stroke-width: 1.5;" x1="11.5" x2="128.5" y1="156" y2="156"/><text fill="#000000" font-family="sans-serif" font-size="11" lengthAdjust="spacingAndGlyphs" textLength="71" x="16.5" y="170.2104">Start() : void</text><text fill="#000000" font-family="sans-serif" font-size="11" lengthAdjust="spacingAndGlyphs" textLength="107" x="16.5" y="183.0151">LateUpdate() : void</text><!--MD5=[83b3cf3d23d77c6f1e1b5291a241bc2a]
class MonoBehaviour--><rect fill="#FEFECE" filter="url(#fg59p6ydak3xg)" height="48" id="MonoBehaviour" style="stroke: #A80036; stroke-width: 1.5;" width="128" x="6" y="8"/><ellipse cx="21" cy="24" fill="#ADD1B2" rx="11" ry="11" style="stroke: #A80036; stroke-width: 1.0;"/><path d="M23.9688,29.6406 Q23.3906,29.9375 22.75,30.0781 Q22.1094,30.2344 21.4063,30.2344 Q18.9063,30.2344 17.5781,28.5938 Q16.2656,26.9375 16.2656,23.8125 Q16.2656,20.6875 17.5781,19.0313 Q18.9063,17.375 21.4063,17.375 Q22.1094,17.375 22.75,17.5313 Q23.4063,17.6875 23.9688,17.9844 L23.9688,20.7031 Q23.3438,20.125 22.75,19.8594 Q22.1563,19.5781 21.5313,19.5781 Q20.1875,19.5781 19.5,20.6563 Q18.8125,21.7188 18.8125,23.8125 Q18.8125,25.9063 19.5,26.9844 Q20.1875,28.0469 21.5313,28.0469 Q22.1563,28.0469 22.75,27.7813 Q23.3438,27.5 23.9688,26.9219 L23.9688,29.6406 Z "/><text fill="#000000" font-family="sans-serif" font-size="12" lengthAdjust="spacingAndGlyphs" textLength="96" x="35" y="28.1543">MonoBehaviour</text><line style="stroke: #A80036; stroke-width: 1.5;" x1="7" x2="133" y1="40" y2="40"/><line style="stroke: #A80036; stroke-width: 1.5;" x1="7" x2="133" y1="48" y2="48"/><!--MD5=[d107a940d05fa1e0940d702374990ee0]
reverse link MonoBehaviour to Minimap--><path d="M70,76.43 C70,89.33 70,103.32 70,115.71 " fill="none" id="MonoBehaviour&lt;-Minimap" style="stroke: #A80036; stroke-width: 1.0;"/><polygon fill="none" points="63,76.23,70,56.23,77,76.23,63,76.23" style="stroke: #A80036; stroke-width: 1.0;"/><!--MD5=[25cef7b3bf2c25377bd5f07a3b389636]
@startuml
class Minimap {
    Start() : void
    LateUpdate() : void
}
MonoBehaviour <|- - Minimap
@enduml

PlantUML version 1.2020.02(Sun Mar 01 10:22:07 GMT 2020)
(GPL source distribution)
Java Runtime: OpenJDK Runtime Environment
JVM: OpenJDK 64-Bit Server VM
Java Version: 11.0.9+11-Ubuntu-0ubuntu1
Operating System: Linux
Default Encoding: ANSI_X3.4-1968
Language: en
Country: US
--></g></svg>