<?xml version="1.0" encoding="UTF-8" standalone="no"?><svg xmlns="http://www.w3.org/2000/svg" xmlns:xlink="http://www.w3.org/1999/xlink" contentScriptType="application/ecmascript" contentStyleType="text/css" height="296px" preserveAspectRatio="none" style="width:293px;height:296px;" version="1.1" viewBox="0 0 293 296" width="293px" zoomAndPan="magnify"><defs><filter height="300%" id="f1ree7xj56y4qi" width="300%" x="-1" y="-1"><feGaussianBlur result="blurOut" stdDeviation="2.0"/><feColorMatrix in="blurOut" result="blurOut2" type="matrix" values="0 0 0 0 0 0 0 0 0 0 0 0 0 0 0 0 0 0 .4 0"/><feOffset dx="4.0" dy="4.0" in="blurOut2" result="blurOut3"/><feBlend in="SourceGraphic" in2="blurOut3" mode="normal"/></filter></defs><g><!--MD5=[970e74f743e8297823f7e7479963b6f9]
class SwitchCamera--><rect fill="#FEFECE" filter="url(#f1ree7xj56y4qi)" height="60.8047" id="SwitchCamera" style="stroke: #A80036; stroke-width: 1.5;" width="166" x="59.57" y="116"/><ellipse cx="95.27" cy="132" fill="#ADD1B2" rx="11" ry="11" style="stroke: #A80036; stroke-width: 1.0;"/><path d="M98.2388,137.6406 Q97.6606,137.9375 97.02,138.0781 Q96.3794,138.2344 95.6763,138.2344 Q93.1763,138.2344 91.8481,136.5938 Q90.5356,134.9375 90.5356,131.8125 Q90.5356,128.6875 91.8481,127.0313 Q93.1763,125.375 95.6763,125.375 Q96.3794,125.375 97.02,125.5313 Q97.6763,125.6875 98.2388,125.9844 L98.2388,128.7031 Q97.6138,128.125 97.02,127.8594 Q96.4263,127.5781 95.8013,127.5781 Q94.4575,127.5781 93.77,128.6563 Q93.0825,129.7188 93.0825,131.8125 Q93.0825,133.9063 93.77,134.9844 Q94.4575,136.0469 95.8013,136.0469 Q96.4263,136.0469 97.02,135.7813 Q97.6138,135.5 98.2388,134.9219 L98.2388,137.6406 Z "/><text fill="#000000" font-family="sans-serif" font-size="12" lengthAdjust="spacingAndGlyphs" textLength="88" x="113.87" y="136.1543">SwitchCamera</text><line style="stroke: #A80036; stroke-width: 1.5;" x1="60.57" x2="224.57" y1="148" y2="148"/><line style="stroke: #A80036; stroke-width: 1.5;" x1="60.57" x2="224.57" y1="156" y2="156"/><ellipse cx="70.57" cy="167" fill="#84BE84" rx="3" ry="3" style="stroke: #038048; stroke-width: 1.0;"/><text fill="#000000" font-family="sans-serif" font-size="11" lengthAdjust="spacingAndGlyphs" textLength="140" x="79.57" y="170.2104">ClickZoomButton() : void</text><!--MD5=[83b3cf3d23d77c6f1e1b5291a241bc2a]
class MonoBehaviour--><rect fill="#FEFECE" filter="url(#f1ree7xj56y4qi)" height="48" id="MonoBehaviour" style="stroke: #A80036; stroke-width: 1.5;" width="128" x="78.57" y="8"/><ellipse cx="93.57" cy="24" fill="#ADD1B2" rx="11" ry="11" style="stroke: #A80036; stroke-width: 1.0;"/><path d="M96.5388,29.6406 Q95.9606,29.9375 95.32,30.0781 Q94.6794,30.2344 93.9763,30.2344 Q91.4763,30.2344 90.1481,28.5938 Q88.8356,26.9375 88.8356,23.8125 Q88.8356,20.6875 90.1481,19.0313 Q91.4763,17.375 93.9763,17.375 Q94.6794,17.375 95.32,17.5313 Q95.9763,17.6875 96.5388,17.9844 L96.5388,20.7031 Q95.9138,20.125 95.32,19.8594 Q94.7263,19.5781 94.1013,19.5781 Q92.7575,19.5781 92.07,20.6563 Q91.3825,21.7188 91.3825,23.8125 Q91.3825,25.9063 92.07,26.9844 Q92.7575,28.0469 94.1013,28.0469 Q94.7263,28.0469 95.32,27.7813 Q95.9138,27.5 96.5388,26.9219 L96.5388,29.6406 Z "/><text fill="#000000" font-family="sans-serif" font-size="12" lengthAdjust="spacingAndGlyphs" textLength="96" x="107.57" y="28.1543">MonoBehaviour</text><line style="stroke: #A80036; stroke-width: 1.5;" x1="79.57" x2="205.57" y1="40" y2="40"/><line style="stroke: #A80036; stroke-width: 1.5;" x1="79.57" x2="205.57" y1="48" y2="48"/><!--MD5=[064f7a74fee85463ec1a30143664ee17]
class GameObject--><rect fill="#FEFECE" filter="url(#f1ree7xj56y4qi)" height="48" id="GameObject" style="stroke: #A80036; stroke-width: 1.5;" width="108" x="88.57" y="237"/><ellipse cx="103.57" cy="253" fill="#ADD1B2" rx="11" ry="11" style="stroke: #A80036; stroke-width: 1.0;"/><path d="M106.5388,258.6406 Q105.9606,258.9375 105.32,259.0781 Q104.6794,259.2344 103.9763,259.2344 Q101.4763,259.2344 100.1481,257.5938 Q98.8356,255.9375 98.8356,252.8125 Q98.8356,249.6875 100.1481,248.0313 Q101.4763,246.375 103.9763,246.375 Q104.6794,246.375 105.32,246.5313 Q105.9763,246.6875 106.5388,246.9844 L106.5388,249.7031 Q105.9138,249.125 105.32,248.8594 Q104.7263,248.5781 104.1013,248.5781 Q102.7575,248.5781 102.07,249.6563 Q101.3825,250.7188 101.3825,252.8125 Q101.3825,254.9063 102.07,255.9844 Q102.7575,257.0469 104.1013,257.0469 Q104.7263,257.0469 105.32,256.7813 Q105.9138,256.5 106.5388,255.9219 L106.5388,258.6406 Z "/><text fill="#000000" font-family="sans-serif" font-size="12" lengthAdjust="spacingAndGlyphs" textLength="76" x="117.57" y="257.1543">GameObject</text><line style="stroke: #A80036; stroke-width: 1.5;" x1="89.57" x2="195.57" y1="269" y2="269"/><line style="stroke: #A80036; stroke-width: 1.5;" x1="89.57" x2="195.57" y1="277" y2="277"/><!--MD5=[4a122091f417d0bb3e4f74449cb19b71]
reverse link MonoBehaviour to SwitchCamera--><path d="M142.57,76.11 C142.57,89.31 142.57,103.54 142.57,115.65 " fill="none" id="MonoBehaviour&lt;-SwitchCamera" style="stroke: #A80036; stroke-width: 1.0;"/><polygon fill="none" points="135.57,76.04,142.57,56.04,149.57,76.04,135.57,76.04" style="stroke: #A80036; stroke-width: 1.0;"/><!--MD5=[f399058ab6093e376c70c6f82ca24690]
link SwitchCamera to GameObject--><path d="M131.19,177.06 C129.31,193.93 129.36,214.98 131.33,231.65 " fill="none" id="SwitchCamera-&gt;GameObject" style="stroke: #A80036; stroke-width: 1.0;"/><polygon fill="#A80036" points="132,236.67,134.7826,227.2224,131.3429,231.7134,126.852,228.2737,132,236.67" style="stroke: #A80036; stroke-width: 1.0;"/><text fill="#000000" font-family="sans-serif" font-size="13" lengthAdjust="spacingAndGlyphs" textLength="111" x="4.8954" y="225.9945">MiniMapCamera1</text><!--MD5=[f399058ab6093e376c70c6f82ca24690]
link SwitchCamera to GameObject--><path d="M154.61,177.06 C156.6,193.93 156.55,214.98 154.47,231.65 " fill="none" id="SwitchCamera-&gt;GameObject-1" style="stroke: #A80036; stroke-width: 1.0;"/><polygon fill="#A80036" points="153.76,236.67,158.9791,228.3177,154.4591,231.7191,151.0577,227.1991,153.76,236.67" style="stroke: #A80036; stroke-width: 1.0;"/><text fill="#000000" font-family="sans-serif" font-size="13" lengthAdjust="spacingAndGlyphs" textLength="111" x="170.0157" y="225.9945">MiniMapCamera2</text><!--MD5=[7a57f526340f344654275806db65105d]
@startuml
class SwitchCamera {
    + ClickZoomButton() : void
}
MonoBehaviour <|- - SwitchCamera
SwitchCamera - -> "MiniMapCamera1" GameObject
SwitchCamera - -> "MiniMapCamera2" GameObject
@enduml

PlantUML version 1.2020.02(Sun Mar 01 10:22:07 GMT 2020)
(GPL source distribution)
Java Runtime: OpenJDK Runtime Environment
JVM: OpenJDK 64-Bit Server VM
Java Version: 11.0.9+11-Ubuntu-0ubuntu1
Operating System: Linux
Default Encoding: ANSI_X3.4-1968
Language: en
Country: US
--></g></svg>